<svg width="16" height="16" viewBox="0 0 16 16" fill="none" xmlns="http://www.w3.org/2000/svg">
<path d="M3.33317 7.99992C3.15636 7.99992 2.98679 8.07016 2.86177 8.19518C2.73674 8.3202 2.6665 8.48977 2.6665 8.66658V13.9999C2.6665 14.1767 2.73674 14.3463 2.86177 14.4713C2.98679 14.5963 3.15636 14.6666 3.33317 14.6666C3.50998 14.6666 3.67955 14.5963 3.80457 14.4713C3.9296 14.3463 3.99984 14.1767 3.99984 13.9999V8.66658C3.99984 8.48977 3.9296 8.3202 3.80457 8.19518C3.67955 8.07016 3.50998 7.99992 3.33317 7.99992ZM6.6665 1.33325C6.48969 1.33325 6.32012 1.40349 6.1951 1.52851C6.07008 1.65354 5.99984 1.82311 5.99984 1.99992V13.9999C5.99984 14.1767 6.07008 14.3463 6.1951 14.4713C6.32012 14.5963 6.48969 14.6666 6.6665 14.6666C6.84332 14.6666 7.01288 14.5963 7.13791 14.4713C7.26293 14.3463 7.33317 14.1767 7.33317 13.9999V1.99992C7.33317 1.82311 7.26293 1.65354 7.13791 1.52851C7.01288 1.40349 6.84332 1.33325 6.6665 1.33325ZM13.3332 10.6666C13.1564 10.6666 12.9868 10.7368 12.8618 10.8618C12.7367 10.9869 12.6665 11.1564 12.6665 11.3333V13.9999C12.6665 14.1767 12.7367 14.3463 12.8618 14.4713C12.9868 14.5963 13.1564 14.6666 13.3332 14.6666C13.51 14.6666 13.6796 14.5963 13.8046 14.4713C13.9296 14.3463 13.9998 14.1767 13.9998 13.9999V11.3333C13.9998 11.1564 13.9296 10.9869 13.8046 10.8618C13.6796 10.7368 13.51 10.6666 13.3332 10.6666ZM9.99984 5.33325C9.82303 5.33325 9.65346 5.40349 9.52843 5.52851C9.40341 5.65354 9.33317 5.82311 9.33317 5.99992V13.9999C9.33317 14.1767 9.40341 14.3463 9.52843 14.4713C9.65346 14.5963 9.82303 14.6666 9.99984 14.6666C10.1766 14.6666 10.3462 14.5963 10.4712 14.4713C10.5963 14.3463 10.6665 14.1767 10.6665 13.9999V5.99992C10.6665 5.82311 10.5963 5.65354 10.4712 5.52851C10.3462 5.40349 10.1766 5.33325 9.99984 5.33325Z" fill="#161E25"/>
</svg>
