<svg width="15" height="15" viewBox="0 0 15 15" fill="none" xmlns="http://www.w3.org/2000/svg">
<path d="M13.7 4.1375C13.6365 3.98478 13.5152 3.86342 13.3625 3.8C13.2873 3.76797 13.2066 3.75099 13.125 3.75H9.99996C9.8342 3.75 9.67523 3.81585 9.55802 3.93306C9.44081 4.05027 9.37496 4.20924 9.37496 4.375C9.37496 4.54076 9.44081 4.69973 9.55802 4.81694C9.67523 4.93415 9.8342 5 9.99996 5H11.6187L8.12496 8.49375L6.06871 6.43125C6.01061 6.37267 5.94148 6.32617 5.86532 6.29444C5.78916 6.26271 5.70747 6.24638 5.62496 6.24638C5.54245 6.24638 5.46076 6.26271 5.3846 6.29444C5.30844 6.32617 5.23931 6.37267 5.18121 6.43125L1.43121 10.1813C1.37263 10.2394 1.32614 10.3085 1.2944 10.3846C1.26267 10.4608 1.24634 10.5425 1.24634 10.625C1.24634 10.7075 1.26267 10.7892 1.2944 10.8654C1.32614 10.9415 1.37263 11.0106 1.43121 11.0687C1.48931 11.1273 1.55844 11.1738 1.6346 11.2056C1.71076 11.2373 1.79245 11.2536 1.87496 11.2536C1.95747 11.2536 2.03916 11.2373 2.11532 11.2056C2.19148 11.1738 2.26061 11.1273 2.31871 11.0687L5.62496 7.75625L7.68121 9.81875C7.73931 9.87733 7.80844 9.92383 7.8846 9.95556C7.96076 9.98729 8.04245 10.0036 8.12496 10.0036C8.20747 10.0036 8.28916 9.98729 8.36532 9.95556C8.44148 9.92383 8.51061 9.87733 8.56871 9.81875L12.5 5.88125V7.5C12.5 7.66576 12.5658 7.82473 12.683 7.94194C12.8002 8.05915 12.9592 8.125 13.125 8.125C13.2907 8.125 13.4497 8.05915 13.5669 7.94194C13.6841 7.82473 13.75 7.66576 13.75 7.5V4.375C13.749 4.29333 13.732 4.21264 13.7 4.1375Z" fill="#E51F30"/>
</svg>
