<svg width="15" height="15" viewBox="0 0 15 15" fill="none" xmlns="http://www.w3.org/2000/svg">
<path d="M13.1251 6.87512C12.9594 6.87512 12.8004 6.94096 12.6832 7.05817C12.566 7.17538 12.5001 7.33436 12.5001 7.50012V9.11887L8.56887 5.18137C8.51076 5.12279 8.44164 5.07629 8.36548 5.04456C8.28931 5.01283 8.20762 4.99649 8.12512 4.99649C8.04261 4.99649 7.96092 5.01283 7.88476 5.04456C7.80859 5.07629 7.73947 5.12279 7.68137 5.18137L5.62512 7.24387L2.31887 3.93137C2.20118 3.81368 2.04155 3.74756 1.87512 3.74756C1.70868 3.74756 1.54906 3.81368 1.43137 3.93137C1.31368 4.04906 1.24756 4.20868 1.24756 4.37512C1.24756 4.54155 1.31368 4.70118 1.43137 4.81887L5.18137 8.56887C5.23947 8.62745 5.30859 8.67394 5.38476 8.70567C5.46092 8.7374 5.54261 8.75374 5.62512 8.75374C5.70762 8.75374 5.78931 8.7374 5.86548 8.70567C5.94164 8.67394 6.01076 8.62745 6.06887 8.56887L8.12512 6.50637L11.6189 10.0001H10.0001C9.83436 10.0001 9.67538 10.066 9.55817 10.1832C9.44096 10.3004 9.37512 10.4594 9.37512 10.6251C9.37512 10.7909 9.44096 10.9498 9.55817 11.0671C9.67538 11.1843 9.83436 11.2501 10.0001 11.2501H13.1251C13.2068 11.2491 13.2875 11.2321 13.3626 11.2001C13.5153 11.1367 13.6367 11.0153 13.7001 10.8626C13.7321 10.7875 13.7491 10.7068 13.7501 10.6251V7.50012C13.7501 7.33436 13.6843 7.17538 13.5671 7.05817C13.4498 6.94096 13.2909 6.87512 13.1251 6.87512Z" fill="#0E9F57"/>
</svg>
