<svg width="14" height="14" viewBox="0 0 14 14" fill="none" xmlns="http://www.w3.org/2000/svg">
<path d="M11.0832 2.33341H9.9165V1.75008C9.9165 1.59537 9.85505 1.447 9.74565 1.3376C9.63625 1.22821 9.48788 1.16675 9.33317 1.16675C9.17846 1.16675 9.03009 1.22821 8.92069 1.3376C8.8113 1.447 8.74984 1.59537 8.74984 1.75008V2.33341H5.24984V1.75008C5.24984 1.59537 5.18838 1.447 5.07898 1.3376C4.96959 1.22821 4.82121 1.16675 4.6665 1.16675C4.51179 1.16675 4.36342 1.22821 4.25403 1.3376C4.14463 1.447 4.08317 1.59537 4.08317 1.75008V2.33341H2.9165C2.45238 2.33341 2.00726 2.51779 1.67907 2.84598C1.35088 3.17417 1.1665 3.61929 1.1665 4.08342V11.0834C1.1665 11.5475 1.35088 11.9927 1.67907 12.3209C2.00726 12.649 2.45238 12.8334 2.9165 12.8334H11.0832C11.5473 12.8334 11.9924 12.649 12.3206 12.3209C12.6488 11.9927 12.8332 11.5475 12.8332 11.0834V4.08342C12.8332 3.61929 12.6488 3.17417 12.3206 2.84598C11.9924 2.51779 11.5473 2.33341 11.0832 2.33341ZM11.6665 11.0834C11.6665 11.2381 11.605 11.3865 11.4957 11.4959C11.3863 11.6053 11.2379 11.6667 11.0832 11.6667H2.9165C2.76179 11.6667 2.61342 11.6053 2.50403 11.4959C2.39463 11.3865 2.33317 11.2381 2.33317 11.0834V7.00008H11.6665V11.0834ZM11.6665 5.83342H2.33317V4.08342C2.33317 3.92871 2.39463 3.78033 2.50403 3.67094C2.61342 3.56154 2.76179 3.50008 2.9165 3.50008H4.08317V4.08342C4.08317 4.23812 4.14463 4.3865 4.25403 4.49589C4.36342 4.60529 4.51179 4.66675 4.6665 4.66675C4.82121 4.66675 4.96959 4.60529 5.07898 4.49589C5.18838 4.3865 5.24984 4.23812 5.24984 4.08342V3.50008H8.74984V4.08342C8.74984 4.23812 8.8113 4.3865 8.92069 4.49589C9.03009 4.60529 9.17846 4.66675 9.33317 4.66675C9.48788 4.66675 9.63625 4.60529 9.74565 4.49589C9.85505 4.3865 9.9165 4.23812 9.9165 4.08342V3.50008H11.0832C11.2379 3.50008 11.3863 3.56154 11.4957 3.67094C11.605 3.78033 11.6665 3.92871 11.6665 4.08342V5.83342Z" fill="#444C55"/>
</svg>
