<svg width="16" height="16" viewBox="0 0 16 16" fill="none" xmlns="http://www.w3.org/2000/svg">
<path d="M6.33333 9.33333H1.66667C1.48986 9.33333 1.32029 9.40357 1.19526 9.52859C1.07024 9.65362 1 9.82319 1 10V14.6667C1 14.8435 1.07024 15.013 1.19526 15.1381C1.32029 15.2631 1.48986 15.3333 1.66667 15.3333H6.33333C6.51014 15.3333 6.67971 15.2631 6.80474 15.1381C6.92976 15.013 7 14.8435 7 14.6667V10C7 9.82319 6.92976 9.65362 6.80474 9.52859C6.67971 9.40357 6.51014 9.33333 6.33333 9.33333ZM5.66667 14H2.33333V10.6667H5.66667V14ZM13.6667 2H9C8.82319 2 8.65362 2.07024 8.52859 2.19526C8.40357 2.32029 8.33333 2.48986 8.33333 2.66667V7.33333C8.33333 7.51014 8.40357 7.67971 8.52859 7.80474C8.65362 7.92976 8.82319 8 9 8H13.6667C13.8435 8 14.013 7.92976 14.1381 7.80474C14.2631 7.67971 14.3333 7.51014 14.3333 7.33333V2.66667C14.3333 2.48986 14.2631 2.32029 14.1381 2.19526C14.013 2.07024 13.8435 2 13.6667 2ZM13 6.66667H9.66667V3.33333H13V6.66667ZM13.6667 9.33333H9C8.82319 9.33333 8.65362 9.40357 8.52859 9.52859C8.40357 9.65362 8.33333 9.82319 8.33333 10V14.6667C8.33333 14.8435 8.40357 15.013 8.52859 15.1381C8.65362 15.2631 8.82319 15.3333 9 15.3333H13.6667C13.8435 15.3333 14.013 15.2631 14.1381 15.1381C14.2631 15.013 14.3333 14.8435 14.3333 14.6667V10C14.3333 9.82319 14.2631 9.65362 14.1381 9.52859C14.013 9.40357 13.8435 9.33333 13.6667 9.33333ZM13 14H9.66667V10.6667H13V14ZM6.33333 2H1.66667C1.48986 2 1.32029 2.07024 1.19526 2.19526C1.07024 2.32029 1 2.48986 1 2.66667V7.33333C1 7.51014 1.07024 7.67971 1.19526 7.80474C1.32029 7.92976 1.48986 8 1.66667 8H6.33333C6.51014 8 6.67971 7.92976 6.80474 7.80474C6.92976 7.67971 7 7.51014 7 7.33333V2.66667C7 2.48986 6.92976 2.32029 6.80474 2.19526C6.67971 2.07024 6.51014 2 6.33333 2ZM5.66667 6.66667H2.33333V3.33333H5.66667V6.66667Z" fill="#A4A8AB"/>
</svg>
