<svg width="16" height="16" viewBox="0 0 16 16" fill="none" xmlns="http://www.w3.org/2000/svg">
<path d="M9.9999 1.33334C8.90858 1.33422 7.85208 1.71755 7.0141 2.41668C6.17612 3.1158 5.60967 4.0865 5.41323 5.16C4.83885 5.46988 4.34902 5.9156 3.98646 6.45827C3.62391 7.00094 3.39964 7.62408 3.33323 8.27334C2.83706 8.49159 2.4016 8.82755 2.0646 9.2521C1.72759 9.67665 1.4992 10.177 1.39923 10.7097C1.29925 11.2425 1.33071 11.7916 1.49087 12.3094C1.65103 12.8273 1.93506 13.2983 2.31835 13.6815C2.70164 14.0648 3.17262 14.3489 3.69047 14.509C4.20832 14.6692 4.75741 14.7006 5.29016 14.6007C5.82291 14.5007 6.32325 14.2723 6.7478 13.9353C7.17235 13.5983 7.50831 13.1628 7.72657 12.6667C8.3739 12.6023 8.99578 12.3811 9.53829 12.0221C10.0808 11.6632 10.5276 11.1773 10.8399 10.6067C12.0072 10.4194 13.0599 9.79613 13.7854 8.8627C14.5108 7.92928 14.855 6.7553 14.7484 5.57792C14.6417 4.40054 14.0922 3.30751 13.2108 2.51964C12.3294 1.73178 11.1818 1.30779 9.9999 1.33334ZM6.66657 11.62C6.66657 11.6867 6.66657 11.7533 6.6199 11.8267C6.53379 12.1698 6.3582 12.484 6.11105 12.7371C5.8639 12.9902 5.55403 13.1732 5.21305 13.2675C4.87207 13.3618 4.51219 13.3639 4.17011 13.2737C3.82803 13.1835 3.51599 13.0042 3.26584 12.7541C3.01568 12.5039 2.83636 12.1919 2.74616 11.8498C2.65595 11.5077 2.6581 11.1478 2.75238 10.8069C2.84666 10.4659 3.0297 10.156 3.28282 9.90885C3.53595 9.6617 3.8501 9.48611 4.19323 9.4L4.3799 9.33334C4.69295 9.27484 5.01554 9.29351 5.31976 9.38772C5.62397 9.48194 5.90065 9.64887 6.12584 9.87406C6.35104 10.0993 6.51796 10.3759 6.61218 10.6801C6.7064 10.9844 6.72506 11.307 6.66657 11.62ZM9.9999 9.17334C9.9911 9.21613 9.97997 9.25842 9.96657 9.3C9.93794 9.42269 9.90005 9.54304 9.85323 9.66C9.69974 10.0492 9.45684 10.3968 9.14414 10.6748C8.83145 10.9527 8.45774 11.1532 8.05323 11.26C8.05323 11.14 8.05323 11.0267 8.01323 10.9067C7.97323 10.7867 8.01323 10.7267 8.01323 10.64C8.01323 10.5533 7.93323 10.3867 7.89323 10.26C7.85323 10.1333 7.84657 10.1 7.81323 10.02C7.75576 9.89298 7.68891 9.77042 7.61323 9.65334C7.61323 9.59334 7.55323 9.52667 7.51323 9.46667C7.39465 9.29286 7.26079 9.12999 7.11323 8.98L6.9799 8.86667C6.86815 8.76392 6.75014 8.66818 6.62656 8.58C6.55393 8.53275 6.47821 8.49043 6.3999 8.45334C6.2932 8.38551 6.1818 8.32536 6.06657 8.27334C5.98046 8.2365 5.89121 8.20749 5.7999 8.18667C5.68766 8.14112 5.57166 8.10543 5.45323 8.08C5.3599 8.08 5.2599 8.08 5.1599 8.04L4.75323 8C4.85936 7.59618 5.05882 7.22292 5.33557 6.91028C5.61231 6.59764 5.95861 6.35435 6.34657 6.2C6.46091 6.15225 6.57911 6.11434 6.6999 6.08667L6.83323 6.05334C6.99768 6.01875 7.16519 6.00089 7.33323 6C8.04048 6 8.71875 6.28095 9.21885 6.78105C9.71895 7.28115 9.9999 7.95943 9.9999 8.66667C9.99901 8.83691 9.98115 9.00664 9.94657 9.17334H9.9999ZM11.3332 9.06667C11.3332 8.93334 11.3332 8.8 11.3332 8.66667C11.3332 7.6058 10.9118 6.58839 10.1617 5.83824C9.41151 5.0881 8.3941 4.66667 7.33323 4.66667C7.1999 4.66667 7.06657 4.66667 6.93323 4.66667C7.15298 4.17237 7.48972 3.73898 7.9144 3.4039C8.33907 3.06883 8.83891 2.84214 9.37077 2.74342C9.90263 2.64469 10.4505 2.67689 10.9672 2.83723C11.4838 2.99757 11.9537 3.28123 12.3362 3.66374C12.7187 4.04625 13.0023 4.5161 13.1627 5.03273C13.323 5.54937 13.3552 6.09727 13.2565 6.62913C13.1578 7.16099 12.9311 7.66083 12.596 8.0855C12.2609 8.51018 11.8275 8.84692 11.3332 9.06667Z" fill="#444C55"/>
</svg>
