<svg width="20" height="20" viewBox="0 0 20 20" fill="none" xmlns="http://www.w3.org/2000/svg">
<path d="M17.9082 3.94176L14.1665 1.80842C14.0398 1.73528 13.8961 1.69678 13.7498 1.69678C13.6036 1.69678 13.4599 1.73528 13.3332 1.80842L9.99984 3.70842L6.6665 1.80842C6.53982 1.73528 6.39612 1.69678 6.24984 1.69678C6.10356 1.69678 5.95985 1.73528 5.83317 1.80842L2.0915 3.94176C1.96278 4.01411 1.8556 4.11937 1.78092 4.24676C1.70624 4.37415 1.66676 4.51909 1.6665 4.66676V8.93342C1.66676 9.08109 1.70624 9.22603 1.78092 9.35342C1.8556 9.48081 1.96278 9.58607 2.0915 9.65842L5.42484 11.5501V15.3334C5.42509 15.4811 5.46458 15.626 5.53925 15.7534C5.61393 15.8808 5.72112 15.9861 5.84984 16.0584L9.59984 18.1918C9.72652 18.2649 9.87022 18.3034 10.0165 18.3034C10.1628 18.3034 10.3065 18.2649 10.4332 18.1918L14.1665 16.0584C14.2952 15.9861 14.4024 15.8808 14.4771 15.7534C14.5518 15.626 14.5913 15.4811 14.5915 15.3334V11.5501L17.9248 9.65842C18.0536 9.58607 18.1607 9.48081 18.2354 9.35342C18.3101 9.22603 18.3496 9.08109 18.3498 8.93342V4.66676C18.3479 4.51742 18.3059 4.37134 18.2282 4.2438C18.1505 4.11626 18.04 4.01194 17.9082 3.94176ZM3.33317 8.45009V5.11676L6.24984 3.45009L9.1665 5.11676V8.45009L6.24984 10.1168L3.33317 8.45009ZM12.9165 14.8501L9.99984 16.5168L7.08317 14.8501V11.5168L9.99984 9.85009L12.9165 11.5168V14.8501ZM16.6665 8.45009L13.7498 10.1168L10.8332 8.45009V5.11676L13.7498 3.45009L16.6665 5.11676V8.45009Z" fill="#444C55"/>
</svg>
