<svg width="20" height="20" viewBox="0 0 20 20" fill="none" xmlns="http://www.w3.org/2000/svg">
<path d="M5.83333 13.3334C6.16485 13.3334 6.4828 13.2017 6.71722 12.9673C6.95164 12.7329 7.08333 12.4149 7.08333 12.0834C7.0874 12.0418 7.0874 12 7.08333 11.9584L9.40833 9.63341H9.6H9.79167L11.1333 10.9751C11.1333 10.9751 11.1333 11.0167 11.1333 11.0417C11.1333 11.3733 11.265 11.6912 11.4994 11.9256C11.7339 12.1601 12.0518 12.2917 12.3833 12.2917C12.7149 12.2917 13.0328 12.1601 13.2672 11.9256C13.5016 11.6912 13.6333 11.3733 13.6333 11.0417V10.9751L16.6667 7.91675C16.9139 7.91675 17.1556 7.84344 17.3611 7.70609C17.5667 7.56873 17.7269 7.37351 17.8215 7.1451C17.9161 6.91669 17.9409 6.66536 17.8926 6.42288C17.8444 6.18041 17.7254 5.95768 17.5505 5.78286C17.3757 5.60805 17.153 5.489 16.9105 5.44077C16.6681 5.39253 16.4167 5.41729 16.1883 5.5119C15.9599 5.60651 15.7647 5.76672 15.6273 5.97229C15.49 6.17785 15.4167 6.41952 15.4167 6.66675C15.4126 6.70832 15.4126 6.75018 15.4167 6.79175L12.4083 9.80008H12.275L10.8333 8.33341C10.8333 8.00189 10.7016 7.68395 10.4672 7.44953C10.2328 7.21511 9.91485 7.08341 9.58333 7.08341C9.25181 7.08341 8.93387 7.21511 8.69945 7.44953C8.46503 7.68395 8.33333 8.00189 8.33333 8.33341L5.83333 10.8334C5.50181 10.8334 5.18387 10.9651 4.94945 11.1995C4.71503 11.434 4.58333 11.7519 4.58333 12.0834C4.58333 12.4149 4.71503 12.7329 4.94945 12.9673C5.18387 13.2017 5.50181 13.3334 5.83333 13.3334ZM17.0833 16.6667H2.91667V2.50008C2.91667 2.27907 2.82887 2.06711 2.67259 1.91083C2.51631 1.75455 2.30435 1.66675 2.08333 1.66675C1.86232 1.66675 1.65036 1.75455 1.49408 1.91083C1.3378 2.06711 1.25 2.27907 1.25 2.50008V17.5001C1.25 17.7211 1.3378 17.9331 1.49408 18.0893C1.65036 18.2456 1.86232 18.3334 2.08333 18.3334H17.0833C17.3043 18.3334 17.5163 18.2456 17.6726 18.0893C17.8289 17.9331 17.9167 17.7211 17.9167 17.5001C17.9167 17.2791 17.8289 17.0671 17.6726 16.9108C17.5163 16.7545 17.3043 16.6667 17.0833 16.6667Z" fill="#444C55"/>
</svg>
