<svg width="20" height="20" viewBox="0 0 20 20" fill="none" xmlns="http://www.w3.org/2000/svg">
<path d="M12.15 9.41675C12.5287 8.94337 12.7371 8.35631 12.7417 7.75008C12.7417 7.02295 12.4528 6.32559 11.9387 5.81143C11.4245 5.29727 10.7271 5.00841 10 5.00841C9.27286 5.00841 8.57551 5.29727 8.06135 5.81143C7.54719 6.32559 7.25833 7.02295 7.25833 7.75008C7.26285 8.35631 7.47126 8.94337 7.85 9.41675C7.10719 9.86879 6.52441 10.5419 6.18333 11.3417C6.13559 11.4432 6.10883 11.5533 6.10465 11.6654C6.10047 11.7775 6.11895 11.8892 6.15899 11.994C6.19903 12.0987 6.25981 12.1943 6.33767 12.2751C6.41554 12.3558 6.5089 12.4199 6.61216 12.4637C6.71542 12.5075 6.82645 12.53 6.9386 12.5298C7.05075 12.5296 7.16172 12.5068 7.26485 12.4628C7.36798 12.4187 7.46115 12.3543 7.53879 12.2733C7.61643 12.1924 7.67693 12.0966 7.71667 11.9917C7.9082 11.544 8.22631 11.162 8.63194 10.8926C9.03756 10.6231 9.51305 10.478 10 10.4751C10.4884 10.4764 10.9657 10.6208 11.3729 10.8903C11.7802 11.1598 12.0996 11.5427 12.2917 11.9917C12.3555 12.1424 12.4622 12.2709 12.5985 12.3613C12.7348 12.4517 12.8948 12.4999 13.0583 12.5001C13.1698 12.498 13.28 12.4754 13.3833 12.4334C13.5866 12.3471 13.7472 12.1836 13.83 11.979C13.9128 11.7743 13.911 11.5451 13.825 11.3417C13.4817 10.5407 12.8959 9.86745 12.15 9.41675ZM10 8.80841C9.78703 8.80841 9.57886 8.74515 9.4019 8.62665C9.22495 8.50815 9.08717 8.33977 9.00606 8.14285C8.92494 7.94594 8.90415 7.72936 8.94631 7.52061C8.98846 7.31185 9.09168 7.12033 9.24286 6.97032C9.39403 6.82032 9.58636 6.7186 9.79543 6.67806C10.0045 6.63753 10.2209 6.66001 10.4172 6.74266C10.6135 6.8253 10.7808 6.96438 10.8979 7.14226C11.015 7.32013 11.0767 7.52879 11.075 7.74175C11.0728 8.02541 10.9586 8.2967 10.7572 8.49651C10.5558 8.69631 10.2837 8.80842 10 8.80841ZM15 1.66675H5C4.33696 1.66675 3.70107 1.93014 3.23223 2.39898C2.76339 2.86782 2.5 3.50371 2.5 4.16675V13.3334C2.5 13.9965 2.76339 14.6323 3.23223 15.1012C3.70107 15.57 4.33696 15.8334 5 15.8334H7.15833L9.40833 18.0917C9.4862 18.169 9.57855 18.2301 9.68008 18.2716C9.78161 18.313 9.89033 18.334 10 18.3334C10.1986 18.3334 10.3907 18.2625 10.5417 18.1334L13.225 15.8334H15C15.663 15.8334 16.2989 15.57 16.7678 15.1012C17.2366 14.6323 17.5 13.9965 17.5 13.3334V4.16675C17.5 3.50371 17.2366 2.86782 16.7678 2.39898C16.2989 1.93014 15.663 1.66675 15 1.66675ZM15.8333 13.3334C15.8333 13.5544 15.7455 13.7664 15.5893 13.9227C15.433 14.079 15.221 14.1667 15 14.1667H12.9167C12.718 14.1667 12.526 14.2377 12.375 14.3667L10.0417 16.3667L8.09167 14.4084C8.0138 14.3312 7.92145 14.2701 7.81992 14.2286C7.71839 14.1871 7.60967 14.1661 7.5 14.1667H5C4.77899 14.1667 4.56702 14.079 4.41074 13.9227C4.25446 13.7664 4.16667 13.5544 4.16667 13.3334V4.16675C4.16667 3.94573 4.25446 3.73377 4.41074 3.57749C4.56702 3.42121 4.77899 3.33341 5 3.33341H15C15.221 3.33341 15.433 3.42121 15.5893 3.57749C15.7455 3.73377 15.8333 3.94573 15.8333 4.16675V13.3334Z" fill="#444C55"/>
</svg>
