<svg width="20" height="20" viewBox="0 0 20 20" fill="none" xmlns="http://www.w3.org/2000/svg">
<path d="M10.8335 11.6667H7.50016C7.27915 11.6667 7.06719 11.7545 6.91091 11.9108C6.75463 12.0671 6.66683 12.2791 6.66683 12.5001C6.66683 12.7211 6.75463 12.9331 6.91091 13.0893C7.06719 13.2456 7.27915 13.3334 7.50016 13.3334H10.8335C11.0545 13.3334 11.2665 13.2456 11.4228 13.0893C11.579 12.9331 11.6668 12.7211 11.6668 12.5001C11.6668 12.2791 11.579 12.0671 11.4228 11.9108C11.2665 11.7545 11.0545 11.6667 10.8335 11.6667ZM14.1668 3.33341H13.1835C13.0116 2.84712 12.6934 2.42591 12.2727 2.12753C11.852 1.82915 11.3493 1.6682 10.8335 1.66675H9.16683C8.65104 1.6682 8.14833 1.82915 7.72761 2.12753C7.30689 2.42591 6.98876 2.84712 6.81683 3.33341H5.8335C5.17045 3.33341 4.53457 3.59681 4.06573 4.06565C3.59689 4.53449 3.3335 5.17037 3.3335 5.83341V15.8334C3.3335 16.4965 3.59689 17.1323 4.06573 17.6012C4.53457 18.07 5.17045 18.3334 5.8335 18.3334H14.1668C14.8299 18.3334 15.4658 18.07 15.9346 17.6012C16.4034 17.1323 16.6668 16.4965 16.6668 15.8334V5.83341C16.6668 5.17037 16.4034 4.53449 15.9346 4.06565C15.4658 3.59681 14.8299 3.33341 14.1668 3.33341ZM8.3335 4.16675C8.3335 3.94573 8.42129 3.73377 8.57757 3.57749C8.73385 3.42121 8.94582 3.33341 9.16683 3.33341H10.8335C11.0545 3.33341 11.2665 3.42121 11.4228 3.57749C11.579 3.73377 11.6668 3.94573 11.6668 4.16675V5.00008H8.3335V4.16675ZM15.0002 15.8334C15.0002 16.0544 14.9124 16.2664 14.7561 16.4227C14.5998 16.579 14.3878 16.6667 14.1668 16.6667H5.8335C5.61248 16.6667 5.40052 16.579 5.24424 16.4227C5.08796 16.2664 5.00016 16.0544 5.00016 15.8334V5.83341C5.00016 5.6124 5.08796 5.40044 5.24424 5.24416C5.40052 5.08788 5.61248 5.00008 5.8335 5.00008H6.66683V5.83341C6.66683 6.05443 6.75463 6.26639 6.91091 6.42267C7.06719 6.57895 7.27915 6.66675 7.50016 6.66675H12.5002C12.7212 6.66675 12.9331 6.57895 13.0894 6.42267C13.2457 6.26639 13.3335 6.05443 13.3335 5.83341V5.00008H14.1668C14.3878 5.00008 14.5998 5.08788 14.7561 5.24416C14.9124 5.40044 15.0002 5.6124 15.0002 5.83341V15.8334ZM12.5002 8.33341H7.50016C7.27915 8.33341 7.06719 8.42121 6.91091 8.57749C6.75463 8.73377 6.66683 8.94573 6.66683 9.16675C6.66683 9.38776 6.75463 9.59972 6.91091 9.756C7.06719 9.91228 7.27915 10.0001 7.50016 10.0001H12.5002C12.7212 10.0001 12.9331 9.91228 13.0894 9.756C13.2457 9.59972 13.3335 9.38776 13.3335 9.16675C13.3335 8.94573 13.2457 8.73377 13.0894 8.57749C12.9331 8.42121 12.7212 8.33341 12.5002 8.33341Z" fill="#444C55"/>
</svg>
