<svg width="20" height="20" viewBox="0 0 20 20" fill="none" xmlns="http://www.w3.org/2000/svg">
<path d="M9.99984 1.66675C8.35166 1.66675 6.7405 2.15549 5.37009 3.07117C3.99968 3.98685 2.93158 5.28834 2.30084 6.81105C1.67011 8.33377 1.50509 10.0093 1.82663 11.6258C2.14817 13.2423 2.94185 14.7272 4.10728 15.8926C5.27272 17.0581 6.75758 17.8517 8.37409 18.1733C9.9906 18.4948 11.6662 18.3298 13.1889 17.6991C14.7116 17.0683 16.0131 16.0002 16.9288 14.6298C17.8444 13.2594 18.3332 11.6483 18.3332 10.0001C18.3307 7.7907 17.452 5.67251 15.8897 4.11024C14.3274 2.54797 12.2092 1.66921 9.99984 1.66675ZM9.99984 16.6667C8.6813 16.6667 7.39237 16.2758 6.29604 15.5432C5.19971 14.8107 4.34523 13.7695 3.84064 12.5513C3.33606 11.3331 3.20404 9.99269 3.46127 8.69948C3.71851 7.40627 4.35345 6.21839 5.2858 5.28604C6.21815 4.35369 7.40603 3.71875 8.69924 3.46151C9.99245 3.20428 11.3329 3.3363 12.5511 3.84088C13.7692 4.34547 14.8104 5.19995 15.543 6.29628C16.2755 7.39261 16.6665 8.68154 16.6665 10.0001C16.6645 11.7676 15.9615 13.4621 14.7117 14.7119C13.4618 15.9617 11.7673 16.6647 9.99984 16.6667ZM11.7483 8.02824L10.8332 8.55681V5.83342C10.8332 5.6124 10.7454 5.40044 10.5891 5.24416C10.4328 5.08788 10.2209 5.00008 9.99984 5.00008C9.77883 5.00008 9.56687 5.08788 9.41059 5.24416C9.25431 5.40044 9.16651 5.6124 9.16651 5.83342V10.0001C9.16654 10.1464 9.20507 10.29 9.27821 10.4167C9.35136 10.5434 9.45655 10.6486 9.58321 10.7217C9.70988 10.7949 9.85356 10.8334 9.99983 10.8334C10.1461 10.8335 10.2898 10.795 10.4165 10.7219L12.5816 9.47192C12.6765 9.41724 12.7596 9.3444 12.8263 9.25757C12.893 9.17073 12.9419 9.07161 12.9703 8.96587C12.9987 8.86012 13.006 8.74982 12.9917 8.64126C12.9774 8.53271 12.9419 8.42803 12.8872 8.3332C12.8324 8.23838 12.7596 8.15527 12.6727 8.08862C12.5858 8.02197 12.4867 7.97309 12.3809 7.94477C12.2752 7.91645 12.1648 7.90924 12.0563 7.92356C11.9477 7.93789 11.8431 7.97346 11.7483 8.02824Z" fill="#444C55"/>
</svg>
