<svg width="17" height="17" viewBox="0 0 17 17" fill="none" xmlns="http://www.w3.org/2000/svg">
<path d="M2.32692 5.92308C1.8667 5.92308 1.41682 6.05955 1.03415 6.31524C0.651494 6.57092 0.353247 6.93434 0.177127 7.35952C0.00100823 7.78471 -0.0450726 8.25258 0.0447122 8.70396C0.134497 9.15534 0.356115 9.56996 0.681541 9.89538C1.00697 10.2208 1.42158 10.4424 1.87296 10.5322C2.32434 10.622 2.79221 10.5759 3.2174 10.3998C3.64259 10.2237 4.006 9.92543 4.26169 9.54277C4.51737 9.16011 4.65385 8.71022 4.65385 8.25C4.65385 7.63286 4.40869 7.041 3.97231 6.60462C3.53592 6.16823 2.94406 5.92308 2.32692 5.92308ZM2.32692 9.30769C2.11773 9.30769 1.91324 9.24566 1.7393 9.12944C1.56536 9.01322 1.4298 8.84803 1.34974 8.65476C1.26969 8.46149 1.24874 8.24883 1.28955 8.04365C1.33037 7.83848 1.4311 7.65002 1.57902 7.5021C1.72694 7.35418 1.91541 7.25344 2.12058 7.21263C2.32575 7.17182 2.53842 7.19277 2.73169 7.27282C2.92495 7.35287 3.09014 7.48844 3.20636 7.66238C3.32258 7.83631 3.38462 8.04081 3.38462 8.25C3.38462 8.53052 3.27318 8.79955 3.07483 8.9979C2.87647 9.19626 2.60744 9.30769 2.32692 9.30769ZM8.25 5.92308C7.78978 5.92308 7.33989 6.05955 6.95723 6.31524C6.57457 6.57092 6.27632 6.93434 6.1002 7.35952C5.92408 7.78471 5.878 8.25258 5.96779 8.70396C6.05757 9.15534 6.27919 9.56996 6.60462 9.89538C6.93004 10.2208 7.34466 10.4424 7.79604 10.5322C8.24742 10.622 8.71529 10.5759 9.14047 10.3998C9.56566 10.2237 9.92908 9.92543 10.1848 9.54277C10.4405 9.16011 10.5769 8.71022 10.5769 8.25C10.5769 7.63286 10.3318 7.041 9.89538 6.60462C9.459 6.16823 8.86714 5.92308 8.25 5.92308ZM8.25 9.30769C8.04081 9.30769 7.83631 9.24566 7.66238 9.12944C7.48844 9.01322 7.35287 8.84803 7.27282 8.65476C7.19277 8.46149 7.17182 8.24883 7.21263 8.04365C7.25344 7.83848 7.35418 7.65002 7.5021 7.5021C7.65002 7.35418 7.83848 7.25344 8.04365 7.21263C8.24883 7.17182 8.46149 7.19277 8.65476 7.27282C8.84803 7.35287 9.01322 7.48844 9.12944 7.66238C9.24566 7.83631 9.30769 8.04081 9.30769 8.25C9.30769 8.53052 9.19626 8.79955 8.9979 8.9979C8.79955 9.19626 8.53052 9.30769 8.25 9.30769ZM14.1731 4.65385C14.6333 4.65385 15.0832 4.51737 15.4658 4.26169C15.8485 4.006 16.1468 3.64259 16.3229 3.2174C16.499 2.79221 16.5451 2.32434 16.4553 1.87296C16.3655 1.42158 16.1439 1.00697 15.8185 0.681541C15.493 0.356115 15.0784 0.134497 14.627 0.0447122C14.1757 -0.0450726 13.7078 0.00100823 13.2826 0.177127C12.8574 0.353247 12.494 0.651494 12.2383 1.03415C11.9826 1.41682 11.8462 1.8667 11.8462 2.32692C11.8462 2.94406 12.0913 3.53592 12.5277 3.97231C12.9641 4.40869 13.5559 4.65385 14.1731 4.65385ZM14.1731 1.26923C14.3823 1.26923 14.5868 1.33126 14.7607 1.44748C14.9346 1.56371 15.0702 1.72889 15.1503 1.92216C15.2303 2.11543 15.2513 2.3281 15.2104 2.53327C15.1696 2.73844 15.0689 2.9269 14.921 3.07483C14.7731 3.22275 14.5846 3.32348 14.3794 3.36429C14.1742 3.4051 13.9616 3.38416 13.7683 3.3041C13.575 3.22405 13.4099 3.08848 13.2936 2.91455C13.1774 2.74061 13.1154 2.53612 13.1154 2.32692C13.1154 2.04641 13.2268 1.77738 13.4252 1.57902C13.6235 1.38067 13.8926 1.26923 14.1731 1.26923ZM14.1731 5.92308C13.7129 5.92308 13.263 6.05955 12.8803 6.31524C12.4976 6.57092 12.1994 6.93434 12.0233 7.35952C11.8472 7.78471 11.8011 8.25258 11.8909 8.70396C11.9806 9.15534 12.2023 9.56996 12.5277 9.89538C12.8531 10.2208 13.2677 10.4424 13.7191 10.5322C14.1705 10.622 14.6384 10.5759 15.0636 10.3998C15.4887 10.2237 15.8522 9.92543 16.1078 9.54277C16.3635 9.16011 16.5 8.71022 16.5 8.25C16.5 7.63286 16.2548 7.041 15.8185 6.60462C15.3821 6.16823 14.7902 5.92308 14.1731 5.92308ZM14.1731 9.30769C13.9639 9.30769 13.7594 9.24566 13.5855 9.12944C13.4115 9.01322 13.2759 8.84803 13.1959 8.65476C13.1158 8.46149 13.0949 8.24883 13.1357 8.04365C13.1765 7.83848 13.2773 7.65002 13.4252 7.5021C13.5731 7.35418 13.7616 7.25344 13.9667 7.21263C14.1719 7.17182 14.3846 7.19277 14.5778 7.27282C14.7711 7.35287 14.9363 7.48844 15.0525 7.66238C15.1687 7.83631 15.2308 8.04081 15.2308 8.25C15.2308 8.53052 15.1193 8.79955 14.921 8.9979C14.7226 9.19626 14.4536 9.30769 14.1731 9.30769ZM2.32692 1.05328e-06C1.8667 1.05328e-06 1.41682 0.136473 1.03415 0.392158C0.651494 0.647844 0.353247 1.01126 0.177127 1.43645C0.00100823 1.86164 -0.0450726 2.32951 0.0447122 2.78088C0.134497 3.23226 0.356115 3.64688 0.681541 3.97231C1.00697 4.29773 1.42158 4.51935 1.87296 4.60914C2.32434 4.69892 2.79221 4.65284 3.2174 4.47672C3.64259 4.3006 4.006 4.00235 4.26169 3.61969C4.51737 3.23703 4.65385 2.78715 4.65385 2.32692C4.65385 1.70979 4.40869 1.11792 3.97231 0.681541C3.53592 0.245158 2.94406 1.05328e-06 2.32692 1.05328e-06ZM2.32692 3.38462C2.11773 3.38462 1.91324 3.32258 1.7393 3.20636C1.56536 3.09014 1.4298 2.92495 1.34974 2.73169C1.26969 2.53842 1.24874 2.32575 1.28955 2.12058C1.33037 1.91541 1.4311 1.72694 1.57902 1.57902C1.72694 1.4311 1.91541 1.33037 2.12058 1.28955C2.32575 1.24874 2.53842 1.26969 2.73169 1.34974C2.92495 1.4298 3.09014 1.56536 3.20636 1.7393C3.32258 1.91324 3.38462 2.11773 3.38462 2.32692C3.38462 2.60744 3.27318 2.87647 3.07483 3.07483C2.87647 3.27318 2.60744 3.38462 2.32692 3.38462ZM8.25 11.8462C7.78978 11.8462 7.33989 11.9826 6.95723 12.2383C6.57457 12.494 6.27632 12.8574 6.1002 13.2826C5.92408 13.7078 5.878 14.1757 5.96779 14.627C6.05757 15.0784 6.27919 15.493 6.60462 15.8185C6.93004 16.1439 7.34466 16.3655 7.79604 16.4553C8.24742 16.5451 8.71529 16.499 9.14047 16.3229C9.56566 16.1468 9.92908 15.8485 10.1848 15.4658C10.4405 15.0832 10.5769 14.6333 10.5769 14.1731C10.5769 13.5559 10.3318 12.9641 9.89538 12.5277C9.459 12.0913 8.86714 11.8462 8.25 11.8462ZM8.25 15.2308C8.04081 15.2308 7.83631 15.1687 7.66238 15.0525C7.48844 14.9363 7.35287 14.7711 7.27282 14.5778C7.19277 14.3846 7.17182 14.1719 7.21263 13.9667C7.25344 13.7616 7.35418 13.5731 7.5021 13.4252C7.65002 13.2773 7.83848 13.1765 8.04365 13.1357C8.24883 13.0949 8.46149 13.1158 8.65476 13.1959C8.84803 13.2759 9.01322 13.4115 9.12944 13.5855C9.24566 13.7594 9.30769 13.9639 9.30769 14.1731C9.30769 14.4536 9.19626 14.7226 8.9979 14.921C8.79955 15.1193 8.53052 15.2308 8.25 15.2308ZM8.25 1.05328e-06C7.78978 1.05328e-06 7.33989 0.136473 6.95723 0.392158C6.57457 0.647844 6.27632 1.01126 6.1002 1.43645C5.92408 1.86164 5.878 2.32951 5.96779 2.78088C6.05757 3.23226 6.27919 3.64688 6.60462 3.97231C6.93004 4.29773 7.34466 4.51935 7.79604 4.60914C8.24742 4.69892 8.71529 4.65284 9.14047 4.47672C9.56566 4.3006 9.92908 4.00235 10.1848 3.61969C10.4405 3.23703 10.5769 2.78715 10.5769 2.32692C10.5769 1.70979 10.3318 1.11792 9.89538 0.681541C9.459 0.245158 8.86714 1.05328e-06 8.25 1.05328e-06ZM8.25 3.38462C8.04081 3.38462 7.83631 3.32258 7.66238 3.20636C7.48844 3.09014 7.35287 2.92495 7.27282 2.73169C7.19277 2.53842 7.17182 2.32575 7.21263 2.12058C7.25344 1.91541 7.35418 1.72694 7.5021 1.57902C7.65002 1.4311 7.83848 1.33037 8.04365 1.28955C8.24883 1.24874 8.46149 1.26969 8.65476 1.34974C8.84803 1.4298 9.01322 1.56536 9.12944 1.7393C9.24566 1.91324 9.30769 2.11773 9.30769 2.32692C9.30769 2.60744 9.19626 2.87647 8.9979 3.07483C8.79955 3.27318 8.53052 3.38462 8.25 3.38462Z" fill="#A4A8AB"/>
</svg>
