<svg width="14" height="16" viewBox="0 0 14 16" fill="none" xmlns="http://www.w3.org/2000/svg">
<path d="M12.8444 3.2H9.82222V2.4C9.82222 1.76348 9.58341 1.15303 9.15833 0.702944C8.73325 0.252856 8.15671 0 7.55556 0H6.04444C5.44329 0 4.86675 0.252856 4.44167 0.702944C4.01659 1.15303 3.77778 1.76348 3.77778 2.4V3.2H0.755556C0.55517 3.2 0.362991 3.28429 0.221297 3.43431C0.0796029 3.58434 0 3.78783 0 4C0 4.21217 0.0796029 4.41566 0.221297 4.56569C0.362991 4.71571 0.55517 4.8 0.755556 4.8H1.51111V13.6C1.51111 14.2365 1.74992 14.847 2.175 15.2971C2.60009 15.7471 3.17662 16 3.77778 16H9.82222C10.4234 16 10.9999 15.7471 11.425 15.2971C11.8501 14.847 12.0889 14.2365 12.0889 13.6V4.8H12.8444C13.0448 4.8 13.237 4.71571 13.3787 4.56569C13.5204 4.41566 13.6 4.21217 13.6 4C13.6 3.78783 13.5204 3.58434 13.3787 3.43431C13.237 3.28429 13.0448 3.2 12.8444 3.2ZM5.28889 2.4C5.28889 2.18783 5.36849 1.98434 5.51019 1.83431C5.65188 1.68429 5.84406 1.6 6.04444 1.6H7.55556C7.75594 1.6 7.94812 1.68429 8.08981 1.83431C8.23151 1.98434 8.31111 2.18783 8.31111 2.4V3.2H5.28889V2.4ZM10.5778 13.6C10.5778 13.8122 10.4982 14.0157 10.3565 14.1657C10.2148 14.3157 10.0226 14.4 9.82222 14.4H3.77778C3.57739 14.4 3.38521 14.3157 3.24352 14.1657C3.10182 14.0157 3.02222 13.8122 3.02222 13.6V4.8H10.5778V13.6Z" fill="#A4A8AB"/>
</svg>
