<svg width="37" height="37" viewBox="0 0 37 37" fill="none" xmlns="http://www.w3.org/2000/svg">
<path d="M26.2087 14.1371C25.9198 13.8499 25.5291 13.6888 25.1218 13.6888C24.7145 13.6888 24.3238 13.8499 24.0349 14.1371L18.5004 19.5946L13.0429 14.1371C12.754 13.8499 12.3633 13.6888 11.956 13.6888C11.5487 13.6888 11.158 13.8499 10.8691 14.1371C10.7246 14.2804 10.6099 14.4509 10.5317 14.6388C10.4534 14.8266 10.4131 15.0281 10.4131 15.2317C10.4131 15.4352 10.4534 15.6367 10.5317 15.8245C10.6099 16.0124 10.7246 16.1829 10.8691 16.3262L17.4058 22.8629C17.5491 23.0074 17.7196 23.1221 17.9075 23.2004C18.0953 23.2786 18.2968 23.3189 18.5004 23.3189C18.7039 23.3189 18.9054 23.2786 19.0932 23.2004C19.2811 23.1221 19.4516 23.0074 19.5949 22.8629L26.2087 16.3262C26.3532 16.1829 26.4679 16.0124 26.5461 15.8245C26.6244 15.6367 26.6647 15.4352 26.6647 15.2317C26.6647 15.0281 26.6244 14.8266 26.5461 14.6388C26.4679 14.4509 26.3532 14.2804 26.2087 14.1371Z" fill="#A4A8AB"/>
</svg>
