<svg width="14" height="16" viewBox="0 0 14 16" fill="none" xmlns="http://www.w3.org/2000/svg">
<path d="M8.81284 1.18867V4.08005C8.81284 4.47209 8.81285 4.6681 8.89138 4.81784C8.96047 4.94956 9.07071 5.05664 9.20629 5.12375C9.36043 5.20005 9.56222 5.20005 9.96579 5.20005H12.9422M5.2099 10.1L7.37167 12.2M7.37167 12.2L9.53343 10.1M7.37167 12.2L7.37167 8M8.81284 1H5.06579C3.85509 1 3.24973 1 2.78731 1.22889C2.38055 1.43022 2.04984 1.75148 1.84258 2.14662C1.60696 2.59583 1.60696 3.18389 1.60696 4.36V11.64C1.60696 12.8161 1.60696 13.4042 1.84258 13.8534C2.04984 14.2485 2.38055 14.5698 2.78731 14.7711C3.24973 15 3.85509 15 5.06579 15H9.67755C10.8883 15 11.4936 15 11.956 14.7711C12.3628 14.5698 12.6935 14.2485 12.9008 13.8534C13.1364 13.4042 13.1364 12.8161 13.1364 11.64V5.2L8.81284 1Z" stroke="white" stroke-width="1.3" stroke-linecap="round" stroke-linejoin="round"/>
</svg>
