<svg width="16" height="16" viewBox="0 0 16 16" fill="none" xmlns="http://www.w3.org/2000/svg">
<path d="M11.3332 6.11333C11.2083 5.98917 11.0393 5.91947 10.8632 5.91947C10.6871 5.91947 10.5181 5.98917 10.3932 6.11333L7.99988 8.47333L5.63988 6.11333C5.51498 5.98917 5.34601 5.91947 5.16988 5.91947C4.99376 5.91947 4.82479 5.98917 4.69988 6.11333C4.6374 6.17531 4.5878 6.24904 4.55396 6.33028C4.52011 6.41152 4.50269 6.49866 4.50269 6.58667C4.50269 6.67467 4.52011 6.76181 4.55396 6.84305C4.5878 6.92429 4.6374 6.99802 4.69988 7.06L7.52655 9.88667C7.58853 9.94915 7.66226 9.99875 7.7435 10.0326C7.82474 10.0664 7.91188 10.0839 7.99988 10.0839C8.08789 10.0839 8.17503 10.0664 8.25627 10.0326C8.33751 9.99875 8.41124 9.94915 8.47322 9.88667L11.3332 7.06C11.3957 6.99802 11.4453 6.92429 11.4791 6.84305C11.513 6.76181 11.5304 6.67467 11.5304 6.58667C11.5304 6.49866 11.513 6.41152 11.4791 6.33028C11.4453 6.24904 11.3957 6.17531 11.3332 6.11333Z" fill="#A4A8AB"/>
</svg>
