<svg width="12" height="12" viewBox="0 0 12 12" fill="none" xmlns="http://www.w3.org/2000/svg">
<path d="M3.5 8C3.69891 8 3.88968 7.92098 4.03033 7.78033C4.17098 7.63968 4.25 7.44891 4.25 7.25C4.25244 7.22506 4.25244 7.19994 4.25 7.175L5.645 5.78H5.76H5.875L6.68 6.585C6.68 6.585 6.68 6.61 6.68 6.625C6.68 6.82391 6.75902 7.01468 6.89967 7.15533C7.04032 7.29598 7.23109 7.375 7.43 7.375C7.62891 7.375 7.81968 7.29598 7.96033 7.15533C8.10098 7.01468 8.18 6.82391 8.18 6.625V6.585L10 4.75C10.1483 4.75 10.2933 4.70601 10.4167 4.6236C10.54 4.54119 10.6361 4.42406 10.6929 4.28701C10.7497 4.14997 10.7645 3.99917 10.7356 3.85368C10.7066 3.7082 10.6352 3.57456 10.5303 3.46967C10.4254 3.36478 10.2918 3.29335 10.1463 3.26441C10.0008 3.23547 9.85003 3.25032 9.71299 3.30709C9.57594 3.36386 9.45881 3.45999 9.3764 3.58332C9.29399 3.70666 9.25 3.85166 9.25 4C9.24756 4.02494 9.24756 4.05006 9.25 4.075L7.445 5.88H7.365L6.5 5C6.5 4.80109 6.42098 4.61032 6.28033 4.46967C6.13968 4.32902 5.94891 4.25 5.75 4.25C5.55109 4.25 5.36032 4.32902 5.21967 4.46967C5.07902 4.61032 5 4.80109 5 5L3.5 6.5C3.30109 6.5 3.11032 6.57902 2.96967 6.71967C2.82902 6.86032 2.75 7.05109 2.75 7.25C2.75 7.44891 2.82902 7.63968 2.96967 7.78033C3.11032 7.92098 3.30109 8 3.5 8ZM10.25 10H1.75V1.5C1.75 1.36739 1.69732 1.24021 1.60355 1.14645C1.50979 1.05268 1.38261 1 1.25 1C1.11739 1 0.990215 1.05268 0.896447 1.14645C0.802678 1.24021 0.75 1.36739 0.75 1.5V10.5C0.75 10.6326 0.802678 10.7598 0.896447 10.8536C0.990215 10.9473 1.11739 11 1.25 11H10.25C10.3826 11 10.5098 10.9473 10.6036 10.8536C10.6973 10.7598 10.75 10.6326 10.75 10.5C10.75 10.3674 10.6973 10.2402 10.6036 10.1464C10.5098 10.0527 10.3826 10 10.25 10Z" fill="#444C55"/>
</svg>
