<svg width="20" height="20" viewBox="0 0 20 20" fill="none" xmlns="http://www.w3.org/2000/svg">
<path d="M18.3333 9.20829C18.3333 9.11663 18.3333 9.02496 18.3333 8.93329L18.2583 8.43329L18.1833 8.10829C18.1833 7.96663 18.1166 7.82496 18.0749 7.68329C18.0333 7.54163 18.0083 7.45829 17.9666 7.34996C17.9433 7.28447 17.9239 7.21769 17.9083 7.14996C17.9083 7.14996 17.9083 7.14996 17.9083 7.10829C17.4863 5.98581 16.8293 4.96646 15.9814 4.11851C15.1334 3.27056 14.1141 2.6136 12.9916 2.19163C12.9916 2.19163 12.9916 2.19163 12.9499 2.19163L12.7583 2.13329L12.4083 2.02496C12.2833 2.02496 12.1499 1.95829 12.0249 1.92496L11.6416 1.84163L11.2583 1.78329C11.1249 1.78329 10.9999 1.78329 10.8583 1.73329C10.7166 1.68329 10.5666 1.73329 10.4249 1.73329L9.99994 1.66663H9.67493C9.53327 1.66663 9.38327 1.66663 9.2416 1.66663C9.09994 1.66663 8.97493 1.66663 8.8416 1.71663L8.45827 1.77496L8.07493 1.85829C7.94993 1.85829 7.8166 1.91663 7.6916 1.95829L7.3416 2.06663L7.14993 2.12496C7.14993 2.12496 7.14993 2.12496 7.10827 2.12496C5.98579 2.54693 4.96643 3.20389 4.11848 4.05184C3.27054 4.89979 2.61357 5.91914 2.1916 7.04163C2.1916 7.04163 2.1916 7.04163 2.1916 7.08329C2.17602 7.15103 2.15654 7.2178 2.13327 7.28329C2.13327 7.39163 2.05827 7.49996 2.02494 7.61663C1.9916 7.73329 1.94993 7.89996 1.9166 8.04163L1.8416 8.36663L1.7666 8.86663C1.7666 8.95829 1.7666 9.04996 1.7666 9.14163C1.7666 9.39996 1.7666 9.66663 1.7666 9.93329C1.7666 10.2 1.7666 10.4666 1.7666 10.725C1.7666 10.8166 1.7666 10.9083 1.7666 11L1.8416 11.5L1.9166 11.825C1.9166 11.9666 1.98327 12.1083 2.02494 12.25C2.0666 12.3916 2.0916 12.475 2.13327 12.5833C2.15654 12.6488 2.17602 12.7156 2.1916 12.7833C2.19319 12.8027 2.19319 12.8222 2.1916 12.8416C2.6099 13.9629 3.26482 14.981 4.11179 15.8265C4.95876 16.672 5.97792 17.3252 7.09994 17.7416C7.09994 17.7416 7.09993 17.7416 7.1416 17.7416L7.3416 17.8L7.67493 17.9083L8.09994 18.0166L8.42493 18.0916L8.92493 18.1666H9.19993C9.45827 18.1666 9.72493 18.2083 9.9916 18.2083C10.2583 18.2083 10.5249 18.2083 10.7833 18.1666H11.0583L11.5583 18.0916L11.8833 18.0166L12.3083 17.9083L12.6416 17.8L12.8416 17.7416C12.8416 17.7416 12.8416 17.7416 12.8833 17.7416C14.0053 17.3252 15.0244 16.672 15.8714 15.8265C16.7184 14.981 17.3733 13.9629 17.7916 12.8416C17.79 12.8222 17.79 12.8027 17.7916 12.7833C17.7916 12.7166 17.8333 12.65 17.8499 12.5833C17.8666 12.5166 17.9249 12.3666 17.9583 12.25C17.9916 12.1333 18.0333 11.9666 18.0666 11.825L18.1416 11.5L18.2166 11C18.2166 10.9083 18.2166 10.8166 18.2166 10.725C18.2166 10.4666 18.2583 10.2 18.2583 9.93329C18.2583 9.66663 18.3333 9.46663 18.3333 9.20829ZM13.0833 4.07496C14.3219 4.71134 15.3302 5.71963 15.9666 6.95829L13.5833 7.79163C13.2378 7.2379 12.7703 6.77044 12.2166 6.42496L13.0833 4.07496ZM8.6166 3.49163C8.7916 3.44996 8.95827 3.42496 9.12493 3.39996H9.32493C9.8014 3.34996 10.2818 3.34996 10.7583 3.39996H10.9583C11.1249 3.39996 11.2916 3.44996 11.4666 3.49163H11.5166L10.6833 5.87496C10.4572 5.84022 10.2285 5.82627 9.99994 5.83329C9.79612 5.83302 9.59264 5.84975 9.3916 5.88329L8.55827 3.49996L8.6166 3.49163ZM6.99993 4.07496L7.83327 6.45829C7.27651 6.80278 6.80613 7.27031 6.45827 7.82496L4.07493 6.99163C4.70569 5.74058 5.71455 4.72005 6.95827 4.07496H6.99993ZM3.4916 11.425C3.45169 11.2605 3.42384 11.0934 3.40827 10.925C3.40827 10.85 3.40827 10.7833 3.40827 10.7166C3.35271 10.2405 3.35271 9.75946 3.40827 9.28329C3.40827 9.21663 3.40827 9.14996 3.40827 9.07496C3.42384 8.90649 3.45169 8.73938 3.4916 8.57496C3.4916 8.57496 3.4916 8.57496 3.4916 8.52496L5.87494 9.35829C5.80826 9.76111 5.80826 10.1721 5.87494 10.575L3.4916 11.4083C3.4916 11.4083 3.4916 11.4416 3.4916 11.425ZM6.95827 15.925C5.7196 15.2886 4.71131 14.2803 4.07493 13.0416L6.45827 12.2083C6.80375 12.762 7.27121 13.2295 7.82493 13.575L6.95827 15.925ZM11.4249 16.5083C11.2499 16.55 11.0833 16.575 10.9166 16.6H10.7166C10.2401 16.65 9.75974 16.65 9.28327 16.6H9.08327C8.9166 16.6 8.74993 16.55 8.57493 16.5083H8.52493L9.35827 14.125C9.76108 14.1916 10.1721 14.1916 10.5749 14.125L11.4083 16.5083H11.4249ZM10.8666 12.3416C10.7249 12.3916 10.5833 12.425 10.4499 12.4583C10.1745 12.5096 9.89201 12.5096 9.6166 12.4583C9.48327 12.4583 9.3416 12.3916 9.19993 12.3416C8.84821 12.2202 8.52804 12.0217 8.26277 11.7608C7.9975 11.4998 7.79382 11.183 7.6666 10.8333C7.61616 10.6951 7.57714 10.5529 7.54994 10.4083C7.49664 10.1331 7.49664 9.85018 7.54994 9.57496C7.57529 9.43622 7.61151 9.29969 7.65827 9.16663C7.7839 8.82107 7.98422 8.50747 8.24494 8.2482C8.50565 7.98892 8.82035 7.79035 9.1666 7.66663C9.30827 7.61663 9.44993 7.58329 9.58327 7.54996C9.85868 7.49865 10.1412 7.49865 10.4166 7.54996C10.5499 7.54996 10.6916 7.61663 10.8333 7.66663C11.178 7.79138 11.491 7.99042 11.7503 8.24964C12.0095 8.50886 12.2085 8.82192 12.3333 9.16663C12.3837 9.30487 12.4227 9.44701 12.4499 9.59163C12.5032 9.86685 12.5032 10.1497 12.4499 10.425C12.4227 10.5696 12.3837 10.7117 12.3333 10.85C12.2065 11.1916 12.0065 11.5014 11.7474 11.7576C11.4883 12.0138 11.1763 12.2103 10.8333 12.3333L10.8666 12.3416ZM13.0416 15.9333L12.2083 13.55C12.762 13.2045 13.2295 12.737 13.5749 12.1833L15.9583 13.0166C15.3174 14.2696 14.2964 15.2877 13.0416 15.925V15.9333ZM16.6666 10.7166C16.6666 10.7833 16.6666 10.85 16.6666 10.925C16.651 11.0934 16.6232 11.2605 16.5833 11.425C16.5833 11.425 16.5833 11.425 16.5833 11.475L14.1999 10.6416C14.2666 10.2388 14.2666 9.82778 14.1999 9.42496L16.5833 8.59163C16.5833 8.59163 16.5833 8.59163 16.5833 8.64163C16.6232 8.80604 16.651 8.97315 16.6666 9.14163C16.6666 9.21663 16.6666 9.28329 16.6666 9.34996C16.7222 9.82612 16.7222 10.3071 16.6666 10.7833V10.7166Z" fill="#444C55"/>
</svg>
