<svg width="48" height="52" viewBox="0 0 48 52" fill="none" xmlns="http://www.w3.org/2000/svg">
<g filter="url(#filter0_d_147_1674)">
<path d="M37.318 4.41675H9.90131C8.34368 4.41845 6.85034 5.03797 5.74893 6.13937C4.64752 7.24078 4.02801 8.73412 4.02631 10.2917V37.7084C4.02801 39.266 4.64752 40.7594 5.74893 41.8608C6.85034 42.9622 8.34368 43.5817 9.90131 43.5834H37.318C38.8756 43.5817 40.3689 42.9622 41.4703 41.8608C42.5718 40.7594 43.1913 39.266 43.193 37.7084V10.2917C43.1913 8.73412 42.5718 7.24078 41.4703 6.13937C40.3689 5.03797 38.8756 4.41845 37.318 4.41675ZM9.90131 8.33341H37.318C37.8372 8.33393 38.335 8.54042 38.7022 8.90757C39.0693 9.27472 39.2758 9.77252 39.2763 10.2917V25.9584H34.4493C33.8044 25.9579 33.1694 26.1169 32.6009 26.4212C32.0323 26.7255 31.5478 27.1657 31.1905 27.7025L28.4366 31.8334H18.7827L16.0288 27.7025C15.6715 27.1657 15.187 26.7255 14.6184 26.4212C14.0499 26.1169 13.4149 25.9579 12.77 25.9584H7.94297V10.2917C7.94349 9.77252 8.14998 9.27472 8.51713 8.90757C8.88427 8.54042 9.38208 8.33393 9.90131 8.33341ZM37.318 39.6667H9.90131C9.38208 39.6662 8.88427 39.4597 8.51713 39.0926C8.14998 38.7254 7.94349 38.2276 7.94297 37.7084V29.8751H12.77L15.5239 34.006C15.8811 34.5428 16.3656 34.983 16.9342 35.2873C17.5028 35.5916 18.1378 35.7506 18.7827 35.7501H28.4366C29.0815 35.7506 29.7165 35.5916 30.2851 35.2873C30.8537 34.983 31.3382 34.5428 31.6954 34.006L34.4493 29.8751H39.2763V37.7084C39.2758 38.2276 39.0693 38.7254 38.7022 39.0926C38.335 39.4597 37.8372 39.6662 37.318 39.6667Z" fill="#444C55"/>
</g>
<defs>
<filter id="filter0_d_147_1674" x="-4" y="0.5" width="55" height="55" filterUnits="userSpaceOnUse" color-interpolation-filters="sRGB">
<feFlood flood-opacity="0" result="BackgroundImageFix"/>
<feColorMatrix in="SourceAlpha" type="matrix" values="0 0 0 0 0 0 0 0 0 0 0 0 0 0 0 0 0 0 127 0" result="hardAlpha"/>
<feOffset dy="4"/>
<feGaussianBlur stdDeviation="2"/>
<feComposite in2="hardAlpha" operator="out"/>
<feColorMatrix type="matrix" values="0 0 0 0 0 0 0 0 0 0 0 0 0 0 0 0 0 0 0.25 0"/>
<feBlend mode="normal" in2="BackgroundImageFix" result="effect1_dropShadow_147_1674"/>
<feBlend mode="normal" in="SourceGraphic" in2="effect1_dropShadow_147_1674" result="shape"/>
</filter>
</defs>
</svg>
