<svg width="20" height="20" viewBox="0 0 20 20" fill="none" xmlns="http://www.w3.org/2000/svg">
<path d="M2.91683 5C2.75201 5 2.5909 5.04887 2.45385 5.14044C2.31681 5.23201 2.21 5.36216 2.14693 5.51443C2.08386 5.6667 2.06735 5.83426 2.09951 5.99591C2.13166 6.15756 2.21103 6.30605 2.32757 6.42259C2.44412 6.53913 2.5926 6.6185 2.75425 6.65065C2.91591 6.68281 3.08346 6.66631 3.23573 6.60323C3.388 6.54016 3.51815 6.43335 3.60972 6.29631C3.70129 6.15927 3.75016 5.99815 3.75016 5.83333C3.75016 5.61232 3.66237 5.40036 3.50609 5.24408C3.34981 5.0878 3.13784 5 2.91683 5ZM6.25016 6.66667H17.9168C18.1378 6.66667 18.3498 6.57887 18.5061 6.42259C18.6624 6.26631 18.7502 6.05435 18.7502 5.83333C18.7502 5.61232 18.6624 5.40036 18.5061 5.24408C18.3498 5.0878 18.1378 5 17.9168 5H6.25016C6.02915 5 5.81719 5.0878 5.66091 5.24408C5.50463 5.40036 5.41683 5.61232 5.41683 5.83333C5.41683 6.05435 5.50463 6.26631 5.66091 6.42259C5.81719 6.57887 6.02915 6.66667 6.25016 6.66667ZM6.25016 9.16667C6.08535 9.16667 5.92423 9.21554 5.78719 9.30711C5.65015 9.39868 5.54334 9.52883 5.48026 9.6811C5.41719 9.83337 5.40069 10.0009 5.43284 10.1626C5.465 10.3242 5.54436 10.4727 5.66091 10.5893C5.77745 10.7058 5.92594 10.7852 6.08759 10.8173C6.24924 10.8495 6.41679 10.833 6.56907 10.7699C6.72134 10.7068 6.85149 10.6 6.94305 10.463C7.03462 10.3259 7.0835 10.1648 7.0835 10C7.0835 9.77899 6.9957 9.56703 6.83942 9.41074C6.68314 9.25446 6.47118 9.16667 6.25016 9.16667ZM9.5835 13.3333C9.41868 13.3333 9.25756 13.3822 9.12052 13.4738C8.98348 13.5653 8.87667 13.6955 8.8136 13.8478C8.75052 14 8.73402 14.1676 8.76618 14.3292C8.79833 14.4909 8.8777 14.6394 8.99424 14.7559C9.11079 14.8725 9.25927 14.9518 9.42092 14.984C9.58257 15.0161 9.75013 14.9996 9.9024 14.9366C10.0547 14.8735 10.1848 14.7667 10.2764 14.6296C10.368 14.4926 10.4168 14.3315 10.4168 14.1667C10.4168 13.9457 10.329 13.7337 10.1728 13.5774C10.0165 13.4211 9.80451 13.3333 9.5835 13.3333ZM17.9168 9.16667H9.5835C9.36248 9.16667 9.15052 9.25446 8.99424 9.41074C8.83796 9.56703 8.75016 9.77899 8.75016 10C8.75016 10.221 8.83796 10.433 8.99424 10.5893C9.15052 10.7455 9.36248 10.8333 9.5835 10.8333H17.9168C18.1378 10.8333 18.3498 10.7455 18.5061 10.5893C18.6624 10.433 18.7502 10.221 18.7502 10C18.7502 9.77899 18.6624 9.56703 18.5061 9.41074C18.3498 9.25446 18.1378 9.16667 17.9168 9.16667ZM17.9168 13.3333H12.9168C12.6958 13.3333 12.4839 13.4211 12.3276 13.5774C12.1713 13.7337 12.0835 13.9457 12.0835 14.1667C12.0835 14.3877 12.1713 14.5996 12.3276 14.7559C12.4839 14.9122 12.6958 15 12.9168 15H17.9168C18.1378 15 18.3498 14.9122 18.5061 14.7559C18.6624 14.5996 18.7502 14.3877 18.7502 14.1667C18.7502 13.9457 18.6624 13.7337 18.5061 13.5774C18.3498 13.4211 18.1378 13.3333 17.9168 13.3333Z" fill="#444C55"/>
</svg>
