<svg width="22" height="22" viewBox="0 0 22 22" fill="none" xmlns="http://www.w3.org/2000/svg">
<path d="M20 3.41019L20.71 2.71019C20.8983 2.52188 21.0041 2.26649 21.0041 2.00019C21.0041 1.73388 20.8983 1.47849 20.71 1.29019C20.5217 1.10188 20.2663 0.996094 20 0.996094C19.7337 0.996094 19.4783 1.10188 19.29 1.29019L17.89 2.70019L15.06 5.53019L8.74997 11.8302C7.71601 11.148 6.46564 10.8739 5.24114 11.0611C4.01664 11.2482 2.90519 11.8832 2.12216 12.843C1.33913 13.8029 0.940263 15.0192 1.00285 16.2563C1.06544 17.4935 1.58503 18.6633 2.46093 19.5392C3.33684 20.4151 4.5067 20.9347 5.74383 20.9973C6.98097 21.0599 8.19729 20.661 9.15712 19.878C10.117 19.095 10.752 17.9835 10.9391 16.759C11.1262 15.5345 10.8521 14.2841 10.17 13.2502L15.76 7.65019L17.88 9.78018C17.9732 9.87277 18.0838 9.94608 18.2053 9.99593C18.3269 10.0458 18.4571 10.0712 18.5885 10.0707C18.7199 10.0703 18.8499 10.0439 18.9711 9.99323C19.0924 9.94251 19.2024 9.86842 19.295 9.77518C19.3876 9.68195 19.4609 9.57139 19.5107 9.44981C19.5606 9.32824 19.586 9.19804 19.5855 9.06665C19.5851 8.93525 19.5587 8.80524 19.508 8.68402C19.4573 8.56281 19.3832 8.45277 19.29 8.36019L17.17 6.24019L18.59 4.83019L19.29 5.53019C19.3826 5.62342 19.4926 5.69751 19.6138 5.74823C19.735 5.79894 19.865 5.82528 19.9964 5.82574C20.1278 5.82621 20.258 5.80079 20.3796 5.75093C20.5012 5.70108 20.6117 5.62777 20.705 5.53519C20.7982 5.4426 20.8723 5.33256 20.923 5.21135C20.9737 5.09013 21.0001 4.96012 21.0005 4.82872C21.001 4.69733 20.9756 4.56713 20.9257 4.44556C20.8759 4.32398 20.8026 4.21342 20.71 4.12019L20 3.41019ZM5.99997 19.0002C5.40663 19.0002 4.82661 18.8242 4.33326 18.4946C3.83992 18.165 3.4554 17.6964 3.22834 17.1482C3.00127 16.6001 2.94186 15.9969 3.05762 15.4149C3.17337 14.833 3.4591 14.2984 3.87865 13.8789C4.29821 13.4593 4.83276 13.1736 5.4147 13.0578C5.99665 12.9421 6.59985 13.0015 7.14802 13.2285C7.6962 13.4556 8.16474 13.8401 8.49438 14.3335C8.82403 14.8268 8.99997 15.4068 8.99997 16.0002C8.99997 16.7958 8.6839 17.5589 8.12129 18.1215C7.55869 18.6841 6.79562 19.0002 5.99997 19.0002Z" fill="#A4A8AB"/>
</svg>
