<svg width="16" height="16" viewBox="0 0 16 16" fill="none" xmlns="http://www.w3.org/2000/svg">
<path d="M8.20008 8.14665C8.5558 7.83874 8.84111 7.4579 9.03666 7.02999C9.23221 6.60209 9.33342 6.13712 9.33342 5.66665C9.33342 4.78259 8.98223 3.93475 8.3571 3.30962C7.73198 2.6845 6.88414 2.33331 6.00008 2.33331C5.11603 2.33331 4.26818 2.6845 3.64306 3.30962C3.01794 3.93475 2.66675 4.78259 2.66675 5.66665C2.66674 6.13712 2.76795 6.60209 2.9635 7.02999C3.15905 7.4579 3.44436 7.83874 3.80008 8.14665C2.86684 8.56924 2.07506 9.25167 1.5194 10.1123C0.963745 10.973 0.667729 11.9755 0.666748 13C0.666748 13.1768 0.736986 13.3464 0.86201 13.4714C0.987034 13.5964 1.1566 13.6666 1.33341 13.6666C1.51023 13.6666 1.6798 13.5964 1.80482 13.4714C1.92984 13.3464 2.00008 13.1768 2.00008 13C2.00008 11.9391 2.42151 10.9217 3.17165 10.1716C3.9218 9.42141 4.93922 8.99998 6.00008 8.99998C7.06095 8.99998 8.07836 9.42141 8.82851 10.1716C9.57865 10.9217 10.0001 11.9391 10.0001 13C10.0001 13.1768 10.0703 13.3464 10.1953 13.4714C10.3204 13.5964 10.4899 13.6666 10.6667 13.6666C10.8436 13.6666 11.0131 13.5964 11.1382 13.4714C11.2632 13.3464 11.3334 13.1768 11.3334 13C11.3324 11.9755 11.0364 10.973 10.4808 10.1123C9.92511 9.25167 9.13332 8.56924 8.20008 8.14665ZM6.00008 7.66665C5.60452 7.66665 5.21784 7.54935 4.88894 7.32959C4.56004 7.10982 4.3037 6.79747 4.15232 6.43201C4.00095 6.06656 3.96134 5.66443 4.03851 5.27647C4.11568 4.8885 4.30616 4.53214 4.58587 4.25243C4.86557 3.97273 5.22194 3.78225 5.6099 3.70508C5.99786 3.62791 6.4 3.66751 6.76545 3.81889C7.1309 3.97026 7.44326 4.22661 7.66302 4.55551C7.88278 4.8844 8.00008 5.27108 8.00008 5.66665C8.00008 6.19708 7.78937 6.70579 7.4143 7.08086C7.03922 7.45593 6.53051 7.66665 6.00008 7.66665ZM12.4934 7.87998C12.9201 7.39953 13.1988 6.80602 13.2959 6.17087C13.3931 5.53573 13.3047 4.88603 13.0413 4.29998C12.7778 3.71393 12.3506 3.21651 11.8111 2.86759C11.2715 2.51868 10.6426 2.33314 10.0001 2.33331C9.82327 2.33331 9.6537 2.40355 9.52868 2.52858C9.40365 2.6536 9.33342 2.82317 9.33342 2.99998C9.33342 3.17679 9.40365 3.34636 9.52868 3.47138C9.6537 3.59641 9.82327 3.66665 10.0001 3.66665C10.5305 3.66665 11.0392 3.87736 11.4143 4.25243C11.7894 4.62751 12.0001 5.13621 12.0001 5.66665C11.9991 6.01681 11.9063 6.36058 11.7308 6.66359C11.5553 6.96661 11.3033 7.21823 11.0001 7.39331C10.9012 7.45033 10.8187 7.53176 10.7603 7.62981C10.702 7.72786 10.6697 7.83925 10.6667 7.95331C10.664 8.06649 10.69 8.17851 10.7425 8.27882C10.795 8.37913 10.8722 8.46441 10.9667 8.52665L11.2267 8.69998L11.3134 8.74665C12.117 9.12779 12.795 9.73064 13.2674 10.4842C13.7398 11.2377 13.9871 12.1106 13.9801 13C13.9801 13.1768 14.0503 13.3464 14.1753 13.4714C14.3004 13.5964 14.4699 13.6666 14.6467 13.6666C14.8236 13.6666 14.9931 13.5964 15.1182 13.4714C15.2432 13.3464 15.3134 13.1768 15.3134 13C15.3189 11.9769 15.0626 10.9695 14.5691 10.0734C14.0755 9.17723 13.361 8.42219 12.4934 7.87998Z" fill="#A4A8AB"/>
</svg>
