<svg width="18" height="18" viewBox="0 0 18 18" fill="none" xmlns="http://www.w3.org/2000/svg">
<path d="M10 10.5C9.80109 10.5 9.61032 10.579 9.46967 10.7197C9.32902 10.8603 9.25 11.0511 9.25 11.25V12.75C9.25 12.9489 9.32902 13.1397 9.46967 13.2803C9.61032 13.421 9.80109 13.5 10 13.5C10.1989 13.5 10.3897 13.421 10.5303 13.2803C10.671 13.1397 10.75 12.9489 10.75 12.75V11.25C10.75 11.0511 10.671 10.8603 10.5303 10.7197C10.3897 10.579 10.1989 10.5 10 10.5ZM10.285 8.31C10.1492 8.24705 9.99774 8.22615 9.85 8.25L9.715 8.295L9.58 8.3625L9.4675 8.4525C9.39617 8.52435 9.34012 8.60991 9.30274 8.704C9.26536 8.7981 9.24742 8.89878 9.25 9C9.24943 9.0987 9.26835 9.19655 9.30567 9.28793C9.343 9.37931 9.39799 9.46242 9.4675 9.5325C9.53883 9.60078 9.62294 9.6543 9.715 9.69C9.80401 9.73199 9.90162 9.75253 10 9.75C10.0987 9.75057 10.1966 9.73165 10.2879 9.69433C10.3793 9.657 10.4624 9.60201 10.5325 9.5325C10.602 9.46242 10.657 9.37931 10.6943 9.28793C10.7317 9.19655 10.7506 9.0987 10.75 9C10.7506 8.90129 10.7317 8.80345 10.6943 8.71207C10.657 8.62069 10.602 8.53758 10.5325 8.4675C10.4596 8.40125 10.3759 8.34798 10.285 8.31ZM16 6.705C15.9922 6.6361 15.9771 6.56822 15.955 6.5025V6.435C15.9189 6.35788 15.8708 6.287 15.8125 6.225L11.3125 1.725C11.2505 1.66666 11.1796 1.61856 11.1025 1.5825H11.0275C10.9546 1.5435 10.8762 1.51569 10.795 1.5H6.25C5.65326 1.5 5.08097 1.73705 4.65901 2.15901C4.23705 2.58097 4 3.15326 4 3.75V14.25C4 14.8467 4.23705 15.419 4.65901 15.841C5.08097 16.2629 5.65326 16.5 6.25 16.5H13.75C14.3467 16.5 14.919 16.2629 15.341 15.841C15.7629 15.419 16 14.8467 16 14.25V6.75C16 6.75 16 6.75 16 6.705ZM11.5 4.0575L13.4425 6H12.25C12.0511 6 11.8603 5.92098 11.7197 5.78033C11.579 5.63968 11.5 5.44891 11.5 5.25V4.0575ZM14.5 14.25C14.5 14.4489 14.421 14.6397 14.2803 14.7803C14.1397 14.921 13.9489 15 13.75 15H6.25C6.05109 15 5.86032 14.921 5.71967 14.7803C5.57902 14.6397 5.5 14.4489 5.5 14.25V3.75C5.5 3.55109 5.57902 3.36032 5.71967 3.21967C5.86032 3.07902 6.05109 3 6.25 3H10V5.25C10 5.84674 10.2371 6.41903 10.659 6.84099C11.081 7.26295 11.6533 7.5 12.25 7.5H14.5V14.25Z" fill="#A4A8AB"/>
</svg>
