<svg width="16" height="17" viewBox="0 0 16 17" fill="none" xmlns="http://www.w3.org/2000/svg">
<path d="M14.1587 6.41042V6.27673C14.1635 4.93902 13.739 3.63505 12.9478 2.55645C12.1565 1.47784 11.0401 0.681472 9.76271 0.284372H9.71553C9.05577 0.0832369 8.36836 -0.0123107 7.67876 0.00126808C6.03662 0.0913832 4.49077 0.80477 3.35671 1.99583C2.22264 3.18689 1.58585 4.76584 1.5763 6.41042C1.11548 6.57252 0.716346 6.87368 0.433995 7.27232C0.151643 7.67096 0 8.14742 0 8.63592C0 9.12443 0.151643 9.60088 0.433995 9.99952C0.716346 10.3982 1.11548 10.6993 1.5763 10.8614C1.73828 12.4144 2.47195 13.8516 3.63468 14.8937C4.79742 15.9358 6.30613 16.5083 7.86749 16.4999H8.04836C9.55822 16.4268 10.9933 15.8211 12.099 14.7903C13.2047 13.7595 13.9093 12.3703 14.0879 10.8693C14.5541 10.7164 14.9611 10.4218 15.2521 10.0268C15.5431 9.63168 15.7037 9.15569 15.7115 8.66506C15.7193 8.17444 15.5739 7.69359 15.2956 7.28947C15.0172 6.88536 14.6198 6.57808 14.1587 6.41042ZM8.00904 14.9271C6.87065 14.96 5.75876 14.5801 4.87855 13.8575C3.99834 13.1348 3.40921 12.1181 3.21988 10.9951H12.4758C12.2839 12.0582 11.7381 13.0253 10.9272 13.7391C10.1163 14.4529 9.08793 14.8716 8.00904 14.9271ZM13.3723 9.42232H2.3627C2.15414 9.42232 1.95411 9.33947 1.80664 9.19199C1.65916 9.04451 1.5763 8.84449 1.5763 8.63592C1.5763 8.42736 1.65916 8.22733 1.80664 8.07986C1.95411 7.93238 2.15414 7.84952 2.3627 7.84952H3.9355C4.14407 7.84952 4.34409 7.76667 4.49157 7.61919C4.63905 7.47172 4.7219 7.27169 4.7219 7.06313C4.7219 6.85456 4.63905 6.65454 4.49157 6.50706C4.34409 6.35958 4.14407 6.27673 3.9355 6.27673H3.1491C3.1843 5.46093 3.41747 4.66594 3.82849 3.96037C4.2395 3.25479 4.81602 2.65981 5.5083 2.22678V4.70393C5.5083 4.9125 5.59115 5.11252 5.73863 5.26C5.88611 5.40748 6.08613 5.49033 6.2947 5.49033C6.50326 5.49033 6.70328 5.40748 6.85076 5.26C6.99824 5.11252 7.08109 4.9125 7.08109 4.70393V1.62911C7.29455 1.59345 7.50983 1.56982 7.72594 1.55834H7.86749C8.13104 1.56205 8.39392 1.58571 8.65389 1.62911V4.70393C8.65389 4.9125 8.73674 5.11252 8.88422 5.26C9.0317 5.40748 9.23172 5.49033 9.44029 5.49033C9.64886 5.49033 9.84888 5.40748 9.99636 5.26C10.1438 5.11252 10.2267 4.9125 10.2267 4.70393V2.20318C10.5603 2.39634 10.8715 2.62579 11.1546 2.88735C11.608 3.32765 11.9684 3.85456 12.2142 4.43679C12.4601 5.01902 12.5865 5.64471 12.5859 6.27673H11.7995C11.5909 6.27673 11.3909 6.35958 11.2434 6.50706C11.0959 6.65454 11.0131 6.85456 11.0131 7.06313C11.0131 7.27169 11.0959 7.47172 11.2434 7.61919C11.3909 7.76667 11.5909 7.84952 11.7995 7.84952H13.3723C13.5808 7.84952 13.7809 7.93238 13.9283 8.07986C14.0758 8.22733 14.1587 8.42736 14.1587 8.63592C14.1587 8.84449 14.0758 9.04451 13.9283 9.19199C13.7809 9.33947 13.5808 9.42232 13.3723 9.42232Z" fill="#A4A8AB"/>
</svg>
