<svg width="20" height="20" viewBox="0 0 20 20" fill="none" xmlns="http://www.w3.org/2000/svg">
<path d="M12.4998 10C12.4998 10.1648 12.5487 10.3259 12.6403 10.463C12.7318 10.6 12.862 10.7068 13.0143 10.7699C13.1665 10.833 13.3341 10.8495 13.4957 10.8173C13.6574 10.7852 13.8059 10.7058 13.9224 10.5893C14.039 10.4727 14.1183 10.3242 14.1505 10.1626C14.1826 10.0009 14.1661 9.83338 14.1031 9.68111C14.04 9.52884 13.9332 9.39869 13.7961 9.30712C13.6591 9.21555 13.498 9.16668 13.3332 9.16668C13.1122 9.16668 12.9002 9.25448 12.7439 9.41076C12.5876 9.56704 12.4998 9.779 12.4998 10ZM18.0915 9.40835L13.9248 5.24168C13.847 5.16445 13.7546 5.10334 13.6531 5.06187C13.5516 5.0204 13.4428 4.99938 13.3332 5.00001H4.1665C3.50346 5.00001 2.86758 5.26341 2.39874 5.73225C1.9299 6.20109 1.6665 6.83697 1.6665 7.50001V12.5C1.6665 13.1631 1.9299 13.7989 2.39874 14.2678C2.86758 14.7366 3.50346 15 4.1665 15H13.3332C13.4428 15.0006 13.5516 14.9796 13.6531 14.9382C13.7546 14.8967 13.847 14.8356 13.9248 14.7583L18.0915 10.5917C18.1696 10.5142 18.2316 10.422 18.2739 10.3205C18.3162 10.2189 18.338 10.11 18.338 10C18.338 9.89 18.3162 9.78108 18.2739 9.67953C18.2316 9.57798 18.1696 9.48582 18.0915 9.40835ZM12.9915 13.3333H4.1665C3.94549 13.3333 3.73353 13.2456 3.57725 13.0893C3.42097 12.933 3.33317 12.721 3.33317 12.5V7.50001C3.33317 7.279 3.42097 7.06704 3.57725 6.91076C3.73353 6.75448 3.94549 6.66668 4.1665 6.66668H12.9915L16.3248 10L12.9915 13.3333Z" fill="#444C55"/>
</svg>
