<svg width="20" height="16" viewBox="0 0 20 16" fill="none" xmlns="http://www.w3.org/2000/svg">
<path d="M1 2.00001H4.18427C4.38807 1.41569 4.76861 0.909245 5.27313 0.550884C5.77765 0.192524 6.38116 0 7 0C7.61884 0 8.22235 0.192524 8.72687 0.550884C9.23139 0.909245 9.61193 1.41569 9.81573 2.00001H19C19.2652 2.00001 19.5196 2.10536 19.7071 2.2929C19.8946 2.48044 20 2.73479 20 3.00001C20 3.26522 19.8946 3.51958 19.7071 3.70711C19.5196 3.89465 19.2652 4.00001 19 4.00001H9.81567C9.6119 4.58434 9.23137 5.09081 8.72685 5.44918C8.22233 5.80756 7.61882 6.00009 6.99997 6.00009C6.38112 6.00009 5.77761 5.80756 5.27309 5.44918C4.76857 5.09081 4.38805 4.58434 4.18427 4.00001H1C0.734783 4.00001 0.480429 3.89465 0.292892 3.70711C0.105356 3.51958 0 3.26522 0 3.00001C0 2.73479 0.105356 2.48044 0.292892 2.2929C0.480429 2.10536 0.734783 2.00001 1 2.00001ZM7 4.00001C7.19778 4.00001 7.39112 3.94136 7.55557 3.83148C7.72002 3.7216 7.84819 3.56542 7.92388 3.38269C7.99957 3.19997 8.01937 2.9989 7.98079 2.80492C7.9422 2.61094 7.84696 2.43275 7.70711 2.2929C7.56725 2.15305 7.38907 2.05781 7.19509 2.01922C7.00111 1.98064 6.80004 2.00044 6.61732 2.07613C6.43459 2.15182 6.27841 2.27999 6.16853 2.44444C6.05865 2.60889 6 2.80223 6 3.00001C6.00034 3.26512 6.10581 3.51927 6.29327 3.70673C6.48073 3.8942 6.73489 3.99966 7 4.00001Z" fill="#444C55"/>
<path d="M19 12H15.8157C15.6119 11.4157 15.2314 10.9092 14.7269 10.5509C14.2224 10.1925 13.6188 10 13 10C12.3812 10 11.7776 10.1925 11.2731 10.5509C10.7686 10.9092 10.3881 11.4157 10.1843 12H1C0.734784 12 0.48043 12.1054 0.292893 12.2929C0.105357 12.4804 0 12.7348 0 13C0 13.2652 0.105357 13.5196 0.292893 13.7071C0.48043 13.8947 0.734784 14 1 14H10.1843C10.3881 14.5843 10.7686 15.0908 11.2731 15.4492C11.7777 15.8076 12.3812 16.0001 13 16.0001C13.6189 16.0001 14.2224 15.8076 14.7269 15.4492C15.2314 15.0908 15.612 14.5843 15.8157 14H19C19.2652 14 19.5196 13.8947 19.7071 13.7071C19.8946 13.5196 20 13.2652 20 13C20 12.7348 19.8946 12.4804 19.7071 12.2929C19.5196 12.1054 19.2652 12 19 12ZM13 14C12.8022 14 12.6089 13.9414 12.4444 13.8315C12.28 13.7216 12.1518 13.5654 12.0761 13.3827C12.0004 13.2 11.9806 12.9989 12.0192 12.8049C12.0578 12.6109 12.153 12.4328 12.2929 12.2929C12.4327 12.153 12.6109 12.0578 12.8049 12.0192C12.9989 11.9806 13.2 12.0004 13.3827 12.0761C13.5654 12.1518 13.7216 12.28 13.8315 12.4444C13.9414 12.6089 14 12.8022 14 13C13.9997 13.2651 13.8942 13.5193 13.7067 13.7067C13.5193 13.8942 13.2651 13.9997 13 14Z" fill="#444C55"/>
</svg>
