<svg width="14" height="14" viewBox="0 0 14 14" fill="none" xmlns="http://www.w3.org/2000/svg">
<path d="M11.1347 2.89016C11.1305 2.88561 11.1292 2.87955 11.1247 2.8751C11.1203 2.87065 11.1141 2.8693 11.1095 2.86499C10.0184 1.7774 8.54066 1.16669 7.00008 1.16669C5.45951 1.16669 3.98176 1.7774 2.89065 2.86499C2.88606 2.8693 2.87994 2.87062 2.87545 2.8751C2.87096 2.87959 2.86972 2.8856 2.86545 2.89016C2.05243 3.70707 1.49963 4.74652 1.27681 5.87731C1.05398 7.00811 1.17113 8.17956 1.61346 9.24384C2.05579 10.3081 2.80348 11.2175 3.76216 11.8573C4.72084 12.497 5.84755 12.8384 7.00008 12.8384C8.15262 12.8384 9.27933 12.497 10.238 11.8573C11.1967 11.2175 11.9444 10.3081 12.3867 9.24384C12.829 8.17956 12.9462 7.00811 12.7234 5.87731C12.5005 4.74652 11.9477 3.70707 11.1347 2.89016ZM7.00005 11.6667C6.30138 11.6665 5.6117 11.509 4.98211 11.2061C4.35252 10.9032 3.79914 10.4625 3.36297 9.91669H5.70521C5.86743 10.1001 6.06675 10.2469 6.28997 10.3475C6.51319 10.448 6.75523 10.5 7.00005 10.5C7.24488 10.5 7.48692 10.448 7.71014 10.3475C7.93336 10.2469 8.13268 10.1001 8.2949 9.91669H10.6372C10.201 10.4625 9.64761 10.9032 9.01802 11.2061C8.38842 11.5091 7.69874 11.6665 7.00005 11.6667ZM6.41672 8.75002C6.41672 8.63465 6.45093 8.52187 6.51503 8.42594C6.57913 8.33001 6.67023 8.25524 6.77682 8.21109C6.88341 8.16694 7.0007 8.15539 7.11386 8.1779C7.22701 8.2004 7.33095 8.25596 7.41253 8.33754C7.49411 8.41912 7.54967 8.52306 7.57218 8.63622C7.59469 8.74937 7.58314 8.86666 7.53898 8.97325C7.49483 9.07984 7.42007 9.17095 7.32414 9.23504C7.22821 9.29914 7.11543 9.33335 7.00005 9.33335C6.84539 9.3332 6.69711 9.27169 6.58775 9.16233C6.47838 9.05297 6.41688 8.90468 6.41672 8.75002ZM11.3227 8.75123L11.3167 8.75002H8.75006C8.74895 8.3893 8.63621 8.03776 8.42732 7.74367C8.21843 7.44958 7.92363 7.22736 7.58339 7.10751V5.25002C7.58339 5.09531 7.52193 4.94694 7.41253 4.83754C7.30314 4.72814 7.15476 4.66669 7.00005 4.66669C6.84535 4.66669 6.69697 4.72814 6.58758 4.83754C6.47818 4.94694 6.41672 5.09531 6.41672 5.25002V7.10751C6.07648 7.22736 5.78168 7.44958 5.57279 7.74367C5.3639 8.03776 5.25116 8.3893 5.25006 8.75002H2.68345L2.67743 8.75123C2.5257 8.37686 2.42366 7.98423 2.37391 7.58335H2.91672C3.07143 7.58335 3.2198 7.5219 3.3292 7.4125C3.4386 7.3031 3.50006 7.15473 3.50006 7.00002C3.50006 6.84531 3.4386 6.69694 3.3292 6.58754C3.2198 6.47815 3.07143 6.41669 2.91672 6.41669H2.37391C2.47814 5.58752 2.80446 4.80192 3.31837 4.14292L3.70029 4.52484C3.75445 4.57901 3.81875 4.62197 3.88952 4.65128C3.96028 4.68059 4.03613 4.69568 4.11273 4.69568C4.18932 4.69568 4.26517 4.68059 4.33593 4.65128C4.4067 4.62197 4.471 4.579 4.52516 4.52484C4.57932 4.47068 4.62229 4.40638 4.6516 4.33561C4.68091 4.26485 4.696 4.189 4.696 4.1124C4.696 4.03581 4.68091 3.95996 4.6516 3.8892C4.62228 3.81843 4.57932 3.75413 4.52516 3.69997L4.14327 3.31808C4.80222 2.80434 5.5877 2.47812 6.41672 2.37387V2.91669C6.41672 3.0714 6.47818 3.21977 6.58758 3.32917C6.69697 3.43856 6.84535 3.50002 7.00005 3.50002C7.15476 3.50002 7.30314 3.43856 7.41253 3.32917C7.52193 3.21977 7.58339 3.0714 7.58339 2.91669V2.37387C8.41241 2.47812 9.19789 2.80434 9.85684 3.31808L9.47495 3.69997C9.36557 3.80935 9.30411 3.95771 9.30411 4.1124C9.30411 4.2671 9.36557 4.41546 9.47495 4.52484C9.58433 4.63423 9.73269 4.69568 9.88738 4.69568C10.0421 4.69568 10.1904 4.63423 10.2998 4.52484L10.6817 4.14292C11.1957 4.80192 11.522 5.58752 11.6262 6.41669H11.0834C10.9287 6.41669 10.7803 6.47815 10.6709 6.58754C10.5615 6.69694 10.5001 6.84531 10.5001 7.00002C10.5001 7.15473 10.5615 7.3031 10.6709 7.4125C10.7803 7.5219 10.9287 7.58335 11.0834 7.58335H11.6262C11.5765 7.98423 11.4744 8.37686 11.3227 8.75123Z" fill="#0E9F57"/>
</svg>
