<svg width="14" height="14" viewBox="0 0 14 14" fill="none" xmlns="http://www.w3.org/2000/svg">
<path d="M11.1347 2.8901C11.1305 2.88555 11.1292 2.87949 11.1247 2.87504C11.1203 2.87059 11.1141 2.86924 11.1095 2.86493C10.0184 1.77734 8.54066 1.16663 7.00008 1.16663C5.45951 1.16663 3.98176 1.77734 2.89065 2.86493C2.88606 2.86924 2.87994 2.87055 2.87545 2.87504C2.87096 2.87953 2.86972 2.88554 2.86545 2.8901C2.05243 3.70701 1.49963 4.74646 1.27681 5.87725C1.05398 7.00804 1.17113 8.1795 1.61346 9.24378C2.05579 10.3081 2.80348 11.2175 3.76216 11.8572C4.72084 12.4969 5.84755 12.8384 7.00008 12.8384C8.15262 12.8384 9.27933 12.4969 10.238 11.8572C11.1967 11.2175 11.9444 10.3081 12.3867 9.24378C12.829 8.1795 12.9462 7.00804 12.7234 5.87725C12.5005 4.74646 11.9477 3.70701 11.1347 2.8901ZM7.00005 11.6666C6.30138 11.6664 5.6117 11.509 4.98211 11.2061C4.35252 10.9031 3.79914 10.4624 3.36297 9.91663H5.70521C5.86743 10.1 6.06675 10.2468 6.28997 10.3474C6.51319 10.448 6.75523 10.5 7.00005 10.5C7.24488 10.5 7.48692 10.448 7.71014 10.3474C7.93336 10.2468 8.13268 10.1 8.2949 9.91663H10.6372C10.201 10.4624 9.64761 10.9031 9.01802 11.2061C8.38842 11.509 7.69874 11.6664 7.00005 11.6666ZM6.41672 8.74996C6.41672 8.63459 6.45093 8.52181 6.51503 8.42588C6.57913 8.32995 6.67023 8.25518 6.77682 8.21103C6.88341 8.16688 7.0007 8.15533 7.11386 8.17783C7.22701 8.20034 7.33095 8.2559 7.41253 8.33748C7.49411 8.41906 7.54967 8.523 7.57218 8.63616C7.59469 8.74931 7.58314 8.8666 7.53898 8.97319C7.49483 9.07978 7.42007 9.17089 7.32414 9.23498C7.22821 9.29908 7.11543 9.33329 7.00005 9.33329C6.84539 9.33314 6.69711 9.27163 6.58775 9.16227C6.47838 9.05291 6.41688 8.90462 6.41672 8.74996ZM11.3227 8.75117L11.3167 8.74996H8.75006C8.74895 8.38923 8.63621 8.0377 8.42732 7.74361C8.21843 7.44952 7.92363 7.22729 7.58339 7.10745V5.24996C7.58339 5.09525 7.52193 4.94688 7.41253 4.83748C7.30314 4.72808 7.15476 4.66663 7.00005 4.66663C6.84535 4.66663 6.69697 4.72808 6.58758 4.83748C6.47818 4.94688 6.41672 5.09525 6.41672 5.24996V7.10745C6.07648 7.22729 5.78168 7.44952 5.57279 7.74361C5.3639 8.0377 5.25116 8.38923 5.25006 8.74996H2.68345L2.67743 8.75117C2.5257 8.3768 2.42366 7.98417 2.37391 7.58329H2.91672C3.07143 7.58329 3.2198 7.52183 3.3292 7.41244C3.4386 7.30304 3.50006 7.15467 3.50006 6.99996C3.50006 6.84525 3.4386 6.69688 3.3292 6.58748C3.2198 6.47808 3.07143 6.41663 2.91672 6.41663H2.37391C2.47814 5.58746 2.80446 4.80186 3.31837 4.14286L3.70029 4.52478C3.75445 4.57894 3.81875 4.62191 3.88952 4.65122C3.96028 4.68053 4.03613 4.69562 4.11273 4.69562C4.18932 4.69562 4.26517 4.68053 4.33593 4.65122C4.4067 4.62191 4.471 4.57894 4.52516 4.52478C4.57932 4.47062 4.62229 4.40632 4.6516 4.33555C4.68091 4.26479 4.696 4.18894 4.696 4.11234C4.696 4.03575 4.68091 3.9599 4.6516 3.88914C4.62228 3.81837 4.57932 3.75407 4.52516 3.69991L4.14327 3.31802C4.80222 2.80428 5.5877 2.47806 6.41672 2.37381V2.91663C6.41672 3.07134 6.47818 3.21971 6.58758 3.3291C6.69697 3.4385 6.84535 3.49996 7.00005 3.49996C7.15476 3.49996 7.30314 3.4385 7.41253 3.3291C7.52193 3.21971 7.58339 3.07134 7.58339 2.91663V2.37381C8.41241 2.47806 9.19789 2.80428 9.85684 3.31802L9.47495 3.69991C9.36557 3.80929 9.30411 3.95765 9.30411 4.11234C9.30411 4.26704 9.36557 4.41539 9.47495 4.52478C9.58433 4.63416 9.73269 4.69562 9.88738 4.69562C10.0421 4.69562 10.1904 4.63417 10.2998 4.52478L10.6817 4.14286C11.1957 4.80186 11.522 5.58746 11.6262 6.41663H11.0834C10.9287 6.41663 10.7803 6.47808 10.6709 6.58748C10.5615 6.69688 10.5001 6.84525 10.5001 6.99996C10.5001 7.15467 10.5615 7.30304 10.6709 7.41244C10.7803 7.52183 10.9287 7.58329 11.0834 7.58329H11.6262C11.5765 7.98417 11.4744 8.3768 11.3227 8.75117Z" fill="#F2994A"/>
</svg>
