<svg width="31" height="32" viewBox="0 0 31 32" fill="none" xmlns="http://www.w3.org/2000/svg">
<circle cx="15.5" cy="15.502" r="15" stroke="#A4A8AB"/>
<circle cx="15.5" cy="15.502" r="15" stroke="#A4A8AB"/>
<line x1="15.5" y1="0.00195312" x2="15.5" y2="30.002" stroke="#A4A8AB"/>
<path d="M30 14.502L1 14.502" stroke="#A4A8AB" stroke-linecap="round"/>
<path d="M24.755 4.15478L26.3634 5.61933L27.974 8.06255L29.5856 10.9951L30.1239 12.462L30.6288 14.3621L15.6805 14.4505L15.6509 0.749037L17.7913 0.744421L20.4689 1.71732L23.1465 2.69023L24.755 4.15478Z" fill="#A4A8AB"/>
<path d="M27 25.002L25 27.002L23 28.0566L21.5 29.0566L19.5 29.5566L17.5 30.5566L15.6493 30.626L15.6458 14.712L30.6598 14.7667L30.6515 17.0453L29.5687 19.8896L28.4859 22.734L27 25.002Z" fill="#A4A8AB"/>
<path d="M4.43654 5.85739L6.05013 4.2545L8.73786 2.6532L11.9626 1.05271L13.5746 0.520016L15.6621 0.0223337L15.7014 14.9709L0.663507 14.9485L0.666698 12.8081L1.74482 10.1342L2.82294 7.46028L4.43654 5.85739Z" fill="#A4A8AB"/>
</svg>
