<svg width="16" height="16" viewBox="0 0 16 16" fill="none" xmlns="http://www.w3.org/2000/svg">
<path d="M3.33329 8.00016C3.15648 8.00016 2.98691 8.0704 2.86189 8.19542C2.73686 8.32045 2.66663 8.49002 2.66663 8.66683V14.0002C2.66663 14.177 2.73686 14.3465 2.86189 14.4716C2.98691 14.5966 3.15648 14.6668 3.33329 14.6668C3.5101 14.6668 3.67967 14.5966 3.8047 14.4716C3.92972 14.3465 3.99996 14.177 3.99996 14.0002V8.66683C3.99996 8.49002 3.92972 8.32045 3.8047 8.19542C3.67967 8.0704 3.5101 8.00016 3.33329 8.00016ZM6.66663 1.3335C6.48981 1.3335 6.32025 1.40373 6.19522 1.52876C6.0702 1.65378 5.99996 1.82335 5.99996 2.00016V14.0002C5.99996 14.177 6.0702 14.3465 6.19522 14.4716C6.32025 14.5966 6.48981 14.6668 6.66663 14.6668C6.84344 14.6668 7.01301 14.5966 7.13803 14.4716C7.26305 14.3465 7.33329 14.177 7.33329 14.0002V2.00016C7.33329 1.82335 7.26305 1.65378 7.13803 1.52876C7.01301 1.40373 6.84344 1.3335 6.66663 1.3335ZM13.3333 10.6668C13.1565 10.6668 12.9869 10.7371 12.8619 10.8621C12.7369 10.9871 12.6666 11.1567 12.6666 11.3335V14.0002C12.6666 14.177 12.7369 14.3465 12.8619 14.4716C12.9869 14.5966 13.1565 14.6668 13.3333 14.6668C13.5101 14.6668 13.6797 14.5966 13.8047 14.4716C13.9297 14.3465 14 14.177 14 14.0002V11.3335C14 11.1567 13.9297 10.9871 13.8047 10.8621C13.6797 10.7371 13.5101 10.6668 13.3333 10.6668ZM9.99996 5.3335C9.82315 5.3335 9.65358 5.40373 9.52855 5.52876C9.40353 5.65378 9.33329 5.82335 9.33329 6.00016V14.0002C9.33329 14.177 9.40353 14.3465 9.52855 14.4716C9.65358 14.5966 9.82315 14.6668 9.99996 14.6668C10.1768 14.6668 10.3463 14.5966 10.4714 14.4716C10.5964 14.3465 10.6666 14.177 10.6666 14.0002V6.00016C10.6666 5.82335 10.5964 5.65378 10.4714 5.52876C10.3463 5.40373 10.1768 5.3335 9.99996 5.3335Z" fill="#161E25"/>
</svg>
