<svg width="20" height="20" viewBox="0 0 20 20" fill="none" xmlns="http://www.w3.org/2000/svg">
<path d="M16.8168 8.49175C16.2174 8.38329 15.6092 8.33029 15.0001 8.33341C14.6501 8.33341 14.3084 8.33341 13.9668 8.40008C13.5414 7.83248 12.9985 7.36345 12.3751 7.02508C12.9106 6.44029 13.2078 5.67631 13.2084 4.88341C13.2084 4.0303 12.8695 3.21213 12.2663 2.60889C11.6631 2.00565 10.8449 1.66675 9.99178 1.66675C9.13867 1.66675 8.32049 2.00565 7.71725 2.60889C7.11401 3.21213 6.77511 4.0303 6.77511 4.88341C6.77572 5.67631 7.07299 6.44029 7.60844 7.02508C6.98877 7.36521 6.44671 7.83064 6.01678 8.39175C5.69178 8.33341 5.35011 8.33341 5.00011 8.33341C4.39046 8.33578 3.78233 8.39436 3.18344 8.50841C2.98931 8.54391 2.81408 8.64715 2.68894 8.79976C2.56381 8.95236 2.49689 9.14442 2.50011 9.34175V16.2167C2.49991 16.3392 2.52669 16.4601 2.57854 16.571C2.63039 16.6819 2.70604 16.7801 2.80011 16.8584C2.89359 16.9372 3.00326 16.9945 3.12136 17.0262C3.23945 17.0579 3.36307 17.0632 3.48344 17.0417C3.98212 16.9331 4.48992 16.8718 5.00011 16.8584C6.61436 16.8566 8.19358 17.329 9.54178 18.2167L9.65011 18.2584C9.76065 18.3064 9.87963 18.3319 10.0001 18.3334C10.0796 18.3324 10.1585 18.3183 10.2334 18.2917H10.2918L10.4001 18.2501C11.7611 17.3395 13.3626 16.855 15.0001 16.8584C15.5093 16.8608 16.017 16.911 16.5168 17.0084C16.6372 17.0299 16.7608 17.0245 16.8789 16.9929C16.997 16.9612 17.1066 16.9039 17.2001 16.8251C17.2942 16.7467 17.3698 16.6486 17.4217 16.5377C17.4735 16.4268 17.5003 16.3058 17.5001 16.1834V9.30841C17.4994 9.11395 17.4307 8.92585 17.3059 8.7767C17.1811 8.62756 17.0081 8.52675 16.8168 8.49175ZM10.0001 3.33341C10.3905 3.3621 10.7556 3.53741 11.022 3.82415C11.2884 4.11089 11.4365 4.48782 11.4365 4.87925C11.4365 5.27067 11.2884 5.6476 11.022 5.93434C10.7556 6.22109 10.3905 6.3964 10.0001 6.42508C9.60974 6.3964 9.24467 6.22109 8.97823 5.93434C8.71178 5.6476 8.56369 5.27067 8.56369 4.87925C8.56369 4.48782 8.71178 4.11089 8.97823 3.82415C9.24467 3.53741 9.60974 3.3621 10.0001 3.33341ZM9.16678 16.1084C7.86067 15.5047 6.439 15.1919 5.00011 15.1917C4.72511 15.1917 4.45011 15.1917 4.16678 15.2334V10.0001C4.86558 9.92191 5.57163 9.93592 6.26678 10.0417H6.35844C7.35144 10.2242 8.30301 10.5857 9.16678 11.1084V16.1084ZM10.0001 9.66675C9.62955 9.45298 9.24539 9.26369 8.85011 9.10008H8.80011C8.52511 8.99175 8.25011 8.88341 7.96678 8.80008C8.54537 8.33956 9.26068 8.08451 10.0001 8.07508C10.7376 8.07976 11.4527 8.32887 12.0334 8.78341C11.326 9.00427 10.6443 9.30041 10.0001 9.66675ZM15.8334 15.2334C14.1223 15.0615 12.3963 15.3492 10.8334 16.0667V11.0667C11.6988 10.5574 12.6509 10.2127 13.6418 10.0501H13.8084C14.4784 9.94575 15.1591 9.92894 15.8334 10.0001V15.2334Z" fill="#444C55"/>
</svg>
