<svg width="14" height="14" viewBox="0 0 14 14" fill="none" xmlns="http://www.w3.org/2000/svg">
<path d="M11.0833 2.33317H9.91667V1.74984C9.91667 1.59513 9.85521 1.44675 9.74581 1.33736C9.63641 1.22796 9.48804 1.1665 9.33333 1.1665C9.17862 1.1665 9.03025 1.22796 8.92085 1.33736C8.81146 1.44675 8.75 1.59513 8.75 1.74984V2.33317H5.25V1.74984C5.25 1.59513 5.18854 1.44675 5.07914 1.33736C4.96975 1.22796 4.82137 1.1665 4.66666 1.1665C4.51195 1.1665 4.36358 1.22796 4.25419 1.33736C4.14479 1.44675 4.08333 1.59513 4.08333 1.74984V2.33317H2.91666C2.45254 2.33317 2.00742 2.51755 1.67923 2.84573C1.35104 3.17392 1.16666 3.61904 1.16666 4.08317V11.0832C1.16666 11.5473 1.35104 11.9924 1.67923 12.3206C2.00742 12.6488 2.45254 12.8332 2.91666 12.8332H11.0833C11.5475 12.8332 11.9926 12.6488 12.3208 12.3206C12.649 11.9924 12.8333 11.5473 12.8333 11.0832V4.08317C12.8333 3.61904 12.649 3.17392 12.3208 2.84573C11.9926 2.51755 11.5475 2.33317 11.0833 2.33317ZM11.6667 11.0832C11.6667 11.2379 11.6052 11.3863 11.4958 11.4957C11.3864 11.605 11.238 11.6665 11.0833 11.6665H2.91666C2.76195 11.6665 2.61358 11.605 2.50419 11.4957C2.39479 11.3863 2.33333 11.2379 2.33333 11.0832V6.99984H11.6667V11.0832ZM11.6667 5.83317H2.33333V4.08317C2.33333 3.92846 2.39479 3.78009 2.50419 3.67069C2.61358 3.5613 2.76195 3.49984 2.91666 3.49984H4.08333V4.08317C4.08333 4.23788 4.14479 4.38625 4.25419 4.49565C4.36358 4.60505 4.51195 4.6665 4.66666 4.6665C4.82137 4.6665 4.96975 4.60505 5.07914 4.49565C5.18854 4.38625 5.25 4.23788 5.25 4.08317V3.49984H8.75V4.08317C8.75 4.23788 8.81146 4.38625 8.92085 4.49565C9.03025 4.60505 9.17862 4.6665 9.33333 4.6665C9.48804 4.6665 9.63641 4.60505 9.74581 4.49565C9.85521 4.38625 9.91667 4.23788 9.91667 4.08317V3.49984H11.0833C11.238 3.49984 11.3864 3.5613 11.4958 3.67069C11.6052 3.78009 11.6667 3.92846 11.6667 4.08317V5.83317Z" fill="#444C55"/>
</svg>
