<svg width="20" height="20" viewBox="0 0 20 20" fill="none" xmlns="http://www.w3.org/2000/svg">
<path d="M16.6668 13.3334C16.1496 13.336 15.6459 13.4991 15.2252 13.8L13.1835 12.5917C13.2798 12.2927 13.3304 11.9808 13.3335 11.6667C13.3311 10.9296 13.0844 10.214 12.6321 9.63199C12.1797 9.04997 11.5472 8.63431 10.8335 8.45003V6.51669C11.3895 6.32011 11.8581 5.9333 12.1565 5.42462C12.4549 4.91595 12.5639 4.31816 12.4642 3.73691C12.3644 3.15567 12.0624 2.62839 11.6115 2.24827C11.1607 1.86815 10.5899 1.65967 10.0002 1.65967C9.41042 1.65967 8.83967 1.86815 8.38878 2.24827C7.93789 2.62839 7.63589 3.15567 7.53617 3.73691C7.43644 4.31816 7.54541 4.91595 7.8438 5.42462C8.1422 5.9333 8.61082 6.32011 9.16683 6.51669V8.45003C8.4531 8.63431 7.82059 9.04997 7.36824 9.63199C6.91589 10.214 6.66922 10.9296 6.66683 11.6667C6.66993 11.9808 6.7205 12.2927 6.81683 12.5917L4.77516 13.8C4.35446 13.4991 3.85076 13.336 3.3335 13.3334C2.83904 13.3334 2.35569 13.48 1.94457 13.7547C1.53345 14.0294 1.21302 14.4198 1.0238 14.8766C0.834579 15.3335 0.785071 15.8361 0.881534 16.3211C0.977997 16.806 1.2161 17.2515 1.56573 17.6011C1.91536 17.9508 2.36082 18.1889 2.84577 18.2853C3.33072 18.3818 3.83339 18.3323 4.29021 18.1431C4.74702 17.9538 5.13747 17.6334 5.41217 17.2223C5.68687 16.8112 5.8335 16.3278 5.8335 15.8334C5.83042 15.6076 5.79678 15.3834 5.7335 15.1667L7.65016 14.025C8.27471 14.6459 9.11954 14.9943 10.0002 14.9943C10.8808 14.9943 11.7256 14.6459 12.3502 14.025L14.2668 15.1667C14.1272 15.6714 14.1496 16.2071 14.3308 16.6984C14.5119 17.1897 14.8428 17.6117 15.2767 17.9048C15.7106 18.198 16.2256 18.3475 16.749 18.3323C17.2724 18.3171 17.7778 18.1379 18.1939 17.82C18.61 17.5022 18.9158 17.0617 19.0682 16.5607C19.2205 16.0597 19.2117 15.5235 19.043 15.0278C18.8743 14.5321 18.5542 14.1019 18.1278 13.7979C17.7015 13.4939 17.1905 13.3314 16.6668 13.3334ZM3.3335 16.6667C3.16868 16.6667 3.00756 16.6178 2.87052 16.5262C2.73348 16.4347 2.62667 16.3045 2.5636 16.1523C2.50052 16 2.48402 15.8324 2.51618 15.6708C2.54833 15.5091 2.6277 15.3606 2.74424 15.2441C2.86079 15.1276 3.00927 15.0482 3.17092 15.016C3.33257 14.9839 3.50013 15.0004 3.6524 15.0635C3.80467 15.1265 3.93482 15.2333 4.02639 15.3704C4.11796 15.5074 4.16683 15.6685 4.16683 15.8334C4.16683 16.0544 4.07903 16.2663 3.92275 16.4226C3.76647 16.5789 3.55451 16.6667 3.3335 16.6667ZM10.0002 3.33336C10.165 3.33336 10.3261 3.38223 10.4631 3.4738C10.6002 3.56537 10.707 3.69552 10.7701 3.84779C10.8331 4.00006 10.8496 4.16762 10.8175 4.32927C10.7853 4.49092 10.706 4.6394 10.5894 4.75595C10.4729 4.87249 10.3244 4.95186 10.1627 4.98401C10.0011 5.01617 9.83353 4.99966 9.68126 4.93659C9.52899 4.87352 9.39884 4.76671 9.30727 4.62967C9.2157 4.49262 9.16683 4.33151 9.16683 4.16669C9.16683 3.94568 9.25463 3.73372 9.41091 3.57744C9.56719 3.42115 9.77915 3.33336 10.0002 3.33336ZM10.0002 13.3334C9.67053 13.3334 9.3483 13.2356 9.07421 13.0525C8.80013 12.8693 8.58651 12.609 8.46036 12.3045C8.33422 12 8.30121 11.6648 8.36552 11.3415C8.42983 11.0182 8.58857 10.7213 8.82165 10.4882C9.05474 10.2551 9.35171 10.0964 9.67501 10.032C9.99831 9.96774 10.3334 10.0007 10.638 10.1269C10.9425 10.253 11.2028 10.4667 11.3859 10.7407C11.5691 11.0148 11.6668 11.3371 11.6668 11.6667C11.6668 12.1087 11.4912 12.5326 11.1787 12.8452C10.8661 13.1578 10.4422 13.3334 10.0002 13.3334ZM16.6668 16.6667C16.502 16.6667 16.3409 16.6178 16.2039 16.5262C16.0668 16.4347 15.96 16.3045 15.8969 16.1523C15.8339 16 15.8174 15.8324 15.8495 15.6708C15.8817 15.5091 15.961 15.3606 16.0776 15.2441C16.1941 15.1276 16.3426 15.0482 16.5043 15.016C16.6659 14.9839 16.8335 15.0004 16.9857 15.0635C17.138 15.1265 17.2682 15.2333 17.3597 15.3704C17.4513 15.5074 17.5002 15.6685 17.5002 15.8334C17.5002 16.0544 17.4124 16.2663 17.2561 16.4226C17.0998 16.5789 16.8878 16.6667 16.6668 16.6667Z" fill="#444C55"/>
</svg>
