<svg width="20" height="20" viewBox="0 0 20 20" fill="none" xmlns="http://www.w3.org/2000/svg">
<path d="M17.4998 9.16675H16.6082C16.4222 7.70006 15.7539 6.33681 14.7085 5.2914C13.6631 4.24599 12.2999 3.57774 10.8332 3.39175V2.50008C10.8332 2.27907 10.7454 2.06711 10.5891 1.91083C10.4328 1.75455 10.2209 1.66675 9.99984 1.66675C9.77882 1.66675 9.56686 1.75455 9.41058 1.91083C9.2543 2.06711 9.1665 2.27907 9.1665 2.50008V3.39175C7.69982 3.57774 6.33657 4.24599 5.29116 5.2914C4.24575 6.33681 3.5775 7.70006 3.3915 9.16675H2.49984C2.27882 9.16675 2.06686 9.25455 1.91058 9.41083C1.7543 9.56711 1.6665 9.77907 1.6665 10.0001C1.6665 10.2211 1.7543 10.4331 1.91058 10.5893C2.06686 10.7456 2.27882 10.8334 2.49984 10.8334H3.3915C3.5775 12.3001 4.24575 13.6634 5.29116 14.7088C6.33657 15.7542 7.69982 16.4224 9.1665 16.6084V17.5001C9.1665 17.7211 9.2543 17.9331 9.41058 18.0893C9.56686 18.2456 9.77882 18.3334 9.99984 18.3334C10.2209 18.3334 10.4328 18.2456 10.5891 18.0893C10.7454 17.9331 10.8332 17.7211 10.8332 17.5001V16.6084C12.2999 16.4224 13.6631 15.7542 14.7085 14.7088C15.7539 13.6634 16.4222 12.3001 16.6082 10.8334H17.4998C17.7208 10.8334 17.9328 10.7456 18.0891 10.5893C18.2454 10.4331 18.3332 10.2211 18.3332 10.0001C18.3332 9.77907 18.2454 9.56711 18.0891 9.41083C17.9328 9.25455 17.7208 9.16675 17.4998 9.16675ZM14.1665 10.8334H14.9248C14.7512 11.8555 14.2641 12.7982 13.531 13.5313C12.798 14.2643 11.8552 14.7514 10.8332 14.9251V14.1667C10.8332 13.9457 10.7454 13.7338 10.5891 13.5775C10.4328 13.4212 10.2209 13.3334 9.99984 13.3334C9.77882 13.3334 9.56686 13.4212 9.41058 13.5775C9.2543 13.7338 9.1665 13.9457 9.1665 14.1667V14.9251C8.14447 14.7514 7.20169 14.2643 6.46864 13.5313C5.73559 12.7982 5.24852 11.8555 5.07484 10.8334H5.83317C6.05418 10.8334 6.26615 10.7456 6.42243 10.5893C6.57871 10.4331 6.6665 10.2211 6.6665 10.0001C6.6665 9.77907 6.57871 9.56711 6.42243 9.41083C6.26615 9.25455 6.05418 9.16675 5.83317 9.16675H5.07484C5.24852 8.14471 5.73559 7.20193 6.46864 6.46888C7.20169 5.73583 8.14447 5.24876 9.1665 5.07508V5.83341C9.1665 6.05443 9.2543 6.26639 9.41058 6.42267C9.56686 6.57895 9.77882 6.66675 9.99984 6.66675C10.2209 6.66675 10.4328 6.57895 10.5891 6.42267C10.7454 6.26639 10.8332 6.05443 10.8332 5.83341V5.07508C11.8552 5.24876 12.798 5.73583 13.531 6.46888C14.2641 7.20193 14.7512 8.14471 14.9248 9.16675H14.1665C13.9455 9.16675 13.7335 9.25455 13.5772 9.41083C13.421 9.56711 13.3332 9.77907 13.3332 10.0001C13.3332 10.2211 13.421 10.4331 13.5772 10.5893C13.7335 10.7456 13.9455 10.8334 14.1665 10.8334ZM9.99984 9.16675C9.83502 9.16675 9.6739 9.21562 9.53686 9.30719C9.39982 9.39876 9.29301 9.52891 9.22994 9.68118C9.16686 9.83345 9.15036 10.001 9.18252 10.1627C9.21467 10.3243 9.29404 10.4728 9.41058 10.5893C9.52713 10.7059 9.67561 10.7852 9.83726 10.8174C9.99891 10.8496 10.1665 10.8331 10.3187 10.77C10.471 10.7069 10.6012 10.6001 10.6927 10.4631C10.7843 10.326 10.8332 10.1649 10.8332 10.0001C10.8332 9.77907 10.7454 9.56711 10.5891 9.41083C10.4328 9.25455 10.2209 9.16675 9.99984 9.16675Z" fill="#444C55"/>
</svg>
