<svg width="16" height="16" viewBox="0 0 16 16" fill="none" xmlns="http://www.w3.org/2000/svg">
<path d="M1.99992 4.66671H13.9999C14.1767 4.66671 14.3463 4.59647 14.4713 4.47144C14.5963 4.34642 14.6666 4.17685 14.6666 4.00004C14.6666 3.82323 14.5963 3.65366 14.4713 3.52864C14.3463 3.40361 14.1767 3.33337 13.9999 3.33337H1.99992C1.82311 3.33337 1.65354 3.40361 1.52851 3.52864C1.40349 3.65366 1.33325 3.82323 1.33325 4.00004C1.33325 4.17685 1.40349 4.34642 1.52851 4.47144C1.65354 4.59647 1.82311 4.66671 1.99992 4.66671ZM1.99992 7.33337H11.3333C11.5101 7.33337 11.6796 7.26314 11.8047 7.13811C11.9297 7.01309 11.9999 6.84352 11.9999 6.66671C11.9999 6.4899 11.9297 6.32033 11.8047 6.1953C11.6796 6.07028 11.5101 6.00004 11.3333 6.00004H1.99992C1.82311 6.00004 1.65354 6.07028 1.52851 6.1953C1.40349 6.32033 1.33325 6.4899 1.33325 6.66671C1.33325 6.84352 1.40349 7.01309 1.52851 7.13811C1.65354 7.26314 1.82311 7.33337 1.99992 7.33337ZM13.9999 8.66671H1.99992C1.82311 8.66671 1.65354 8.73695 1.52851 8.86197C1.40349 8.98699 1.33325 9.15656 1.33325 9.33337C1.33325 9.51018 1.40349 9.67975 1.52851 9.80478C1.65354 9.9298 1.82311 10 1.99992 10H13.9999C14.1767 10 14.3463 9.9298 14.4713 9.80478C14.5963 9.67975 14.6666 9.51018 14.6666 9.33337C14.6666 9.15656 14.5963 8.98699 14.4713 8.86197C14.3463 8.73695 14.1767 8.66671 13.9999 8.66671ZM11.3333 11.3334H1.99992C1.82311 11.3334 1.65354 11.4036 1.52851 11.5286C1.40349 11.6537 1.33325 11.8232 1.33325 12C1.33325 12.1769 1.40349 12.3464 1.52851 12.4714C1.65354 12.5965 1.82311 12.6667 1.99992 12.6667H11.3333C11.5101 12.6667 11.6796 12.5965 11.8047 12.4714C11.9297 12.3464 11.9999 12.1769 11.9999 12C11.9999 11.8232 11.9297 11.6537 11.8047 11.5286C11.6796 11.4036 11.5101 11.3334 11.3333 11.3334Z" fill="#A4A8AB"/>
</svg>
