<svg width="12" height="12" viewBox="0 0 12 12" fill="none" xmlns="http://www.w3.org/2000/svg">
<path d="M9.91667 0.166504H1.75C1.28587 0.166504 0.840752 0.350878 0.512563 0.679067C0.184375 1.00726 1.05512e-07 1.45238 1.05512e-07 1.9165V2.599C-8.35376e-05 2.83989 0.0495637 3.07819 0.145833 3.299V3.334C0.228247 3.52124 0.344979 3.69139 0.49 3.83567L4.08333 7.40567V11.2498C4.08313 11.349 4.1082 11.4465 4.15617 11.5333C4.20415 11.62 4.27343 11.6931 4.3575 11.7457C4.45033 11.8032 4.55745 11.8335 4.66667 11.8332C4.75798 11.8326 4.8479 11.8106 4.92917 11.769L7.2625 10.6023C7.3587 10.5539 7.4396 10.4797 7.49623 10.3881C7.55286 10.2964 7.58301 10.1909 7.58333 10.0832V7.40567L11.1533 3.83567C11.2984 3.69139 11.4151 3.52124 11.4975 3.334V3.299C11.6018 3.07992 11.6594 2.84154 11.6667 2.599V1.9165C11.6667 1.45238 11.4823 1.00726 11.1541 0.679067C10.8259 0.350878 10.3808 0.166504 9.91667 0.166504ZM6.58583 6.75234C6.53177 6.80684 6.489 6.87149 6.45997 6.94256C6.43094 7.01363 6.41622 7.08973 6.41667 7.1665V9.7215L5.25 10.3048V7.1665C5.25044 7.08973 5.23573 7.01363 5.2067 6.94256C5.17767 6.87149 5.1349 6.80684 5.08083 6.75234L1.98917 3.6665H9.6775L6.58583 6.75234ZM10.5 2.49984H1.16667V1.9165C1.16667 1.76179 1.22813 1.61342 1.33752 1.50402C1.44692 1.39463 1.59529 1.33317 1.75 1.33317H9.91667C10.0714 1.33317 10.2197 1.39463 10.3291 1.50402C10.4385 1.61342 10.5 1.76179 10.5 1.9165V2.49984Z" fill="#A4A8AB"/>
</svg>
