<svg width="18" height="18" viewBox="0 0 18 18" fill="none" xmlns="http://www.w3.org/2000/svg">
<path d="M16.4998 2.67507L17.0915 2.09174C17.2484 1.93482 17.3366 1.72199 17.3366 1.50007C17.3366 1.27816 17.2484 1.06533 17.0915 0.908406C16.9346 0.751487 16.7218 0.66333 16.4998 0.66333C16.2779 0.66333 16.0651 0.751487 15.9082 0.908406L14.7415 2.08341L12.3832 4.44174L7.12484 9.69174C6.2632 9.12327 5.22123 8.89488 4.20081 9.05081C3.18039 9.20675 2.25419 9.73592 1.60166 10.5358C0.949131 11.3356 0.616743 12.3492 0.6689 13.3802C0.721057 14.4111 1.15405 15.386 1.88397 16.1159C2.61389 16.8459 3.58877 17.2789 4.61972 17.331C5.65066 17.3832 6.66427 17.0508 7.46413 16.3983C8.26399 15.7457 8.79316 14.8195 8.94909 13.7991C9.10503 12.7787 8.87664 11.7367 8.30817 10.8751L12.9665 6.20841L14.7332 7.98341C14.8109 8.06056 14.903 8.12165 15.0043 8.1632C15.1056 8.20474 15.2141 8.22592 15.3236 8.22554C15.4331 8.22515 15.5415 8.2032 15.6425 8.16094C15.7435 8.11868 15.8352 8.05694 15.9123 7.97924C15.9895 7.90154 16.0506 7.80941 16.0921 7.7081C16.1337 7.60679 16.1549 7.49829 16.1545 7.38879C16.1541 7.2793 16.1321 7.17095 16.0899 7.06994C16.0476 6.96892 15.9859 6.87722 15.9082 6.80007L14.1415 5.03341L15.3248 3.85841L15.9082 4.44174C15.9853 4.51944 16.077 4.58118 16.178 4.62344C16.279 4.6657 16.3874 4.68765 16.4969 4.68804C16.6064 4.68842 16.7149 4.66724 16.8162 4.6257C16.9175 4.58415 17.0096 4.52306 17.0873 4.44591C17.165 4.36876 17.2268 4.27705 17.269 4.17604C17.3113 4.07503 17.3332 3.96668 17.3336 3.85719C17.334 3.74769 17.3128 3.63919 17.2713 3.53788C17.2297 3.43657 17.1687 3.34444 17.0915 3.26674L16.4998 2.67507ZM4.83317 15.6667C4.33872 15.6667 3.85537 15.5201 3.44424 15.2454C3.03312 14.9707 2.71269 14.5803 2.52347 14.1234C2.33425 13.6666 2.28474 13.164 2.38121 12.679C2.47767 12.1941 2.71577 11.7486 3.0654 11.399C3.41503 11.0493 3.86049 10.8112 4.34544 10.7148C4.8304 10.6183 5.33306 10.6678 5.78988 10.857C6.24669 11.0463 6.63714 11.3667 6.91184 11.7778C7.18655 12.1889 7.33317 12.6723 7.33317 13.1667C7.33317 13.8298 7.06978 14.4657 6.60094 14.9345C6.1321 15.4033 5.49621 15.6667 4.83317 15.6667Z" fill="#A4A8AB"/>
</svg>
