<svg xmlns="http://www.w3.org/2000/svg" viewBox="0 0 8067.48 5292.99"><defs><style>.cls-1{fill:#2e3130;}.cls-2{fill:#2e3230;}.cls-3{fill:#c4dddb;}.cls-4{fill:#b8bec0;}.cls-5{fill:#1b1e1d;}.cls-6{fill:#d3e7e6;}.cls-7{fill:#babdbe;}.cls-8{fill:#252323;}.cls-9{fill:#3a3a39;}</style></defs><g id="Layer_2" data-name="Layer 2"><g id="Layer_1-2" data-name="Layer 1"><path class="cls-1" d="M2729.44,3530.1c.72-3,2.08-6,2.07-8.94A350.92,350.92,0,0,1,2747,3416.81c10.15-33.34,1.69-59.92-21.59-84.08a242.41,242.41,0,0,1-25.78-32.36c-20.64-30.47-39.54-62.12-63.83-90a77.67,77.67,0,0,1-11.94-19.58c-12.5-28.22-30.06-53.4-46.34-79.39-8.1-12.94-16.54-26.23-21.36-40.53-7.43-22.05-18.45-42-29.54-62.14-10.35-18.8-20-37.73-23.67-59.53-2-11.79-8.09-23.05-13.25-34.12-14.3-30.68-26.45-61.89-32.1-95.58-2.26-13.44-7.66-26.47-12.54-39.35-7.64-20.18-13.2-40.57-15.29-62.28a219,219,0,0,0-11-49.25,153.76,153.76,0,0,1-8.47-54.21c.59-23.22-1.86-45.93-9.42-68-5.53-16.19-6.2-33.12-6.32-50.06-.24-33.73,1-67.48-2.16-101.16a142.3,142.3,0,0,1,.19-27.61,500,500,0,0,0,2-78.15c-1.15-21.72,2.9-42.87,7.87-63.78,4.63-19.48,7.93-38.85,7.53-59.08a179.82,179.82,0,0,1,9.92-63.26c6-17.17,7.92-35.89,10.29-54.09,1.79-13.77,3.2-27.48,8.77-40.3,12.29-28.28,18.28-58.46,27-87.83,4.34-14.65,7.94-29.88,14.81-43.35a317.78,317.78,0,0,0,23.31-59.83,213.76,213.76,0,0,1,25.8-58.73c11.65-18.16,20.69-37.56,28.33-57.67,1.63-4.3,2.83-8.89,5.17-12.77,27.74-45.92,50-95.12,82.36-138.28,8.28-11,15.83-22.65,23-34.43,16-26.3,34-50.9,55.78-72.93,12.87-13,23.65-28.21,34.6-43,14.66-19.82,30.65-38.17,49.45-54.33,12.73-10.94,24.2-23.52,35.18-36.28,17.09-19.85,35.08-38.32,56.69-53.57,13.64-9.63,25.39-22.13,37.19-34.12,15.13-15.38,30.92-29.45,49.57-40.78,15.63-9.48,29.87-21.46,43.93-33.27,18.85-15.84,38.21-30.53,60.2-42,16.23-8.49,31.43-19.13,46.37-29.83a409.88,409.88,0,0,1,71.5-41.38c15.37-6.87,30.77-13.91,45.38-22.25,48.06-27.44,99.17-48.15,150.24-68.94,12.72-5.18,26.1-8.76,39.16-13.12,10.18-3.4,21-5.61,30.37-10.55,27.5-14.52,57-22.07,87.24-27.57,9-1.65,18.36-3.28,26.7-6.88C3621,871,3656,866.41,3690.47,859.38c9-1.83,18-3.51,27-5.73,31.29-7.8,62.58-15,95.25-13.91a118.46,118.46,0,0,0,32-3.26c24.13-6,48.57-7.22,73.16-6.8a435.74,435.74,0,0,0,68.83-4.32c15.07-2.13,30.89-3.28,45.81-1.09,32.12,4.73,64.28,4.26,96.49,5,26,.61,52-.17,77.55,7.87,11.38,3.58,24.32,3.33,36.52,3,24.9-.59,49.05,4,72.55,10.89a245.54,245.54,0,0,0,44.95,8.86A368.66,368.66,0,0,1,4450,879.89c14.37,5.17,29.14,10.07,44.15,12.38,23,3.54,44.39,11.25,65.92,19.42q40.77,15.45,82.4,28.56c14.74,4.63,29,9.69,42.17,17.82,6.5,4,13.13,8.53,20.34,10.55,55.22,15.5,101.61,49.57,153.27,72.52a166.38,166.38,0,0,1,31.69,18.46,609.5,609.5,0,0,0,73.61,47c24.42,13.28,44.77,31.75,66.15,49-27.48,72.65-60.31,142.88-96.15,211.74-1.37,2.63-3.86,4.67-5.83,7-4.46-1-9.42-1.08-13.3-3.16-23.09-12.39-48-19.78-72.86-27.31-5.61-1.7-11.94-6.52-16.82-.77-6.69,7.89,1.29,13.48,5,19.66,5.46,9.2,10.32,18.76,15.88,27.89,3.95,6.49,8.08,13,13.1,18.68,47.92,54,64.77,66.25,131.78,96.59,4.17,1.89,8.35,4.07,12.76,5s9.09.68,13.64.52c9.37-.32,16.07-12.34,11.07-20.47-8-13-17.49-25.14-24.68-38.54-11.12-20.75-27.58-36.07-46-49.77,1.3-2.69,2.09-5.81,4-8q67.8-80.17,142-154.46A41.33,41.33,0,0,1,5114,1232c2.16-1,5.61.2,8.36.89a78.92,78.92,0,0,1,8.39,3.07c7.32,12.35,20.12,18.53,30.84,27a298.25,298.25,0,0,1,46.22,44.56c12.6,15.3,27.11,29.14,41.63,42.72,16.88,15.78,32.39,32.41,45.22,51.81a239,239,0,0,0,29.09,35.38,310,310,0,0,1,42.41,54.18c9.7,15.6,19.45,31.3,30.67,45.8,18.84,24.32,36.23,49.22,48.53,77.71,5.39,12.48,14.16,23.6,22.05,34.88,12.35,17.69,23.3,36.2,30.29,56.55a299.8,299.8,0,0,0,27.59,57.94,225.16,225.16,0,0,1,24.73,59.07,232.47,232.47,0,0,0,18.37,46.89,240.21,240.21,0,0,1,22.68,64.83,382.87,382.87,0,0,0,18,61.63c7.06,18.64,12.31,37.69,13.36,57.94.63,12.12,3.36,24.34,6.74,36,9.82,33.92,18,68,17.61,103.65-.11,10.61,1.75,21.52,4.47,31.83,6.34,24.05,7.1,48.46,6.83,73-.12,10.73-.91,21.55.13,32.18,4.6,47.52,2.41,95,.14,142.5-1.1,22.92-4.43,45.73-6.52,68.6-1.54,16.8-3.1,33.6-3.94,50.44-1.14,23.12-4.64,46-12,67.73-7.43,22-11.52,44.54-14,67.35a186.37,186.37,0,0,1-13.77,53.17,229.57,229.57,0,0,0-16.42,57.23c-2.67,18.2-9.16,35.37-17.09,52.18-7.79,16.53-13.72,34-19.86,51.25-7.2,20.21-14.93,40-25.15,59.06-13.73,25.6-25.63,52.23-37.39,78.83-6.86,15.51-14.46,30.43-24.68,43.94a289,289,0,0,0-32.58,55.34c-7.62,16.78-16.54,32.89-29.32,46.47-14.82,15.75-26.28,33.81-36.88,52.56-9.82,17.36-20.16,34.46-35.08,48.13-29.24,26.78-35,60.45-25.93,96.83,6,23.88,9.65,48.05,14.24,72.1,1.73,9,2.82,18.17,4.21,27.26-.44,24.32-11.5,40.52-35.58,47.09-20.64,5.64-41,12.7-61.86,17.13-29.95,6.35-60.2,11.45-90.48,16-28.78,4.35-57.71,8.07-86.69,10.78-47.31,4.42-94.73,7.79-142.1,11.63-6.11.5-12.21,1.24-18.33,1.72-27.51,2.17-55,4.36-82.53,6.37-15.3,1.12-30.63,1.85-45.93,2.83-32.14,2.06-64.26,4.33-96.4,6.2-21.44,1.24-43,1-64.35,3.11-48.94,4.81-98,5.18-147.1,6.52-35.27,1-70.52,2.57-105.78,3.83-41.39,1.49-82.77,4-124.17,4.17q-188.71.87-377.44.15c-32.2-.08-64.41-1.57-96.6-2.78-42.92-1.62-85.81-4.15-128.74-5.28-56.74-1.49-113.5-1.63-170.1-7-19.82-1.9-39.85-1.57-59.76-2.67q-101.07-5.55-202.13-11.46c-6.11-.35-12.17-1.57-18.28-2.11q-29.79-2.61-59.6-5c-12.23-1-24.53-1.24-36.72-2.57-48.75-5.33-97.59-10.14-146.18-16.71-47-6.35-94.18-12.62-139.78-26.65-10.24-3.15-20.46-6.4-30.53-10.05-13.83-5-23.69-13.71-25.77-29.35C2732.82,3535.52,2730.74,3532.86,2729.44,3530.1Zm1302.71-2156c-9.22,0-18.45-.28-27.66,0-38.13,1.34-76.85-4.92-114.09,8.59a12.05,12.05,0,0,1-4.58.28c-20.2-1.14-39.34,3.74-58.81,8.5-22.18,5.42-45.47,6.35-67.58,12-23.69,6-46.57,15.28-69.82,23.07-11.62,3.89-23.46,7.22-34.9,11.58-24.31,9.28-49.24,17.44-72.44,29-39.75,19.84-80.06,38.45-117.87,62.44-53.65,34-75.91,48.28-121.77,89.41-5.66,5.08-12.33,9-18.36,13.71-7.24,5.62-15.09,10.74-21.31,17.36-26.18,27.88-57.61,51-77.07,85-1.49,2.6-3.93,4.71-6.11,6.87-15.26,15.14-30.69,30.13-40.75,49.54-31.9,35.85-52.8,78.74-76.23,119.94-11.37,20-21.27,40.88-31.06,61.72-15.64,33.3-30.35,67.2-39.87,102.67-4.35,16.21-7.43,33.23-13.94,48.41-7.53,17.56-3.31,36.88-11.66,53.72-4.65,33.19-16.48,65.34-13.43,99.69,1.21,13.72.36,27.56-5.55,40.7-3.23,7.2-2.56,15.08.67,22.39,5.13,11.62,5.07,23.89,5.05,36.2,0,23.05,1.66,46.25-.33,69.12-3.27,37.39,10.43,72.63,11.36,109.34,18.26,66.36,32.79,133.94,64.22,196a88,88,0,0,1,7,17c4,15.1,11.26,28.29,20.16,41,7,10,11.95,21.39,18.12,32,6.93,11.9,13.91,23.8,21.41,35.34,12.51,19.27,26.24,37.79,38,57.51,8,13.41,18.05,24.62,28.26,36.11s17.16,25.73,28.06,36.15c38.74,37,71.79,80.21,117.63,109.61,2.54,1.63,4.59,4.08,6.74,6.27,19.49,19.75,43.53,33.61,65.26,50.45,37.73,29.24,81.51,48.6,121.56,74.08,11.51,7.32,24.94,11.66,37.58,17.17,9.82,4.28,20.15,7.55,29.6,12.51,16.39,8.61,33.55,15,51.09,20.69,18.95,6.13,37.79,12.62,56.69,18.94,42.16,14.1,95.94,25.87,143,31.34,4.57.53,9.59.26,13.57,2.12,17.49,8.17,36,6.63,54.39,6.78,10.75.08,21.51.19,32.27,0,24.56-.48,49.05-.4,72.69,7.7,25.07-9.71,51.32-7.46,77.33-7.67,9.22-.08,18.46.29,27.65-.2,7.61-.41,15.72-.37,22.64-3,13.3-5.12,26.84-5.84,40.71-6.15,7.62-.16,15.42-.67,22.78-2.47,35.59-8.69,71.85-14.54,107-25,16.12-4.79,32.31-9.44,48.16-15,18.77-6.6,37.21-14.14,55.81-21.24,7.15-2.72,14.58-4.83,21.45-8.13,63.62-30.55,127.23-61.11,184.32-103.35,61.59-45.58,58.48-38.81,102.76-84.28,21.44-22,43.48-43.45,65.13-65.26,20.5-20.65,40-41.89,57.69-65.35,25.89-34.33,47.41-71.45,72.85-105.95,26.66-51.85,53.53-103.7,73.31-158.63,13.47-37.41,27.2-75,34.54-114.2,5.61-29.91,15.7-59.32,13.55-90.47a19,19,0,0,1,1.48-9c8.9-18.89,7.07-39,7.13-58.92q.15-50.71,0-101.42c-.12-22.94,2.16-46.12-7.36-68.15-1.74-4-1.93-9.13-1.54-13.63,2.42-28.14-10.9-53.93-11.82-81.53a1123,1123,0,0,0-60.86-178c-28.44-64.78-66-124.48-105.21-183.2-18.37-18.58-29.44-42.94-48.82-60.83-47.26-43.65-87.18-95.16-141-131.8-12.09-14.3-28.43-23.13-43.26-34-43.41-31.72-91.1-56.43-137.1-83.88-11.75-7-25-11.54-37.65-17-7-3-14.54-5.07-21.25-8.64-24.54-13-50.77-21.35-77-30.08a1070.28,1070.28,0,0,0-142-36.5c-19.6-3.67-38.71-8.78-58.84-8.31-4.51.11-9.51-.39-13.51-2.26-16-7.51-33-6.4-49.84-6.45C4084.39,1374.06,4058.27,1374.12,4032.15,1374.11Z"/><path class="cls-2" d="M1751.9,1624.72q0,391.65,0,783.31,0,20.73.51,41.45c.19,7.9,6.34,13.5,15,13.68,12.29.27,24.58.27,36.86.27q133.62,0,267.25,0c12.29,0,24.58-.06,36.86.15,11.68.19,17.63,5.53,18,15.81.18,4.6.2,9.21.2,13.82q0,212,0,423.91c0,6.14-.44,12.27-.75,18.41-.11,2.37-7.15,8.17-10,8.25-13.79.39-27.58,1.16-41.36,1.18q-133.63.17-267.25.07c-12.29,0-24.58,0-36.86.25-11.23.27-17.89,6.19-18.13,16.23-.32,13.81-.32,27.64-.32,41.46q0,258,0,516.07c0,9.21.07,18.43,0,27.64-.36,44.88,4.23,42.08-42.15,42.08q-221.17,0-442.34-.07c-10.69,0-21.38-1-32.07-1.45-2.92-.13-9.45-6.22-9.51-8.88-.29-13.81-.73-27.63-.73-41.44q-.08-267.26-.11-534.5c-.08-64.94,7.27-57.29-55.24-57.32q-520.66-.26-1041.34-.08c-10.76,0-21.51,0-32.26,0-48.93-.21-47.47,4.39-52.74-46-5-47.32-10.73-94.54-16.09-141.82q-4.93-43.46-9.72-86.94C11.68,2616.92,5.66,2563.54.15,2510.1a35.7,35.7,0,0,1,3.07-17.69c4.46-9.73,10.28-18.84,15.79-28Q239.89,2095,460.81,1725.61q270.53-452.34,541-904.69c4.72-7.9,10-15.55,13.88-23.85,6.19-13.22,16.85-16.78,30.16-16.28,6.13.23,12.28,0,18.42,0q322.55,0,645.09,0c45.07,0,42.53-2.78,42.53,42.17Q1751.92,1223.84,1751.9,1624.72ZM876.5,1906.61q-155.43,258.3-310.83,516.61c-7.91,13.15-15.62,26.41-22.86,39.93-.77,1.41,2.17,7,3.61,7.07,12.23.79,24.52,1.18,36.77.91,96.67-2.13,193.33-5.21,290-6.45,101.32-1.3,202.68-.88,304-1.23,13.82,0,27.64-.07,41.45-.32,9.54-.17,14.13-4.54,14.3-13.61.27-13.82.36-27.64.36-41.45q0-513.66,0-1027.33c0-13.82,0-27.64-.3-41.45,0-3-1.1-6-1.62-9s-2.19-3.6-4.41-.88c-4.6,5.67-9.61,11.16-13.36,17.38Q1045,1626.61,876.5,1906.61Z"/><path class="cls-2" d="M7694,1627.73q0,389.36,0,778.7c0,13.82,0,27.65.22,41.47.18,11.19,4.76,15.23,17.43,15.41,12.29.18,24.58.13,36.87.13q133.62,0,267.24,0,18.43,0,36.85.43c7.65.17,14.13,6.74,14.46,14.65.31,7.66.41,15.35.41,23q0,202.72,0,405.47c0,9.2.12,18.53-1.39,27.53-.58,3.49-5.25,8.56-8.52,8.94-12.15,1.4-24.49,1.46-36.75,1.48q-135.93.14-271.86.06c-12.29,0-24.58,0-36.86.22-12.1.25-17.57,5.07-17.8,15.87-.31,13.82-.27,27.65-.27,41.47q0,262.63,0,525.28c0,13.82.08,27.65-.1,41.47-.2,14.56-4.52,18.85-19.13,19.24-7.67.21-15.35.17-23,.17q-221.18,0-442.34,0c-10.74,0-21.57.14-32.17-1.25-3.27-.43-8.16-5.53-8.45-8.83-1.2-13.73-1.16-27.59-1.17-41.4q-.08-258,0-516.06c0-9.22.07-18.43,0-27.65-.49-51.15,6.06-48.55-50.75-48.54q-534.49.09-1069,0c-15.34,0-30.68-.51-46-1a13,13,0,0,1-12.16-11.35q-9.07-75.42-18-150.88-8-68.6-15.71-137.24c-4.54-41.2-8.08-82.51-13.3-123.62-2.29-18,2.79-32.84,11.8-47.79q83.12-138,165.63-276.37Q6482.75,1590.4,6845.38,984q52-86.91,103.76-174,5.89-9.85,12.13-19.51a19.5,19.5,0,0,1,15.29-9c9.16-.73,18.4-.74,27.6-.75q324.85,0,649.69.08a243.83,243.83,0,0,1,31.9,2.6c2.32.3,4.8,3.61,6.11,6.11a20.27,20.27,0,0,1,1.8,8.75c.25,13.82.3,27.64.31,41.46Q7694,1233.77,7694,1627.73Zm-518.43,265q0-258.13,0-516.28c0-13.82-.22-27.65-.14-41.47,0-3.55-1.42-6.15-5.24-5.79a11.29,11.29,0,0,0-7.42,4c-4.4,6.25-8,13-12,19.62q-47.42,79-94.87,157.9Q6778,1972.3,6500,2433.87c-5.54,9.2-10.63,18.66-15.84,28.06-1.77,3.2,2.61,9.19,6.69,9.2,10.74,0,21.49.39,32.22.15,96.73-2.19,193.44-5.28,290.18-6.51,102.93-1.32,205.88-.89,308.82-1.23,12.29,0,24.59,0,36.87-.3a19.52,19.52,0,0,0,8.84-2.07c2.44-1.36,5.6-4,5.81-6.33,1.11-12.15,1.85-24.37,1.86-36.57Q7175.65,2155.52,7175.55,1892.77Z"/><path class="cls-3" d="M5130.71,1235.92a78.92,78.92,0,0,0-8.39-3.07c-2.75-.69-6.2-1.93-8.36-.89a41.33,41.33,0,0,0-10.79,8.17q-74.28,74.22-142,154.46c-1.87,2.21-2.66,5.33-4,8-6.92,5.53-13.45,11.74-21,16.3-3.23,2-9.36,2-12.63.19s-6.5-7.55-5.83-10.75c2.41-11.54,6.49-22.73,9.93-34.06,2-2.32,4.46-4.36,5.83-7,35.84-68.86,68.67-139.09,96.15-211.74,12.12-31.44,25.22-62.55,36-94.45a322,322,0,0,1,22.35-50.4c7.07-13,3.78-24-3.11-34.45-5.85-8.89-13.3-16.8-20.53-24.68-21.8-23.76-29.52-53-33.5-83.84-4.7-36.49,6.07-70.59,20.47-102.57,13.2-29.32,32.32-55.9,64-69.75,15.45-6.76,30.49-14.47,45.93-21.28,16-7.06,17.53-11.46,8.14-27.26-2.34-4-4.32-8.27-7.3-11.69-19.16-22-21.88-50.17-28.55-76.67-2.12-8.42-.73-18.59,1.81-27.15a331.21,331.21,0,0,1,17.74-47.28c15.71-33.22,39.7-58,75.91-69,4.32-1.33,8.39-3.52,12.51-5.43,3.89-1.82,6.68-8.13,5.12-11.63-2.5-5.58-4.69-11.35-7.82-16.56-4.72-7.87-10.46-15.14-15.2-23-13-21.5-19.66-44.4-18.42-70,1.19-24.5-.67-49.11,10.1-72.29,23.35-50.29,59.07-86.46,115.74-94.49,27-3.83,55.1-5.28,82.09,4.16,6.49,2.28,12.84-.7,16.33-5.69,9.68-13.86,19.47-27.4,31.91-39.07,17.58-16.49,37.36-26.51,62-25.58,10.74.4,21.53-.41,32.26.14,25,1.28,48.34,7.39,67.21,25.34,3.29,3.13,7,6.66,11.13,7.84,3.9,1.12,8.83.05,12.88-1.34,2.58-.88,5.13-3.7,6.42-6.29,9.81-19.75,26.61-33.5,41.22-49.2,20.12-21.62,45.47-30.27,74-31.61,7.66-.36,15.37.18,23-.17,37.8-1.73,67.95,14,94.82,39.32,20.7,19.53,35.14,41.78,42.58,69.53,6.16,23,7.54,45.25-.08,67.7C5923,194,5916,211,5910.06,228.34c-.75,2.19.84,6.71,2.79,8,7.55,5.13,15.29,10.34,23.66,13.85,33.5,14,54.13,39.89,66.12,72.79,6.25,17.13,9.89,35.32,13.39,53.28,1.41,7.26.58,15.56-1.47,22.75-5.88,20.65-12.33,41.28-24,59.56-5.72,9-11.68,18.58-19.81,25-27.78,22.12-57.48,40.92-94.68,42.49-3.07.13-6.14.29-9.19.62-12.42,1.35-17.28,10.83-12,23.5q2.67,6.38,5.73,12.57c13.91,28.07,18.29,57.62,19.18,89,1.18,41.44-9.85,78.38-28.38,114.54-14.43,28.17-34.35,50.13-60.75,67.44-15.48,10.15-30.94,20-47.93,27.21-22.72,9.62-46,16.71-71.25,15.4-18.39-.95-36.86-.48-55.28-1-8.73-.23-17.71-6.82-26,1.45-6,6-4.87,14.1-7,21.29-17.88,61.11-57.41,100.45-119.78,114.57-19.37,4.38-39.61,3-59.13-3.43-7.63-2.51-14.23,5.68-12.37,14.22a45.5,45.5,0,0,0,2.52,8.8c6.76,15.32,4.67,29.89-3.12,44.19-3.67,6.73-7,13.68-10.39,20.55a42.42,42.42,0,0,1-19.2,19.17c-8.21,4.18-16.31,8.62-24.73,12.33-19.24,8.47-38.73,8.36-58.11.35-8.49-3.52-16.51-8.6-25.29-10.81-5.33-1.34-12.5,0-17.4,2.72-6.56,3.63-11.73,9.76-17.48,14.84-9.2,8.11-17.45,17.8-27.8,24-17.52,10.52-30.09,26.08-45,39.27C5134.7,1208.94,5130.44,1221.38,5130.71,1235.92ZM5712.89,409.7h-.07c0-3.07-.13-6.14,0-9.2.8-15.41-6.93-26.56-18.7-34.86-21.38-15.07-44.17-21-68.93-7.73-2.7,1.44-5.74,2.29-8.34,3.86-11.32,6.86-22.54,7.53-35,2.27-20.06-8.47-39-3.57-56.87,7.39-6.73,4.14-11.82,9.71-13.53,17.69-1,4.49-1.3,9.11-2.32,13.58-3.21,14-12,21.37-26.36,17.33a155.59,155.59,0,0,0-26.94-4.59c-42.25-4.17-86.7,44.65-84.16,80.59,1,13.71,0,27.41,4.62,40.87,3,8.69-2.26,16.19-10.83,15.63-24.14-1.57-45,7-65.3,18.47-19.16,10.77-34.06,26.07-46.12,43.94-7.76,11.48-12.17,24.54-11.47,39,.44,9.14.39,18.59-1.58,27.43-1.21,5.39-5.83,10.58-10.13,14.54-3.14,2.89-8.12,4.16-12.5,5.25-25.23,6.29-42.41,23.8-58.86,42.17-9.36,10.47-16.4,23-17.34,36.86-1.67,24.73-10.05,47.72-16.08,71.3-2.75,10.79-3.68,20.94.37,31.43a150.56,150.56,0,0,1,5.83,17.4c3.23,12.8,11.85,21.25,22.27,28.12,20.49,13.49,43.18,16.94,65.87,8.72,14.54-5.27,23.35-.21,32.4,9.15,5.33,5.51,11.43,10.37,16.2,16.31,10.48,13.06,26.36,14.61,40.39,20.21,11.51,4.6,20.72-3.32,30.85-5.68,8.81-2.05,17.37-6,25.44-10.29,15.83-8.38,32.24-10.58,48.75-4,12.3,4.87,23.05,3.42,35.45-.16,16.14-4.65,32-7.44,45.94-18.75,18.69-15.19,28.9-34.25,37-56.37,6.5-17.77,3-32.8-3.15-48.76-2.76-7.13-5.51-14.47-6.54-22-.51-3.68,1.81-9.91,4.75-11.52,9.33-5.12,20.39-7.31,29.3-13,27.18-17.28,46.23-40.09,45.1-74.77-.35-10.72-.08-21.49-1-32.15-.67-7.47-5.65-15.56-3.86-22,2.74-9.88,15.07-8.66,22.92-12.9,9.44-5.09,19.4-9.23,28.76-14.46,16.35-9.16,30.72-22,39.49-37.72,13.53-24.25,20.89-51.06,11.34-79.38-3.92-11.59-8.12-23.09-12-34.71-3.15-9.5-1.11-18.07,5.43-25.6,3-3.47,5.94-7,9.16-10.31,8.06-8.24,10.73-18.28,10.34-29.45C5712.8,415.83,5712.89,412.76,5712.89,409.7Z"/><path class="cls-4" d="M2729.44,3530.1c1.3,2.76,3.38,5.42,3.76,8.3,2.08,15.64,11.94,24.32,25.77,29.35,10.07,3.65,20.29,6.9,30.53,10.05,45.6,14,92.76,20.3,139.78,26.65,48.59,6.57,97.43,11.38,146.18,16.71,12.19,1.33,24.49,1.61,36.72,2.57q29.82,2.34,59.6,5c6.11.54,12.17,1.76,18.28,2.11q101.05,5.85,202.13,11.46c19.91,1.1,39.94.77,59.76,2.67,56.6,5.4,113.36,5.54,170.1,7,42.93,1.13,85.82,3.66,128.74,5.28,32.19,1.21,64.4,2.7,96.6,2.78q188.71.45,377.44-.15c41.4-.18,82.78-2.68,124.17-4.17,35.26-1.26,70.51-2.86,105.78-3.83,49.07-1.34,98.16-1.71,147.1-6.52,21.35-2.1,42.91-1.87,64.35-3.11,32.14-1.87,64.26-4.14,96.4-6.2,15.3-1,30.63-1.71,45.93-2.83,27.52-2,55-4.2,82.53-6.37,6.12-.48,12.22-1.22,18.33-1.72,47.37-3.84,94.79-7.21,142.1-11.63,29-2.71,57.91-6.43,86.69-10.78,30.28-4.57,60.53-9.67,90.48-16,20.89-4.43,41.22-11.49,61.86-17.13,24.08-6.57,35.14-22.77,35.58-47.09,5.54,2.6,11,7.26,16.64,7.43,32.27,1,63.13,11.92,95.68,11.92,24.39,0,48.17,8,72.55,11,25.68,3.15,51,10.11,76.14,16.7,20.68,5.42,41.71,10.49,60,22.68,12.57,8.38,12.93,27-.18,34.9-9.11,5.52-18.74,10.87-28.85,13.93-23.43,7.09-47,14.4-71.06,18.62-43.64,7.66-86.87,18.47-131.44,20.16-33.7,12.13-70.24,5-104.34,15.63-9.92,3.08-21.35,1.38-32.09,1.81-21.43.84-42.68,1-63.94,6.43-14.55,3.74-30.52,1.91-45.86,2.55-21.42.88-42.84.07-63.9,6.65-9.95,3.12-21.3,2.16-32,2.35-30.73.55-61.46.7-92.19,1.09-19.92.25-39.74-.3-59.37,5.63-10,3-21.29,2.22-32,2.36-44.55.6-89.11.87-133.67,1.31-18.4.19-36.58.51-54.83,5.14-13.12,3.33-27.42,2.54-41.2,2.67-72.21.64-144.43.94-216.64,1.48-18.39.14-36.63,0-54.86,4.93-11.6,3.11-24.34,2.54-36.58,2.59q-184.38.69-368.76.94c-101.41,0-202.82-.44-304.23-.79-18.38-.06-36.59-.18-54.86-4.77-13.14-3.3-27.41-2.69-41.18-2.82-73.75-.67-147.5-1-221.25-1.51-16.87-.11-33.56-.39-50.26-4.72-11.66-3-24.32-2.81-36.55-3-46.09-.65-92.18-.84-138.28-1.29-15.34-.15-30.51-.63-45.62-4.89-10.14-2.86-21.22-3-31.9-3.23-26.11-.64-52.24-.6-78.36-.95-19.92-.27-39.73.07-59.32-6-10-3.09-21.28-2.13-32-2.58-24.48-1-49.05.22-73-7.43-8.5-2.72-18.27-1.58-27.47-1.94-16.86-.67-33.86.07-50-6.23a24.48,24.48,0,0,0-9-1.71c-32.37.55-63.95-5.86-95.83-10.09-57.62-7.65-115.38-14.47-171.73-29.26-16.24-4.27-32-10.71-47.6-16.95-5.51-2.2-10.36-6.43-15-10.34-6.1-5.14-6.43-20.32-.11-25.26,7.16-5.6,14.74-11.25,23-14.71,27-11.25,55.52-17.09,83.93-23.45,29.88-6.69,60.67-8.07,90.3-16.22,7.27-2,15.23-1.56,22.88-2.06,9.2-.61,19,.83,27.49-1.87C2674.23,3530.77,2702,3532.67,2729.44,3530.1Z"/><path class="cls-2" d="M1459,4948.06c-1-32.44,2.65-64.33,14.47-94.74,28.9-74.38,90.94-118.69,172.73-122.51a229.1,229.1,0,0,1,63.74,6c59,13.92,97.83,49.63,116.45,106.1,20.31,61.55,19.95,123.74-4.27,184.49-25.21,63.27-72.63,102-138.76,114.93-40.86,8-82.5,5.56-122.08-10.29-37.18-14.89-64.15-40.75-81.72-76.8-13-26.66-18.57-55-20.48-84.24C1458.57,4963.41,1459,4955.72,1459,4948.06Zm85.63-14.09c0,38.92,3.09,58.65,12.46,80.17,22.43,51.53,75,71.63,130.44,50.66,34.57-13.06,51.73-41.5,60.49-75.68,8.94-34.89,7.54-70.07-.74-104.71-3.14-13.12-9.47-25.87-16.3-37.66-24.36-42-76.38-50.21-112.67-38.52-29.46,9.5-49.66,29.18-61.92,57.47C1546.39,4888.74,1543.76,4912.88,1544.62,4934Z"/><path class="cls-2" d="M1147.73,4939.52q0-87.35,0-174.67a99.27,99.27,0,0,1,1.46-18.16c.46-2.44,3.23-4.62,5.33-6.49,1-.9,2.88-1.06,4.39-1.14,50.44-2.81,100.81-6.53,151.37-.19,14,1.76,27,5.74,39.68,10.64,37.72,14.53,58.86,43.15,64.35,82.52,7.13,51-12.92,99.89-60.67,122.84-5.48,2.64-11.1,5-16.61,7.58-3.75,1.77-5,7.47-2.61,11.41,3.22,5.18,6.52,10.32,9.85,15.43q43.9,67.32,87.78,134.65c5.13,7.89,1.12,13.68-9.6,13.84-13.79.2-27.58.19-41.37.16-9.19,0-18.38-.26-27.57-.36-6.78-.08-11.8-3.74-15.13-9-17.33-27.07-34.34-54.34-51.45-81.55-12.22-19.43-24.38-38.91-36.71-58.28-1.55-2.45-3.64-5.06-6.13-6.28a11.83,11.83,0,0,0-8.45-.69c-2.23.84-5.07,3.86-5.16,6-.81,18.32-1.23,36.67-1.43,55-.31,27.57-.3,55.14-.56,82.71a11.74,11.74,0,0,1-11.63,11.57c-16.83.41-33.68.78-50.51.68-15.4-.1-18.55-3.31-18.59-19q-.18-89.64,0-179.27Zm81.12-81.52h.49c0,15.21-.09,30.42,0,45.63,0,6.28,5.07,12.18,10.69,12.2,13.63,0,27.45,1,40.85-.82,34.42-4.75,49.9-31,47.9-61.12-1.4-21.08-10.55-38.17-31.43-46.21a71.6,71.6,0,0,0-22.08-4.55c-49.25-2.21-46.46-3.89-46.46,41.18C1228.86,4848.87,1228.85,4853.44,1228.85,4858Z"/><path class="cls-2" d="M1897.65,4937.1q0-83,0-165.92a199.06,199.06,0,0,1,1.06-22.92,9.67,9.67,0,0,1,9-8.82c53.61-3.9,107.25-7.39,160.83.43a130.36,130.36,0,0,1,55.08,21.86c24.09,16.49,38.06,39.68,40.43,69.1a314.12,314.12,0,0,1,.73,32.19c-.88,38.66-20.13,66.66-51.58,87.32-2.55,1.67-6.08,2.15-8.12,4.2-6.22,6.26-18.16,3.07-21.69,13.42,4.56,7.89,8.82,16,13.73,23.63q43.5,67.8,87.25,135.44a6.26,6.26,0,0,1-4.52,9.6c-6.09.52-12.21,1.37-18.3,1.25-21.44-.43-42.87-1.21-64.3-1.85-16.48-14.46-24.86-34.59-36.34-52.5-19-29.71-37.19-60-56.12-89.77-3.11-4.9-8.23-8.57-12.65-12.55a4.79,4.79,0,0,0-4.3-.6c-2.52,1.2-6.57,2.9-6.75,4.72-1,10.66-1.43,21.41-1.55,32.13-.4,36.85-.57,73.69-.9,110.53,0,3.74-5.07,9-8.75,9-21.42-.18-42.83-.37-64.23-1.06-2.24-.08-5.79-3.2-6.28-5.45a86.85,86.85,0,0,1-1.65-18.24Q1897.57,5024.67,1897.65,4937.1Zm117.16-134.9c-33.22.59-36.09-1.4-35.53,33.18.3,18.3,0,36.61.08,54.91,0,4.58.15,9.15.37,13.72.3,6.54,4.86,10.79,11.16,12,13.77,2.65,27.42,1.11,41-.81,47.69-6.73,60.38-60.28,37.6-91.33-7.42-10.11-17.58-17-30-19.22C2030.46,4803.06,2021.25,4802.81,2014.81,4802.2Z"/><path class="cls-2" d="M992.6,4965.91c2.79,5.39,5.09,11,8.32,15.92q46.32,71.17,92.87,142.21c5.07,7.78,1.08,13.51-9.53,13.77-9.19.22-18.39.16-27.58.14-13.79,0-27.59.18-41.36-.38a18,18,0,0,1-15.22-8.71q-35.25-56.51-70.82-112.78c-7.34-11.6-15-23-23.18-34.05-1.19-1.63-5.83-1.69-8.48-1-2.36.64-5.77,3.2-6,5.17-1,10.63-1.45,21.34-1.51,32-.21,35.25-.12,70.49-.28,105.74,0,8.67-5,13.5-14.51,13.44q-29.76-.19-59.49-1.54c-2.16-.09-4.9-3.17-6.07-5.52-1.3-2.59-1.5-5.92-1.5-8.93q-.13-181.6-.12-363.21c0-3.06-.39-6.34.55-9.13,1.35-4,1.71-9.08,8-9.53,52-3.65,103.85-7.1,155.91-.54a146.93,146.93,0,0,1,55.95,19.08c28.6,16.58,43.86,42.2,46.68,74.74,1.58,18.24,2.32,36.76-2.94,54.77-8.14,27.81-25.34,48.68-49.85,63.5C1013.42,4956.58,1003.5,4960.57,992.6,4965.91ZM890,4859.25h.41c0,15.3-.11,30.6,0,45.89.07,6.27,4.94,11,11.75,11,13.72,0,27.48-.08,41.13-1.16,5.87-.46,11.88-2.83,17.21-5.54,27.35-13.86,37.62-44.36,25.79-74.42-6.79-17.26-19.76-27.2-37.28-30.36-11.95-2.15-24.36-2.18-36.56-2.27-19.72-.15-22.21,2.85-22.47,24.72C889.86,4837.83,890,4848.54,890,4859.25Z"/><path class="cls-2" d="M494,4936.24q0-82.82,0-165.63c0-7.66.42-15.32.76-23,.13-3,6.15-8.16,9.55-8.39,4.58-.31,9.17-.77,13.76-.77q98.91-.07,197.84,0a45.17,45.17,0,0,1,13.54,1.75c2.37.76,5.57,3.92,5.63,6.07q.64,25-.11,50.14c-.06,2.16-3.37,5.68-5.58,6a152.42,152.42,0,0,1-22.81,1.69c-39.87.29-79.74.19-119.6.87-3.38.06-9.48,4.78-9.57,7.49-.85,26-.69,52.06-.75,78.1,0,2.44,7.05,7.73,10.18,7.76q41.4.32,82.79.69c13.79.14,27.58.36,41.36.77,6.6.19,12.83,5.25,12.84,10.69,0,15.21-.34,30.42-.65,45.63-.07,3.65-2.21,5.78-5.86,6.12-9.09.84-18.17,2.16-27.27,2.28-33.73.46-67.46.45-101.19.75-6.24,0-12.3,5.29-12.32,10.77q-.13,41.37.14,82.73c0,5.82,5.77,11,12,11.06,39.87.2,79.75.22,119.62.48,7.61.06,15.46,0,22.74,1.85,3.42.85,6.86,5.58,8.29,9.32,1.56,4.09,1,9.06,1.05,13.64.14,44.11,3.31,42.9-42,42.77-55.21-.17-110.42,0-165.63-.08-9.18,0-18.37-.46-27.55-.82-5.62-.23-10.68-5.92-10.8-12.2-.22-10.73-.4-21.46-.41-32.19Q493.9,5014.46,494,4936.24Z"/><path class="cls-2" d="M3173.69,4842.35c18.14,0,42.65-.07,67.17.06,4.76,0,10,7,10.15,13.12.36,12.41-1.16,21-16.68,21.56-6.08.2-12.13,1-18.19,1.64-4.13.4-5.65,2.38-4.57,5.78,2.79,8.74,6.06,17.35,8.31,26.22,15.45,61.05-17.71,123.71-83.29,135-18.34,3.15-36.3,6.3-54.59,1.63-12.72-3.25-20.07,3.86-26.9,12.6-7.75,9.92-2.49,26.32,10,29a288.46,288.46,0,0,0,36.3,5.33c22.9,1.9,45.86,3.38,68.82,4.31,17.39.71,33,6.57,47.57,15.17,21,12.44,33.56,30.9,35.61,55.73.37,4.58.58,9.18.71,13.77,1.05,37.38-16.6,64.09-47.33,83.59-21.18,13.43-45,19.62-69.08,23.51-32.08,5.19-64.23,2.88-95.27-7.84-13.09-4.53-25.24-11.12-35.56-20.55-14.08-12.88-22.36-28.41-24.31-47.91-2.77-27.72,5.32-51.42,23.09-72.19a164.87,164.87,0,0,1,16.21-16.27c4.76-4.21,2.13-8,.22-11.88-1.35-2.7-3.64-4.91-5.29-7.49-13-20.44-11.45-40.41,2.27-59.81,2.65-3.75,5.92-7,8.75-10.67,3-3.83,3.86-7.81-.05-11.66a109.29,109.29,0,0,1-29.66-50.92c-16.85-63.61,25.74-126.31,91.29-132.88,13.62-1.37,27.49-.74,41.23-.43C3142.81,4840.1,3155,4841.21,3173.69,4842.35Zm-57.34,291.75c0,.13,0,.26,0,.39-10.71-.56-21.46-.68-32.12-1.8-13.22-1.39-24.07,2.75-33.08,12.2-4.22,4.42-8.57,8.77-12.31,13.57-25.35,32.55-14.26,74.29,24,90.17,7,2.9,14.37,6.34,21.69,6.66,19.87.86,40.17,2.59,59.62-.44,29.87-4.66,54.81-18.05,65.85-49.74,8.35-24-6.05-54.56-26.08-61.87-8.65-3.15-16.83-7.06-26.25-7.36C3143.9,5135.44,3130.13,5134.71,3116.35,5134.1Zm-7.6-118.13c3.05,0,6.1.07,9.14,0,24-.69,57.79-20.65,61.42-57.38,1-10.47.41-21.19-.28-31.75-.94-14.36-8.4-25.69-18-36-8.67-9.33-19.7-14-31.46-17.65-33.85-10.41-70.06,4.24-85.09,35.6-10.38,21.67-8.7,44.36-1.73,66.82.43,1.41,1.58,2.58,2.32,3.91C3059,5004.37,3080.2,5016.68,3108.75,5016Z"/><path class="cls-2" d="M2380.25,5064.81c0-62.79-.09-125.59.1-188.38a184.21,184.21,0,0,1,2.45-27.23c.34-2.27,3.65-5.52,5.9-5.8a110.22,110.22,0,0,1,22.6-.64c4.42.38,8.49,3.31,9,8.68.76,7.58,1,15.24,2.32,22.72.25,1.46,5.44,3.81,6.45,3.09,7.34-5.26,14.15-11.24,21.19-16.92a94.69,94.69,0,0,1,59.29-21.39c7.63-.14,15.28.24,22.91.64,37.35,2,62.92,21.95,79.06,54.23a138.25,138.25,0,0,1,12.28,39.15,269.76,269.76,0,0,1,.31,87c-8.45,51.84-34.39,91.38-84.81,111.08a181.17,181.17,0,0,1-71.9,12.38c-12.23-.39-24.46-.94-36.68-1.38-3.32-.12-8.73,4.94-8.76,8.4-.23,26-.37,52.06-.57,78.09q-.16,23-.42,45.93c-.05,6-4.92,10.34-12.25,10.6-6.07.21-12.17-.16-18.25-.47a9.94,9.94,0,0,1-9.42-8.45c-1.17-7.5-.8-15.26-.81-22.92Q2380.21,5159,2380.25,5064.81Zm41.3-30.85c0,18.43-.11,36.87,0,55.3.07,7.1,6.81,14.24,14.05,16.08,18.11,4.62,36.56,4,54.94,3.24,40.85-1.78,73.8-26.25,85.51-65.46,12.12-40.62,12.54-81.89-.14-122.61-5.1-16.4-14.15-31.19-29.75-39.62-25-13.47-49.91-12.64-74,3.2a87.21,87.21,0,0,0-25.71,26c-14.39,22.36-23.41,46.64-24.83,73.23C2420.81,5000.13,2421.54,5017.07,2421.55,5034Z"/><path class="cls-2" d="M7509.25,4921.57q0,101.16,0,202.3c0,8.77-4.94,13.53-14.26,14.06a121.64,121.64,0,0,1-13.77,0c-9.46-.53-13.46-4.19-14.87-13.45-.68-4.5-.91-9.07-1.62-13.56-.66-4.17-7.07-6.15-10.47-3-15.88,14.76-33.23,26.53-54.5,32.72-52.79,15.37-108.13-10.84-127.29-62-5.87-15.67-10.41-31.93-10.88-49.13-.88-32.23-1.38-64.16,9.36-95.4,19.38-56.32,63.42-90.59,123.27-93.56,19.85-1,39.8-.07,59.71-.05,6.27,0,11.67-4.88,11.72-10.89.23-30.65.29-61.3.58-91.94.07-7.64.08-15.39,1.42-22.86.74-4.16,3.45-8.72,8.86-9.27a140.19,140.19,0,0,1,18.17-1.16c8,.23,14,6.65,14.16,14.92q.54,27.57.54,55.15.09,73.56,0,147.12Zm-43.72,25.15h.71q0-13.76,0-27.52c0-47.71,2.73-39-41.84-45.52-13.26-1.94-27.35.75-40.94,2.36-26,3.09-45.28,17-58.95,38.95a110.27,110.27,0,0,0-16.05,42.54c-4.23,28.92-4.76,58,.37,86.76a115.43,115.43,0,0,0,12.44,34.18c7.46,13.7,19.22,24.75,34.64,28.29,24.87,5.71,48.52,2.47,68.43-15.83,10.26-9.42,19-19.81,25.12-32.36,8.76-18,15.67-36.55,16-56.84C7465.76,4983.4,7465.53,4965.06,7465.53,4946.72Z"/><path class="cls-2" d="M2903.73,5030.65c0,30.69.09,61.39-.05,92.08,0,11.64-4.16,15.12-17.54,15.35a76.22,76.22,0,0,1-13.77-.66c-4.72-.79-8.36-3.83-9-8.77-.84-6-.92-12.15-1.36-18.23-.27-3.63-2.87-5.36-6.34-3.12-7.61,4.89-14.63,10.68-22.09,15.82-22.14,15.24-46.51,22.75-73.59,21.38a87.91,87.91,0,0,1-43.29-13.82c-25.72-16.41-35.86-41.57-34.44-70.94,1.52-31.54,17-55.35,45.61-69.44,25.13-12.37,52.43-16.55,80-18.81,7.62-.63,15.34-.25,23-.15,38.39.5,34.64-3.27,30.9-37.37-5.27-48.17-27.57-64.25-79-61.51a220.87,220.87,0,0,0-67.31,13.94c-7.6,2.92-14.58-3.94-14.43-12.88.24-14.43,4.1-19.46,16.69-23.49,35.66-11.44,72.1-13.76,109.08-9.48,39,4.52,68,31.75,74.06,70.56,2.12,13.58,2.6,27.5,2.82,41.28.43,26.08.13,52.17.13,78.26Zm-131.65,77.94c18.87,1.52,35.4-5.35,50.4-17.05,23-18,34.24-42.5,39.54-70.42,1.66-8.73-2.73-15.32-11.47-15.3-21.44,0-42.88.54-64.32.84-11,.15-20.89,4-30.71,8.5-23.06,10.53-32.26,26.28-30.1,51C2727.38,5088.69,2748.29,5109.88,2772.08,5108.59Z"/><path class="cls-2" d="M4011.63,5032.39c0,30.63.07,61.27,0,91.91,0,8.59-5.13,13.32-14.7,13.59a124.26,124.26,0,0,1-18.3-.7c-5.08-.61-7.74-4.77-8.53-9.3s0-9.2-.4-13.76c-.69-7.21-6.33-9-12.65-4.3-8.55,6.41-16.45,13.95-25.7,19.08-29.36,16.3-59.82,21.27-92.52,8.9-38.9-14.71-50.74-48-48.7-79.81,2.14-33.53,19.72-57.16,50.87-70.29,25.7-10.83,52.73-15.31,80.43-16.33,13.76-.5,27.56-.45,41.3-1.31,2.34-.15,6.19-3.49,6.42-5.65,2.06-20,1.57-39.7-6.79-58.58-6.56-14.83-16.46-25.17-32.76-29.33-16.52-4.22-32.73-6.83-49.84-3-19.33,4.35-39.32,5.55-58,13-5.09,2-11.78-4.26-12-10.38-.73-17.43,2.33-22,17.77-26.43,8.82-2.54,17.49-6.17,26.49-7.35,27.36-3.57,54.82-5.54,82.43-1.72,40.18,5.57,63.68,33.6,70.2,63.48,3.57,16.32,4.55,33.38,5.07,50.16.8,26,.21,52.08.21,78.13Zm-79.73-27.7c-13.57.71-25.81,1.74-38.05,1.87-12.73.14-24,5-35,10.25-20.55,9.72-30.24,30.46-25.62,53.62,4.12,20.65,23.88,38.47,45.36,38.49,19.33,0,36.07-5.26,51-17.11,24.16-19.15,36.63-44.53,39.92-74.82.46-4.16-3.38-10-7-10.25C3951.92,5006,3941.27,5005.31,3931.9,5004.69Z"/><path class="cls-2" d="M5144.59,4995.44c-27.57,0-55.13-.08-82.69.06-7,0-11.54,4.93-11.86,11-1.06,20.49,4.81,39.48,13.57,57.41,13.16,26.95,35.9,41.6,65.37,43.94,24.37,1.93,48.88,2.21,72.79-5.77,8.54-2.84,18-3.25,27.08-3.88,2-.15,5.59,3,6.23,5.32,1.21,4.31,1,9.06,1,13.63.1,6.91-3.83,12.68-9.63,14.2-43.11,11.29-86.11,19.44-131,7.06-46.59-12.85-72.12-43.82-82.94-88.73-8.72-36.2-9.73-72.79-.63-109.23,10.54-42.22,32.28-75.65,73.92-93.26,23.31-9.86,47.54-9.36,72.17-7.29,12.63,1.05,23.8,5.21,34.77,10.71,23.07,11.58,39,30.25,47.18,54,8,23.12,12.79,47.31,9.51,72.28-1.32,10.08-8,17.27-17.57,17.68-6.12.26-12.25.26-18.38.26q-34.45,0-68.92,0Zm-18.95-33.78,0-.83c21.42,0,42.86.3,64.28-.1,14.48-.28,17.06-2.16,16-20.14-.72-12.6-4.94-24-10.62-34.84a55.52,55.52,0,0,0-21.9-23c-29.47-16.59-59.47-17.24-89.72,6.55-20.23,15.91-29.82,38.12-31.69,63.66-.27,3.79,1.52,6.18,4.92,6.31C5079.86,4960.13,5102.75,4960.87,5125.64,4961.66Z"/><path class="cls-2" d="M7814.15,5029.26q0,48.24,0,96.49a11.3,11.3,0,0,1-11.24,11.66,149.74,149.74,0,0,1-22.82-.45,9.88,9.88,0,0,1-9-8.84c-.51-4.53,0-9.17-.51-13.72-.61-5.92-4.86-8.86-8.46-6.25-9.86,7.15-19.15,15.31-29.69,21.28-31.07,17.58-63.62,21.35-96.83,6.28-25.73-11.68-40.17-31.68-42.82-60.35-3.42-37,7.66-70.85,55.39-89.64,23-9.05,47.13-12.76,71.61-14.24,10.69-.64,21.44,0,32.16-.24,17.08-.31,20.67-4.34,19.45-22.47-.71-10.69-.86-21.64-3.41-31.94-5.06-20.42-16-35.76-38.46-40.88-15.12-3.44-29.89-6.54-45.31-2.71-17.75,4.42-36.25,4.62-53.71,11.5-15.11,5.95-21.36-1.28-18.49-19.43,1-6.13,3.27-11.5,10.14-13.78a254,254,0,0,1,113.24-11c37.08,4.7,61.5,24.35,72.2,60.81a156.7,156.7,0,0,1,6.81,45.2c-.11,27.57,0,55.15,0,82.72Zm-79-24.69-43.51,2.47c-14.18.81-26.36,7.31-38.15,14.27-6.56,3.86-11.18,10-14.6,17.11-11.78,24.66-.11,52.79,19.11,64.13,2.6,1.53,5.23,3.35,8.09,4,13.58,3.27,27.39,3.54,40.63-.91,37.18-12.5,62.57-50,62.89-91.84,0-3.77-1.39-6.13-5.15-6.51C7753.89,5006.25,7743.36,5005.34,7735.1,5004.57Z"/><path class="cls-2" d="M7179.71,5027.78c0,29.13.1,58.25,0,87.37-.1,21.32-2.36,23.3-23.59,23-6.31-.08-13.5-.37-16.25-6-2.48-5.1-1.36-11.92-2-18-.49-4.68-6.14-8.13-9.37-5.74-6.11,4.52-12.15,9.15-18.15,13.82-12.32,9.58-26.65,15.11-41.38,19.15a96.32,96.32,0,0,1-67.27-5.56c-17.23-7.92-30-20.46-37.51-38.47-16.22-39.07-2.69-82.58,33.69-103.77,11.77-6.85,24.29-12.32,38.19-14.94,22.64-4.28,45.13-8.29,68.34-7.52,9,.3,18.19-.93,27.17-2.26,2.17-.33,5.16-3.59,5.6-5.92,4.15-21.84-.61-42.79-9.19-62.58-4.92-11.34-14.25-19.54-27.11-23-17.93-4.82-35.53-7.83-54.33-3.7-19.34,4.26-39.14,6.26-58.05,12.65-5.61,1.9-11.18-3.67-11.39-10.59-.08-3.06-.5-6.19,0-9.17,1-6.17,3.22-12,9.72-14.3A249.75,249.75,0,0,1,7109,4841.41c27.44,4.28,47.69,20.32,59.71,45.43a110.91,110.91,0,0,1,10.8,49c-.19,30.65-.05,61.3-.05,91.95Zm-82.32-22.19,0-.82c-12.18.66-24.36,1.56-36.56,1.9-14.24.41-26.91,6-38.63,12.94-12.31,7.3-19.95,18.72-20.51,33.74-.18,4.55,0,9.12.22,13.67,1.39,25,24.48,42.12,45.94,42,21-.15,38.6-6.84,54.16-20.46,20.53-18,31.3-40.77,34.72-67.52,1.1-8.64-3.45-15.14-11.85-15.36C7115.7,5005.41,7106.54,5005.59,7097.39,5005.59Z"/><path class="cls-2" d="M4828.51,4989.52c1.88,23.19-2.81,47.37-11.86,70.31-19.49,49.41-58.83,81.06-120.43,84.41a139.37,139.37,0,0,1-36.53-2.66c-49.61-10.7-81-40.58-93.34-90.37-10.59-42.84-10-85.38,4.89-126.79,13.65-38,39.7-64.94,78.35-78.95,17.71-6.42,36.12-7.21,54.41-6.72,15.16.4,30.45,1.05,45.24,6.72,33.73,12.94,55.94,36.66,68.74,69.85C4827,4938.63,4829.22,4963,4828.51,4989.52Zm-41.53-.66c-1.94-14.87-2.38-30.41-6.2-45.08-9.48-36.46-29.93-62.57-69.57-70.37-33.61-6.61-69.29,6.42-87.53,35.77-7.13,11.47-13.1,24.45-16.07,37.55a199.57,199.57,0,0,0,.23,91c12,50,48.13,72.77,87.87,71.37,35.66-1.25,60.68-17.1,76.78-48.49C4784.05,5038.05,4784.11,5013.44,4787,4988.86Z"/><path class="cls-2" d="M5332.59,4988.16c0-44.48-.09-89,.07-133.44,0-8.65,5-12.84,15-13a83.75,83.75,0,0,1,18.12,1.4c2.32.48,5.46,3.86,5.73,6.21,1,9.07,1.05,18.26,1.49,27.4.07,1.53.34,3.05.52,4.57a66.77,66.77,0,0,0,8.38-1.66c1.33-.43,2.43-1.85,3.42-3,30.22-34.94,69.3-42.46,112.7-36.28,28.18,4,47.95,19.3,58.24,45.77a122.15,122.15,0,0,1,8.52,44.93c-.23,64.43-.1,128.86-.2,193.28,0,8.89-4.65,13.27-14.6,13.56a89.71,89.71,0,0,1-18.23-1.26c-4.45-.81-8.61-3.6-9-8.71-.62-7.63-.68-15.32-.69-23-.06-46,.21-92-.17-138.06-.14-16.84-1.39-33.7-2.85-50.49-.95-10.95-6-20.59-13.32-28.72a36.73,36.73,0,0,0-10.6-8.46c-26-12.67-50.59-8.12-73.75,7.27-20,13.29-31.86,32.92-39.19,55.18a195.66,195.66,0,0,0-9.62,63.36c.31,33.75.12,67.5,0,101.25a206.35,206.35,0,0,1-.92,22.94c-.56,4.88-4.47,7.95-9.38,8.06a151.44,151.44,0,0,1-22.75-.92c-2.35-.3-5.67-3.48-6.14-5.82a92.18,92.18,0,0,1-1.33-18.14q-.15-62.13-.05-124.26Z"/><path class="cls-2" d="M6158.41,4981.28c-.21,32.91-2.68,57.21-12.48,80.27-22,51.7-61.89,78.37-117.08,82.69a139.26,139.26,0,0,1-50-5.45c-44.12-12.71-70-41.84-82.06-84.85-11.05-39.39-11.15-78.86.56-118.08,12.54-42,37.4-72.88,79.31-89.4,17.79-7,36-7.68,54.22-7.69,16.64,0,33.42,1,49.65,7.49,44.38,17.84,66.52,52.32,74.57,97.35C6157.84,4958.64,6157.83,4974.14,6158.41,4981.28ZM5932.88,5002c-.5,16.33,3.59,40,14.95,62.46,21.76,42.95,70.85,53.26,110.12,38.29,26.42-10.07,41.38-30.61,50.07-56.12,12.76-37.44,11.75-75.31,0-112.77-11.92-38-43.08-61.44-81.71-62.64-33.63-1-66.48,19.73-80.79,50.71C5935,4944.69,5932.8,4968.88,5932.88,5002Z"/><path class="cls-2" d="M3474,4991.5c0-41.45-.09-82.9.11-124.35a71.62,71.62,0,0,1,2.55-17.94c.64-2.37,3.78-5.44,6.11-5.75a164.63,164.63,0,0,1,22.66-1,10.15,10.15,0,0,1,9.94,7.93c1.68,7.39,1.92,15.11,2.88,22.67.19,1.5.91,4.19,1.37,4.18a33,33,0,0,0,8.73-1.2c1.33-.37,2.39-1.87,3.43-3,30.21-32.39,68.15-38.55,109.78-32.59,31.52,4.51,56.4,28.06,61.79,59.54a166.37,166.37,0,0,1,2.44,27.47q.22,99-.1,198c0,6.64-4.64,11.86-11,12.17-6.1.28-12.23-.07-18.35-.15-5.21-.06-9.31-3.13-9.88-7.6-1.17-9.08-1.09-18.35-1.11-27.54-.08-52.2-.2-104.4,0-156.59.07-15.6-2.32-30.5-8.39-44.88-5-11.92-13.44-19.17-25.53-24.55-27.61-12.28-67,4-83.26,23.77-17.07,20.77-27.16,44.46-29.64,71.05-1.41,15.25-1.2,30.66-1.33,46-.31,36.84-.35,73.68-.61,110.51,0,5.51-4.46,7.74-8.74,9a44,44,0,0,1-27.12-.78c-2.45-.87-5.39-3.87-5.81-6.29-1-6-.94-12.21-.95-18.34Q3473.91,5051.37,3474,4991.5Z"/><path class="cls-2" d="M4248.43,4988.85c0-38.38-.07-76.75.07-115.13,0-7.62,0-15.48,1.8-22.76.87-3.46,5.7-7.37,9.44-8.33,5.75-1.47,12.13-.88,18.21-.59,6.72.33,12,4.88,12.68,10.85s.5,12.25,1.46,18.26c.36,2.24,2.65,4.43,4.56,6,.85.71,3.31.46,4.41-.28a46,46,0,0,0,6.84-6c29.7-29.92,66.15-36.14,106.15-30.74,34.1,4.61,58.88,28.3,64,62.46a187.51,187.51,0,0,1,2.18,27.49q.22,96.72-.21,193.43c0,4.08-2,10.6-4.89,11.79-10,4.17-20.83,5-30.79-.69-2.1-1.19-3.89-4.89-3.91-7.45-.4-47.58-.51-95.16-.68-142.74-.05-15.35-.29-30.7-.1-46.05.18-14.17-3.84-27.32-9.39-40-4.45-10.17-11.71-17.48-22.73-21.27-30.35-10.44-61.82-2.69-83.55,21.61-17.94,20.07-27.92,43.92-30.78,70.48-1.47,13.69-1.42,27.58-1.52,41.38-.27,38.37-.24,76.75-.41,115.12a11.63,11.63,0,0,1-11.5,11.55c-7.57.26-15.3.3-22.72-1-4.05-.7-8.27-3.44-8.26-9.31q.15-69.08.06-138.15Z"/><path class="cls-2" d="M6237.8,4987.6c0-38.31-.07-76.62.07-114.94a159.21,159.21,0,0,1,1.66-22.78c.36-2.45,3.26-6.31,5.21-6.45a176.54,176.54,0,0,1,27.21.2c2,.17,5,4,5.38,6.5,1.14,7.53,1.11,15.22,1.78,22.83.31,3.53,8.11,5.93,11,3.47,2.3-1.93,4.54-4,6.68-6.06,27.12-26.78,60.18-33.58,97.11-31.19,38.58,2.49,69.39,26.86,74.38,73.22a304.59,304.59,0,0,1,1.25,32.13c.12,56.71,0,113.41.08,170.11,0,22-1.36,24.29-27.86,23.06-6.88-.32-12.08-5-12.1-11.05-.16-46-.13-91.95-.37-137.92-.08-15.32-.43-30.65-1.34-45.93a211.49,211.49,0,0,0-3.77-27.28c-6.28-32.67-32.26-49.45-64.19-42.71-42.91,9.07-64.39,38.74-74.92,78.07a217.26,217.26,0,0,0-7.2,59.14c.53,38.31.09,76.62,0,114.94,0,8.37-5,12.5-15.1,12.87-3.06.11-6.13.12-9.19,0-10.36-.28-15.26-4.13-15.46-12.35-.22-9.19-.28-18.38-.29-27.57Q6237.77,5042.78,6237.8,4987.6Z"/><path class="cls-2" d="M6672.77,5143.17c-24,1.35-37.32-2.33-50.46-6.64-17.28-5.67-28.69-17.51-33.7-34.81-5.13-17.75-6.94-36-6.76-54.56.46-46,.19-92,.11-138,0-7.65-.47-15.31-.83-23-.14-3.13-5.88-8.62-9.13-8.72-12.25-.39-24.51-.57-36.76-1-13.57-.51-18.74-6.22-18.7-20.29,0-8.73,5.14-14.36,13.56-14.82,4.59-.25,9.19-.51,13.78-.52,42,0,37.84,3.16,38.14-40.77.11-15.33.23-30.67.75-46,.23-6.6,4-11.82,10.19-13.82,7.23-2.31,14.82-3.51,22.3-5,3.69-.74,9.25,4,9.3,8,.31,23,.49,46,.77,69,.08,6.12.32,12.25.57,18.38.15,3.82,4.9,9.37,8.25,9.43,21.46.36,42.92.56,64.38.95,7.7.13,12.16,3.51,13.67,9.54,2,7.8,1.65,15.29-4,21.45a12.38,12.38,0,0,1-7.72,3.8c-12.24.61-24.5.66-36.76.82-40.58.56-38.58-4.83-38.46,40.71.12,39.88,0,79.76.07,119.64,0,10.72.15,21.49,1,32.17,2.18,26.23,15.71,34.42,39,36.66,11.9,1.15,24.23-2.59,36.41-3.53,2.49-.19,5.93,1.61,7.63,3.61,5,5.84,5.54,21.44,1.21,26-2,2.11-4.47,4.59-7.11,5.18C6690.1,5140,6676.56,5142.43,6672.77,5143.17Z"/><path class="cls-2" d="M5819.22,4878.25c-19.14-1.53-35.37-5.69-52.63-3.6-34.26,4.14-56.78,23.24-68.36,53.85-16.26,43-16.46,87.3-.73,130.55,11.08,30.48,36.25,44.62,67.19,48.19,18.25,2.1,36.6,1.16,54.64-4.31,8.6-2.6,18-2.82,27.12-3.22,2.15-.1,5.93,3.08,6.45,5.33,1.72,7.46,2.16,15.28-1.83,22.3-1.39,2.43-3.93,5.38-6.39,5.86-25.45,5.07-50.62,11.74-77.06,10.62a168.45,168.45,0,0,1-57.88-12.86c-33.8-14.05-52.18-41.89-60.69-76.11a233.22,233.22,0,0,1,.29-113.88c11.47-45.82,37.45-80,84.18-95.2,1.45-.47,2.8-1.38,4.28-1.63,35-6,69.9-7.83,104.2,4.37,6.69,2.38,9.65,7.14,9.63,13.76a84,84,0,0,1-1.5,18.1c-.45,2-4.36,4.15-7,4.59-2.78.47-5.95-.78-8.83-1.67C5828.51,4881.5,5822.77,4879.44,5819.22,4878.25Z"/><path class="cls-2" d="M6787.33,4988.84c0-38.35-.08-76.69.07-115A223.73,223.73,0,0,1,6789,4851a9.88,9.88,0,0,1,9.2-8.68,105.18,105.18,0,0,1,22.84.68c2.34.29,5.71,3.5,6.13,5.83,1.36,7.47,1.52,15.15,2.26,22.74.13,1.35.85,3.8,1.2,3.78,2.85-.15,6.43.16,8.36-1.42,4.71-3.87,8.47-8.86,12.93-13.06,15.13-14.24,33.12-21.58,53.95-22.21,7.8-.24,18-1.12,20.86,5.69,3.23,7.82,1.32,17.95.68,27-.13,1.9-4.26,4.54-6.88,5-6,1.09-12.17,1.12-18.29,1.48-19.83,1.14-34.47,11.42-46.12,26.6a99.35,99.35,0,0,0-17.55,37.16c-5.43,22.33-9.91,44.77-9.52,68.11.63,38.33.12,76.68,0,115,0,8.93-4.48,12.66-14.87,13.15-3.06.14-6.14.13-9.2,0-12.85-.37-17.45-4.29-17.5-15.64-.14-35.28-.09-70.56-.11-105.83Q6787.32,5002.64,6787.33,4988.84Z"/><path class="cls-2" d="M3366.06,4988.31c0,41.21.08,82.43-.1,123.64a78.48,78.48,0,0,1-2.17,17.94c-.57,2.36-3.59,5.5-5.84,5.82a182.51,182.51,0,0,1-22.45,1.21c-5.32.08-8.2-3.79-9.31-8.17s-1-9-1-13.58q-.07-123.63,0-247.28c0-4.57.36-9.14.65-13.71.43-6.71,4.71-11.48,11.18-11.82a105.19,105.19,0,0,1,18.19.17c4.6.55,8.53,3.64,9.17,8.58a183.64,183.64,0,0,1,1.63,22.71C3366.15,4912,3366.07,4950.14,3366.06,4988.31Z"/><path class="cls-2" d="M3345.34,4721.38c15.56-.28,28.71,12.24,27.94,29.16-.7,15.14-10.64,25.66-25.57,26.4-17.45.86-30.32-10-30.84-26.1C3316.36,4735.41,3329.79,4721.53,3345.34,4721.38Z"/><path class="cls-5" d="M4032.15,1374.12c26.12,0,52.24-.06,78.37,0,16.86,0,33.82-1.06,49.84,6.45,4,1.87,9,2.37,13.51,2.26,20.13-.47,39.24,4.64,58.84,8.31a1070.28,1070.28,0,0,1,142,36.5c26.23,8.73,52.46,17.06,77,30.08,6.71,3.57,14.23,5.6,21.25,8.64,12.64,5.47,25.9,10,37.65,17,46,27.45,93.69,52.16,137.1,83.88,14.83,10.84,31.17,19.67,43.26,34,53.83,36.64,93.75,88.15,141,131.8,19.38,17.89,30.45,42.25,48.82,60.83,39.17,58.72,76.77,118.42,105.21,183.2a1123,1123,0,0,1,60.86,178c.92,27.6,14.24,53.39,11.82,81.53-.39,4.5-.2,9.6,1.54,13.63,9.52,22,7.24,45.21,7.36,68.15q.24,50.71,0,101.42c-.06,19.9,1.77,40-7.13,58.92a19,19,0,0,0-1.48,9c2.15,31.15-7.94,60.56-13.55,90.47-7.34,39.17-21.07,76.79-34.54,114.2-19.78,54.93-46.65,106.78-73.31,158.63-25.44,34.5-47,71.62-72.85,105.95-17.69,23.46-37.19,44.7-57.69,65.35-21.65,21.81-43.69,43.24-65.13,65.26-44.28,45.47-41.17,38.7-102.76,84.28-57.09,42.24-120.7,72.8-184.32,103.35-6.87,3.3-14.3,5.41-21.45,8.13-18.6,7.1-37,14.64-55.81,21.24-15.85,5.58-32,10.23-48.16,15-35.17,10.46-71.43,16.31-107,25-7.36,1.8-15.16,2.31-22.78,2.47-13.87.31-27.41,1-40.71,6.15-6.92,2.66-15,2.62-22.64,3-9.19.49-18.43.12-27.65.2-26,.21-52.26-2-77.33,7.67-23.64-8.1-48.13-8.18-72.69-7.7-10.76.2-21.52.09-32.27,0-18.38-.15-36.9,1.39-54.39-6.78-4-1.86-9-1.59-13.57-2.12-47-5.47-100.81-17.24-143-31.34-18.9-6.32-37.74-12.81-56.69-18.94-17.54-5.67-34.7-12.08-51.09-20.69-9.45-5-19.78-8.23-29.6-12.51-12.64-5.51-26.07-9.85-37.58-17.17-40.05-25.48-83.83-44.84-121.56-74.08-21.73-16.84-45.77-30.7-65.26-50.45-2.15-2.19-4.2-4.64-6.74-6.27-45.84-29.4-78.89-72.58-117.63-109.61-10.9-10.42-17.94-24.77-28.06-36.15s-20.3-22.7-28.26-36.11c-11.72-19.72-25.45-38.24-38-57.51-7.5-11.54-14.48-23.44-21.41-35.34-6.17-10.58-11.13-22-18.12-32-8.9-12.75-16.17-25.94-20.16-41a88,88,0,0,0-7-17c-31.43-62.06-46-129.64-64.22-196-.93-36.71-14.63-71.95-11.36-109.34,2-22.87.3-46.07.33-69.12,0-12.31.08-24.58-5.05-36.2-3.23-7.31-3.9-15.19-.67-22.39,5.91-13.14,6.76-27,5.55-40.7-3.05-34.35,8.78-66.5,13.43-99.69,8.35-16.84,4.13-36.16,11.66-53.72,6.51-15.18,9.59-32.2,13.94-48.41,9.52-35.47,24.23-69.37,39.87-102.67,9.79-20.84,19.69-41.72,31.06-61.72,23.43-41.2,44.33-84.09,76.23-119.94,10.06-19.41,25.49-34.4,40.75-49.54,2.18-2.16,4.62-4.27,6.11-6.87,19.46-34,50.89-57.13,77.07-85,6.22-6.62,14.07-11.74,21.31-17.36,6-4.69,12.7-8.63,18.36-13.71,45.86-41.13,68.12-55.37,121.77-89.41,37.81-24,78.12-42.6,117.87-62.44,23.2-11.57,48.13-19.73,72.44-29,11.44-4.36,23.28-7.69,34.9-11.58,23.25-7.79,46.13-17,69.82-23.07,22.11-5.62,45.4-6.55,67.58-12,19.47-4.76,38.61-9.64,58.81-8.5a12.05,12.05,0,0,0,4.58-.28c37.24-13.51,76-7.25,114.09-8.59C4013.7,1373.83,4022.93,1374.11,4032.15,1374.12ZM3074.4,2361.6c-3.69,73.48,3.89,138.68,19,203.41,25.07,107.24,67,206.9,128.77,298.17,58.29,86.09,130.54,158.68,213.12,221.3q266,201.75,600,197.87c55.28-.64,110.07-7.86,164.72-16.46,91.51-14.4,179.27-40.71,262.23-81.71,215.45-106.49,367.54-273.15,462.16-492.82,36.12-83.85,54.5-172.44,59.69-263.55,5.45-95.76-5-190.19-28.24-283-38.11-152.18-111.26-285.24-221.62-397.16q-144.08-146.1-333.93-224.6c-92.64-38.38-189-62.52-289.6-67.68-10.73-.56-21.43-2-32.16-2.29-23-.71-46.18-2.87-69-1-45.83,3.76-91.8,4.92-137.47,12.49-51.56,8.55-102.31,19.56-152,35.31-209.78,66.5-374.5,193.79-498.65,374-94.78,137.57-142.58,291-147,458C3074.12,2344.11,3074.4,2356.4,3074.4,2361.6Z"/><path class="cls-5" d="M4927.7,1374.29c-3.44,11.33-7.52,22.52-9.93,34.06-.67,3.2,2.71,9,5.83,10.75s9.4,1.77,12.63-.19c7.51-4.56,14-10.77,21-16.3,18.46,13.7,34.92,29,46,49.77,7.19,13.4,16.68,25.55,24.68,38.54,5,8.13-1.7,20.15-11.07,20.47-4.55.16-9.25.4-13.64-.52s-8.59-3.11-12.76-5c-67-30.34-83.86-42.59-131.78-96.59-5-5.66-9.15-12.19-13.1-18.68-5.56-9.13-10.42-18.69-15.88-27.89-3.67-6.18-11.65-11.77-5-19.66,4.88-5.75,11.21-.93,16.82.77,24.87,7.53,49.77,14.92,72.86,27.31C4918.28,1373.21,4923.24,1373.29,4927.7,1374.29Z"/><path class="cls-6" d="M5712.89,409.7c0,3.06-.09,6.13,0,9.2.39,11.17-2.28,21.21-10.34,29.45-3.22,3.28-6.15,6.84-9.16,10.31-6.54,7.53-8.58,16.1-5.43,25.6,3.85,11.62,8.05,23.12,12,34.71,9.55,28.32,2.19,55.13-11.34,79.38-8.77,15.72-23.14,28.56-39.49,37.72-9.36,5.23-19.32,9.37-28.76,14.46-7.85,4.24-20.18,3-22.92,12.9-1.79,6.47,3.19,14.56,3.86,22,.95,10.66.68,21.43,1,32.15,1.13,34.68-17.92,57.49-45.1,74.77-8.91,5.66-20,7.85-29.3,13-2.94,1.61-5.26,7.84-4.75,11.52,1,7.48,3.78,14.82,6.54,22,6.17,16,9.65,31,3.15,48.76-8.1,22.12-18.31,41.18-37,56.37-13.9,11.31-29.8,14.1-45.94,18.75-12.4,3.58-23.15,5-35.45.16-16.51-6.53-32.92-4.33-48.75,4-8.07,4.26-16.63,8.24-25.44,10.29-10.13,2.36-19.34,10.28-30.85,5.68-14-5.6-29.91-7.15-40.39-20.21-4.77-5.94-10.87-10.8-16.2-16.31-9.05-9.36-17.86-14.42-32.4-9.15-22.69,8.22-45.38,4.77-65.87-8.72-10.42-6.87-19-15.32-22.27-28.12a150.56,150.56,0,0,0-5.83-17.4c-4.05-10.49-3.12-20.64-.37-31.43,6-23.58,14.41-46.57,16.08-71.3.94-13.91,8-26.39,17.34-36.86,16.45-18.37,33.63-35.88,58.86-42.17,4.38-1.09,9.36-2.36,12.5-5.25,4.3-4,8.92-9.15,10.13-14.54,2-8.84,2-18.29,1.58-27.43-.7-14.51,3.71-27.57,11.47-39,12.06-17.87,27-33.17,46.12-43.94,20.34-11.43,41.16-20,65.3-18.47,8.57.56,13.79-6.94,10.83-15.63-4.6-13.46-3.66-27.16-4.62-40.87-2.54-35.94,41.91-84.76,84.16-80.59a155.59,155.59,0,0,1,26.94,4.59c14.35,4,23.15-3.33,26.36-17.33,1-4.47,1.36-9.09,2.32-13.58,1.71-8,6.8-13.55,13.53-17.69,17.84-11,36.81-15.86,56.87-7.39,12.47,5.26,23.69,4.59,35-2.27,2.6-1.57,5.64-2.42,8.34-3.86,24.76-13.25,47.55-7.34,68.93,7.73,11.77,8.3,19.5,19.45,18.7,34.86-.16,3.06,0,6.13,0,9.2Z"/><path class="cls-7" d="M3074.4,2361.6c0-5.2-.28-17.49,0-29.77,4.39-167,52.19-320.43,147-458,124.15-180.2,288.87-307.49,498.65-374,49.7-15.75,100.45-26.76,152-35.31,45.67-7.57,91.64-8.73,137.47-12.49,22.83-1.87,46,.29,69,1,10.73.33,21.43,1.73,32.16,2.29,100.61,5.16,197,29.3,289.6,67.68q189.42,78.46,333.93,224.6c110.36,111.92,183.51,245,221.62,397.16,23.25,92.85,33.69,187.28,28.24,283-5.19,91.11-23.57,179.7-59.69,263.55-94.62,219.67-246.71,386.33-462.16,492.82-83,41-170.72,67.31-262.23,81.71-54.65,8.6-109.44,15.82-164.72,16.46q-333.74,3.9-600-197.87c-82.58-62.62-154.83-135.21-213.12-221.3-61.8-91.27-103.7-190.93-128.77-298.17C3078.29,2500.28,3070.71,2435.08,3074.4,2361.6Zm383.13,45.91c-38.37,0-76.75.39-115.12-.13-27.84-.38-54.35,8.63-81.89,10.47-7.17.47-14.51,5.05-20.94,9.07-36.23,22.68-55.28,56.46-61.22,98a62.49,62.49,0,0,0,1.5,22.8c4.26,17.85,9.7,35.4,14.46,53.13,14.81,55.18,39,106.44,66,156.43a517.44,517.44,0,0,0,28.45,47.21c25.22,36.64,59.88,56.13,105.12,54.95,6.13-.17,12.27-.13,18.41-.3a95.27,95.27,0,0,0,51.75-17,487.8,487.8,0,0,0,59.91-50c55.12-53.4,108.88-108.2,164.12-161.47,19.61-18.92,31.24-41.1,38.45-66.72,4.29-15.28,5.1-30.11.09-45.19-2.89-8.72-5.08-17.74-8.71-26.15-12.58-29.16-34.09-50.72-60.58-67.24-7.59-4.73-16.86-7.46-25.74-9.28-31.56-6.49-63.4-10.06-95.81-8.81C3509.75,2408.3,3483.62,2407.5,3457.53,2407.51Zm750.69-849.3c-8,0-14.24-.57-20.31.09-38.26,4.18-70,19.57-92.81,52a123.19,123.19,0,0,0-23.07,73.13c.15,89,.43,178-.22,267.07-.14,19.07,5.06,36.4,11.33,53.6,8.72,23.93,24.77,41.94,47.36,54.2,17.66,9.59,36.67,14.6,55.77,20.45,39.81,12.18,73.57-.26,103-23.81,25-20,49-41.74,72.31-63.75,50.23-47.37,98.31-97,147.9-145.11a104.88,104.88,0,0,0,29.6-50.84c5.67-22.61,7-46-.84-68-9.33-26.38-23.36-50-50.12-63.36-9.54-4.76-18-11.7-27.39-16.8-43.2-23.44-87.73-43.89-134.75-58.6-23.4-7.32-46.92-14.34-70-22.54C4239.73,1560.2,4223.36,1557.51,4208.22,1558.21Zm405.07,849.28c-35.26,0-70.53-.12-105.8.08-10.69.06-21.85-.68-32,2-15.05,4-30.12,5.43-45.46,5.68a73.6,73.6,0,0,0-46.49,17.45c-34.7,28.68-55.34,63.82-54.86,111,.32,31.17,10.54,57.71,29.95,79.79,21.18,24.07,45.78,45.16,69.24,67.17,11.13,10.45,23.63,19.45,34.57,30.07,34.11,33.1,67.73,66.71,101.62,100,26.26,25.84,57,40.81,94.74,38.62,7.64-.45,15.32-.34,23-.4,19.32-.15,36.07-7.59,50.3-19.8,15.08-12.95,29.17-26.9,40.3-43.83,26.23-39.86,46.89-82.44,65.34-126.29,12.5-29.72,19.79-61.07,30.4-91.31,7.42-21.15,7.58-42.33,5.09-63.48-1.94-16.52-6.34-33.6-17.38-46.78a294.64,294.64,0,0,0-35.72-35.63c-10.53-8.89-23.45-13.93-37.45-16.39-31.72-5.58-63.43-9.57-95.8-8.21C4662.39,2408.31,4637.83,2407.48,4613.29,2407.49Zm-70.55,568.2c-.06-39.11-5.32-52.52-29.28-78-4.19-4.46-8.57-8.77-12.92-13.08q-89.85-89-179.72-177.91c-4.36-4.31-8.55-8.82-13.2-12.8-31.45-26.92-67-43.1-109.29-38.19-30.77,3.58-59.52,12.5-83.41,34.19-29.16,26.47-42.35,59.8-42.65,98-.7,88.88.17,177.78-.46,266.67-.14,19.12,4.65,36.14,12.82,52.86,12.52,25.64,30.93,45.93,56.77,57.85,26.58,12.27,54.11,22.34,84,9.89,2.78-1.16,5.94-1.47,9-2,54.77-9,106.09-29,156.82-50.28,25.37-10.67,49.31-24.68,74.23-36.48,16.93-8,30.73-19.64,44.13-32.48C4533.07,3031.35,4546,3005.07,4542.74,2975.69Zm59.19-651.6v0q78.21,0,156.43,0c32.59.06,59.87-13.24,81.87-35.87s35.32-49.66,34.43-82.44c-.42-15.39-1.36-30.29-6.68-45.15-6.16-17.22-9.25-35.52-14.85-53-16-49.9-42-95.26-65.6-141.65-5.54-10.87-13.12-20.67-19.18-31.3-17.81-31.25-46.19-47.71-79.22-58.44a79.62,79.62,0,0,0-36.3-3.43c-26,3.81-50.58,11.63-71.48,28.75-33.2,27.18-65.19,55.61-95.28,86.29-35.43,36.13-71.8,71.34-107.72,107-8.7,8.65-17.65,17.09-25.73,26.3a72.43,72.43,0,0,0-12.51,19.05c-15.67,37.21-15.83,75,1.35,111.36,9,19.07,21,36.67,40.2,49,22.66,14.54,46.08,23.6,73,23.54C4503.77,2324,4552.85,2324.09,4601.93,2324.09Zm-1149.35.07h129c7.68,0,15.38-.41,23,0,17.47,1.05,33.11-4.38,48.64-11.71,24.53-11.58,42.81-29,55.45-53.07,8.65-16.47,14.39-33.89,19.32-51.6,3.33-12,2.84-24.21-.42-36.38-9.06-33.76-26.87-62.25-54.84-82.8-17.51-12.86-32.78-27.69-48.09-42.72-40.55-39.81-81.67-79.09-121.07-120-25.56-26.53-56.27-42.18-91-50.86a78.62,78.62,0,0,0-31.85-1.19c-45,8-79.17,33.25-101.58,72.37-21.27,37.16-43.5,73.93-58.34,114.58-14.18,38.84-30.49,76.84-39.84,117.37-10.4,45.05,4.93,82.61,36.08,112.72,23.48,22.69,53.83,34.08,88.06,33.47C3354.27,2323.49,3403.43,2324.15,3452.58,2324.16Zm528-505.67c0-46-1-92,.4-138,.8-26-7.59-48.3-20.74-69.27-18.12-28.88-46-45.45-78.38-51.66-22.27-4.26-45.41-2-68.33,3.17-84.54,19.2-162.18,55-237.69,96.16-39.44,21.49-58.66,56.88-65.57,99.9a45.16,45.16,0,0,0,.55,18.28c4.31,16.17,8.34,32.3,18,46.78,24.16,36.17,56.79,64,88.47,92.88,11.29,10.28,23.52,19.57,34.48,30.18,29.74,28.79,59.44,57.66,88.32,87.31a188,188,0,0,0,43.81,33.15c27.54,15.27,56.84,22.44,88.17,11.21,7.19-2.58,14.65-4.45,22-6.56,21.09-6,38.38-17.42,54-33.12,21.8-21.9,33.42-46.46,32.74-77.83C3979.79,1913.57,3980.54,1866,3980.55,1818.49Zm0,1099.46q0-73.59.05-147.17c0-14-1.82-27.52-9.09-39.82-14.3-24.2-32.89-44.92-57.86-57.56-57.91-29.33-116.2-26.18-164.32,22.75q-1.62,1.63-3.28,3.22c-27.69,26.39-52.91,55.44-84.69,77.39-5,3.43-8.93,8.37-13.3,12.67-31.63,31.25-62.62,63.17-95.08,93.52-21.07,19.69-33.56,43.22-40.38,70.61-3.41,13.7-3.92,27.22.37,40.77,2.78,8.75,5.21,17.64,8.56,26.18a98.81,98.81,0,0,0,40.47,48.63c53.4,33.44,110.54,59.06,169.63,80.61,34.59,12.61,70.84,18.95,106.22,28.58a70.52,70.52,0,0,0,27.27,1.49c13.57-1.82,27.7-3.88,40.08-9.29,19.58-8.56,39.16-19,51.49-37.24,14.66-21.73,24.85-45.1,24.19-72.78C3979.71,3013,3980.53,2965.47,3980.52,2918Zm52.67-670.44c-49.83-2.65-87.92,21.72-110.83,53.67-26.76,37.32-26.54,92.59-1,129.9,50.56,73.85,163.58,76,213.9-2.65,18-28.09,23.29-59,14.07-92.52C4136.46,2289.1,4090.13,2248.19,4033.19,2247.51ZM3849,2482.43c-.54-3.06-.65-7.82-2.24-12-10.4-27.61-38.29-36.42-64.59-24.64-14.65,6.56-24.79,27.51-22,42.36,3.93,21.28,25.42,38.64,46.19,37.32C3827.82,2524.08,3847.34,2505.05,3849,2482.43Zm259.42,108.19c.23-19.26-17.49-41.71-46.73-40.4-23.32,1.05-40.59,19.14-41.36,41.46s22,44.26,44.72,43.15C4090.46,2633.59,4109.24,2614.45,4108.45,2590.62Zm-228.39-379.55c-.59-23.7-22.55-44.34-45.62-41-27.1,3.91-42,18.51-40.6,45.82,1.14,21.81,20.6,39.44,43.1,39.17C3861.67,2254.75,3880.66,2235.38,3880.06,2211.07Zm223.24-14.47c2.79-.39,7.4-.71,11.85-1.72,26.91-6.07,39.7-40.21,23.06-62.15-21.34-28.11-58-26.17-76.17,4.37-6.69,11.24-7.14,22.9-1.21,35.07C4069.21,2189.37,4083.11,2196.53,4103.3,2196.6Zm190.76,192.71c1-24.69-15.83-43.18-41.31-45.46-22.35-2-43.91,18.36-44.65,42.14-.72,23,15.34,40.25,39,41.87C4273.27,2429.64,4293.11,2413.35,4294.06,2389.31Z"/><path class="cls-8" d="M4033.19,2247.51c56.94.68,103.27,41.59,116.15,88.4,9.22,33.48,3.9,64.43-14.07,92.52-50.32,78.66-163.34,76.5-213.9,2.65-25.55-37.31-25.77-92.58,1-129.9C3945.27,2269.23,3983.36,2244.86,4033.19,2247.51Zm1.11,195.94c20.33,3.37,38.51-3.71,54.81-21,13.55-14.38,21.54-29,19.75-48.87-1-10.63.24-21.46-.72-32.09-.53-5.84-2.22-12.42-5.63-17-17.19-23.16-38.83-38.79-69.46-37.53-7.64.31-15.3.3-22.94.11-11.46-.29-20.75,4.24-28.68,12.14-5.42,5.4-11,10.67-16.28,16.17-16.89,17.5-24.43,38.25-22.22,62.66,3.19,35.15,31.91,62.9,65.82,65.35C4016.36,2443.92,4024.05,2443.45,4034.3,2443.45Z"/><path class="cls-9" d="M3849,2482.43c-1.69,22.62-21.21,41.65-42.68,43-20.77,1.32-42.26-16-46.19-37.32-2.75-14.85,7.39-35.8,22-42.36,26.3-11.78,54.19-3,64.59,24.64C3848.38,2474.61,3848.49,2479.37,3849,2482.43Z"/><path class="cls-9" d="M4108.45,2590.62c.79,23.83-18,43-43.37,44.21-22.75,1.11-45.48-20.82-44.72-43.15s18-40.41,41.36-41.46C4091,2548.91,4108.68,2571.36,4108.45,2590.62Z"/><path class="cls-9" d="M3880.06,2211.07c.6,24.31-18.39,43.68-43.12,44-22.5.27-42-17.36-43.1-39.17-1.44-27.31,13.5-41.91,40.6-45.82C3857.51,2166.73,3879.47,2187.37,3880.06,2211.07Z"/><path class="cls-9" d="M4103.3,2196.6c-20.19-.07-34.09-7.23-42.47-24.43-5.93-12.17-5.48-23.83,1.21-35.07,18.16-30.54,54.83-32.48,76.17-4.37,16.64,21.94,3.85,56.08-23.06,62.15C4110.7,2195.89,4106.09,2196.21,4103.3,2196.6Z"/><path class="cls-9" d="M4294.06,2389.31c-1,24-20.79,40.33-46.91,38.55-23.71-1.62-39.77-18.84-39-41.87.74-23.78,22.3-44.13,44.65-42.14C4278.23,2346.13,4295,2364.62,4294.06,2389.31Z"/><path class="cls-1" d="M4034.3,2443.45c-10.25,0-17.94.47-25.55-.08-33.91-2.45-62.63-30.2-65.82-65.35-2.21-24.41,5.33-45.16,22.22-62.66,5.32-5.5,10.86-10.77,16.28-16.17,7.93-7.9,17.22-12.43,28.68-12.14,7.64.19,15.3.2,22.94-.11,30.63-1.26,52.27,14.37,69.46,37.53,3.41,4.59,5.1,11.17,5.63,17,1,10.63-.24,21.46.72,32.09,1.79,19.91-6.2,34.49-19.75,48.87C4072.81,2439.74,4054.63,2446.82,4034.3,2443.45Z"/><path class="cls-2" d="M2855.06,4697.13c8,7.06,16,14.14,24,21.16,1.5,1.31,2.65,2.44.51,4.11a13.19,13.19,0,0,0-1.24,1.24c-23.32,23.71-46.72,47.34-69.89,71.2-3.14,3.23-4.69,3-7.65-.07a140.73,140.73,0,0,0-15.36-14c-2.16-1.7-2.41-2.53-.83-4.36,7.52-8.7,15.1-17.35,22.54-26.12,10.28-12.09,20.42-24.3,30.69-36.4,3.48-4.1,7.2-8,10.76-12.06,1.22-1.39,3.36-2.24,3-4.67Z"/></g></g></svg>