<svg width="16" height="17" viewBox="0 0 16 17" fill="none" xmlns="http://www.w3.org/2000/svg">
<path d="M12.6667 7.85978H8.66675V3.85978C8.66675 3.68297 8.59651 3.5134 8.47149 3.38838C8.34646 3.26335 8.17689 3.19312 8.00008 3.19312C7.82327 3.19312 7.6537 3.26335 7.52868 3.38838C7.40365 3.5134 7.33341 3.68297 7.33341 3.85978V7.85978H3.33341C3.1566 7.85978 2.98703 7.93002 2.86201 8.05504C2.73699 8.18007 2.66675 8.34964 2.66675 8.52645C2.66675 8.70326 2.73699 8.87283 2.86201 8.99785C2.98703 9.12288 3.1566 9.19312 3.33341 9.19312H7.33341V13.1931C7.33341 13.3699 7.40365 13.5395 7.52868 13.6645C7.6537 13.7895 7.82327 13.8598 8.00008 13.8598C8.17689 13.8598 8.34646 13.7895 8.47149 13.6645C8.59651 13.5395 8.66675 13.3699 8.66675 13.1931V9.19312H12.6667C12.8436 9.19312 13.0131 9.12288 13.1382 8.99785C13.2632 8.87283 13.3334 8.70326 13.3334 8.52645C13.3334 8.34964 13.2632 8.18007 13.1382 8.05504C13.0131 7.93002 12.8436 7.85978 12.6667 7.85978Z" fill="#A4A8AB"/>
</svg>
