<svg width="16" height="16" viewBox="0 0 16 16" fill="none" xmlns="http://www.w3.org/2000/svg">
<path d="M4.33333 8.66663H1.66667C1.48986 8.66663 1.32029 8.73686 1.19526 8.86189C1.07024 8.98691 1 9.15648 1 9.33329V14.6666C1 14.8434 1.07024 15.013 1.19526 15.138C1.32029 15.2631 1.48986 15.3333 1.66667 15.3333H4.33333C4.51014 15.3333 4.67971 15.2631 4.80474 15.138C4.92976 15.013 5 14.8434 5 14.6666V9.33329C5 9.15648 4.92976 8.98691 4.80474 8.86189C4.67971 8.73686 4.51014 8.66663 4.33333 8.66663ZM3.66667 14H2.33333V9.99996H3.66667V14ZM15 5.99996H12.3333C12.1565 5.99996 11.987 6.0702 11.8619 6.19522C11.7369 6.32025 11.6667 6.48982 11.6667 6.66663V14.6666C11.6667 14.8434 11.7369 15.013 11.8619 15.138C11.987 15.2631 12.1565 15.3333 12.3333 15.3333H15C15.1768 15.3333 15.3464 15.2631 15.4714 15.138C15.5964 15.013 15.6667 14.8434 15.6667 14.6666V6.66663C15.6667 6.48982 15.5964 6.32025 15.4714 6.19522C15.3464 6.0702 15.1768 5.99996 15 5.99996ZM14.3333 14H13V7.33329H14.3333V14ZM9.66667 0.666626H7C6.82319 0.666626 6.65362 0.736864 6.5286 0.861888C6.40357 0.986912 6.33333 1.15648 6.33333 1.33329V14.6666C6.33333 14.8434 6.40357 15.013 6.5286 15.138C6.65362 15.2631 6.82319 15.3333 7 15.3333H9.66667C9.84348 15.3333 10.013 15.2631 10.1381 15.138C10.2631 15.013 10.3333 14.8434 10.3333 14.6666V1.33329C10.3333 1.15648 10.2631 0.986912 10.1381 0.861888C10.013 0.736864 9.84348 0.666626 9.66667 0.666626ZM9 14H7.66667V1.99996H9V14Z" fill="#A4A8AB"/>
</svg>
