<svg width="18" height="10" viewBox="0 0 18 10" fill="none" xmlns="http://www.w3.org/2000/svg">
<path d="M11.4998 5.00001C11.4998 5.16483 11.5487 5.32595 11.6403 5.46299C11.7318 5.60003 11.862 5.70684 12.0143 5.76991C12.1665 5.83299 12.3341 5.84949 12.4957 5.81734C12.6574 5.78518 12.8059 5.70581 12.9224 5.58927C13.039 5.47273 13.1183 5.32424 13.1505 5.16259C13.1826 5.00094 13.1661 4.83338 13.1031 4.68111C13.04 4.52884 12.9332 4.39869 12.7961 4.30712C12.6591 4.21555 12.498 4.16668 12.3332 4.16668C12.1122 4.16668 11.9002 4.25448 11.7439 4.41076C11.5876 4.56704 11.4998 4.779 11.4998 5.00001ZM17.0915 4.40835L12.9248 0.241681C12.847 0.164446 12.7546 0.103342 12.6531 0.0618712C12.5516 0.0204007 12.4428 -0.000620149 12.3332 1.39286e-05H3.1665C2.50346 1.39286e-05 1.86758 0.263406 1.39874 0.732247C0.929896 1.20109 0.666504 1.83697 0.666504 2.50001V7.50001C0.666504 8.16306 0.929896 8.79894 1.39874 9.26778C1.86758 9.73662 2.50346 10 3.1665 10H12.3332C12.4428 10.0006 12.5516 9.97963 12.6531 9.93816C12.7546 9.89669 12.847 9.83558 12.9248 9.75835L17.0915 5.59168C17.1696 5.51421 17.2316 5.42204 17.2739 5.32049C17.3162 5.21895 17.338 5.11002 17.338 5.00001C17.338 4.89 17.3162 4.78108 17.2739 4.67953C17.2316 4.57798 17.1696 4.48582 17.0915 4.40835ZM11.9915 8.33335H3.1665C2.94549 8.33335 2.73353 8.24555 2.57725 8.08927C2.42097 7.93299 2.33317 7.72103 2.33317 7.50001V2.50001C2.33317 2.279 2.42097 2.06704 2.57725 1.91076C2.73353 1.75448 2.94549 1.66668 3.1665 1.66668H11.9915L15.3248 5.00001L11.9915 8.33335Z" fill="#444C55"/>
</svg>
