<svg width="16" height="16" viewBox="0 0 16 16" fill="none" xmlns="http://www.w3.org/2000/svg">
<path d="M14.4735 6.74671L9.2535 1.52671C9.16583 1.43854 9.05526 1.37664 8.93426 1.348C8.81327 1.31936 8.68668 1.32514 8.56879 1.36466C8.4509 1.40419 8.34642 1.4759 8.26714 1.57168C8.18786 1.66747 8.13695 1.78352 8.12016 1.90671L7.6335 5.33338L6.30016 6.66671L6.08016 6.54005C5.93662 6.47026 5.77281 6.45428 5.61848 6.49502C5.46416 6.53576 5.32958 6.63051 5.23919 6.76206C5.1488 6.89361 5.10861 7.05322 5.12591 7.21188C5.14322 7.37055 5.21688 7.51774 5.3335 7.62671L4.56683 8.40671L4.34683 8.28005C4.20365 8.2143 4.04181 8.20138 3.89001 8.2436C3.73821 8.28581 3.60627 8.38042 3.51759 8.51065C3.42891 8.64087 3.38921 8.7983 3.40555 8.95501C3.42188 9.11172 3.49319 9.25758 3.60683 9.36671L2.82683 10.14L2.6135 10C2.53741 9.95597 2.45335 9.92738 2.36616 9.91592C2.27898 9.90447 2.19039 9.91037 2.10549 9.9333C2.0206 9.95623 1.94108 9.99572 1.87152 10.0495C1.80195 10.1033 1.74372 10.1703 1.70016 10.2467C1.62487 10.384 1.60031 10.5434 1.63079 10.697C1.66126 10.8506 1.74482 10.9886 1.86683 11.0867L1.52683 11.4267C1.46509 11.4893 1.41737 11.5643 1.38683 11.6467C1.35267 11.7269 1.33455 11.8129 1.3335 11.9V14C1.3335 14.1769 1.40373 14.3464 1.52876 14.4715C1.65378 14.5965 1.82335 14.6667 2.00016 14.6667H4.08683C4.17395 14.6657 4.26001 14.6475 4.34016 14.6134C4.42259 14.5828 4.49758 14.5351 4.56016 14.4734L5.6935 13.3334L5.9135 13.46C5.98919 13.5044 6.07289 13.5334 6.1598 13.5453C6.24672 13.5573 6.33513 13.5519 6.41998 13.5296C6.50483 13.5073 6.58445 13.4685 6.65426 13.4154C6.72408 13.3623 6.78272 13.2959 6.82683 13.22C6.90466 13.0828 6.93129 12.9224 6.90199 12.7674C6.8727 12.6124 6.78937 12.4728 6.66683 12.3734L7.44683 11.6L7.66683 11.7267C7.76647 11.7832 7.87897 11.813 7.9935 11.8134C8.12111 11.8019 8.2427 11.7538 8.34373 11.675C8.44475 11.5962 8.52092 11.49 8.56312 11.369C8.60532 11.248 8.61177 11.1174 8.58169 10.9929C8.5516 10.8683 8.48627 10.7551 8.3935 10.6667L9.1735 9.89338L9.3935 10.02C9.49313 10.0765 9.60564 10.1064 9.72016 10.1067C9.8563 10.1043 9.98844 10.0602 10.0988 9.98046C10.2091 9.9007 10.2924 9.78905 10.3374 9.66055C10.3825 9.53204 10.387 9.39283 10.3506 9.26164C10.3141 9.13045 10.2384 9.01357 10.1335 8.92671L10.6602 8.40005L14.0935 7.91338C14.2169 7.89584 14.3329 7.84407 14.4283 7.76394C14.5238 7.68381 14.5949 7.57853 14.6335 7.46005C14.6792 7.33848 14.6884 7.20622 14.66 7.07949C14.6316 6.95277 14.5667 6.83711 14.4735 6.74671ZM3.8135 13.3334H2.66683V12.1867L3.04683 11.8067L4.50016 12.6667L3.8135 13.3334ZM5.4735 11.6667L4.00016 10.8334L4.76016 10.0734L6.20683 10.9067L5.4735 11.6667ZM7.2135 9.93338L5.76016 9.09338L6.52683 8.33338L8.00016 9.16671L7.2135 9.93338ZM8.9535 8.19338L7.50016 7.33338L8.26016 6.57338L9.40683 7.72005L8.9535 8.19338ZM10.5868 7.03338L8.96683 5.41338L9.2535 3.41338L12.5868 6.74671L10.5868 7.03338Z" fill="#444C55"/>
</svg>
