<svg id="Layer_1" data-name="Layer 1" xmlns="http://www.w3.org/2000/svg" viewBox="0 0 1930.38 2285.97"><defs><style>.cls-1{fill:#001e50;}</style></defs><path class="cls-1" d="M-970.14,1225.33q0-111.6,0-223.21c0-14.13.15-28.26-.73-42.39-.43-7,.71-14.11.71-21.18q.06-335.41.12-670.83c0-34.2,1.34-68.41,1.79-102.62.25-18.89,0-37.79-.19-56.68,0-2.76-.38-5.46.46-8.17,1.29-4.13,3.3-5.74,7.66-5.79,13.76-.16,27.52-.46,41.27-.39,31.86.16,63.71.37,95.56.87,9.38.15,18.71,2.06,28.17,1.46,50.22-3.18,100.51-.89,150.76-1.46,7.41-.09,14.85,1.49,22.26,1.35,23.54-.45,47.07-1.5,70.6-2,14.54-.32,29.08-.24,43.64.32,19.27.74,38.58.29,57.88.17,13.34-.08,26.68-.6,40-.65,5.86,0,8.11,2.31,7.27,8-1.38,9.35-2.6,18.67-2,28.13,3.18,51.1,1.14,102.26,1.14,153.38,0,16.84-1.3,33.74-1.07,50.63.1,7.33,1.06,14.65,1.31,22,.24,7.08.06,14.18.07,21.26,0,2,.32,4-.07,5.89-1.31,6.2-.56,12.37-.26,18.57q.3,6.48.31,13c0,68.11,1.25,136.25-.35,204.32-1.48,63-1.88,125.91-.65,188.8,1.24,63.74,1.73,127.49.57,191.17-1.13,61.77-1.79,123.55-.65,185.27,1.84,99.54.09,199.07,1.27,298.6.21,18.08.62,36.17.72,54.26a329.29,329.29,0,0,1-2.27,43.48c-1,8.17-1.11,16.48-1.46,24.73-.36,8.63-2,17.11-3,25.65-1.87,15.58-5.25,30.93-6.17,46.67-.6,10.46-3.11,20.79-4.41,31.22-1.16,9.24-4,18.18-4.7,27.53-.29,3.73-3.14,7.22-3.73,11-2.63,17-7.95,33.3-13.73,49.46-3.15,8.83-5.3,18-8.31,26.86a517.6,517.6,0,0,1-31.58,74.47c-7.41,14.17-14.39,28.56-21.64,42.82a269.72,269.72,0,0,1-19.73,33.26c-9.26,13.15-17.14,27.25-27.27,39.82q-10.7,13.29-21,26.84c-12.64,16.54-28.2,30.55-40.65,47.29-4.4,5.91-10.66,10.43-15.89,15.76-12.94,13.18-27,25.07-41.33,36.68-11.29,9.13-21.88,19.17-33.67,27.67-16.54,11.93-32.8,24.26-50.3,34.87-17.06,10.34-33.63,21.5-50.66,31.9-29.16,17.81-59.51,33.43-90.28,48.24-19.78,9.52-39.79,18.59-60.54,25.75-19.26,6.64-38.85,12.31-58.35,18.23-15,4.55-30,8.85-45.06,13.19-19.92,5.76-39.9,11.17-60.35,14.91q-40.51,7.41-81.24,13.45c-16.72,2.48-33.58,3-50.32,5.14-20.67,2.62-41.65,1.13-62.3,4.33a18.55,18.55,0,0,1-2.36.07c-20.43.45-40.89,1.75-61.29,1.12-19.6-.62-39.28-.29-58.83-2.59a171.84,171.84,0,0,0-18.83-1.21,344.85,344.85,0,0,1-51.64-4.22,5.82,5.82,0,0,0-1.17-.13c-15.84.67-31.18-3.44-46.79-4.92a168,168,0,0,1-20.87-3.51c-14.18-3.18-28.63-4.75-42.88-7.57-13.09-2.6-26-5.81-39-8.88-13.7-3.24-27.26-7.14-40.74-11.23-23.59-7.16-47-14.76-70.6-22-25.2-7.76-49.17-18.5-72.89-29.8-30.83-14.69-61.32-30.09-90.25-48.26-29.19-18.32-58.65-36.2-86.81-56.17-21.54-15.27-40.86-33.13-61.63-49.26-15.26-11.86-28-26.31-41.85-39.67-7.55-7.31-13.4-16.4-20.74-24.1-11.36-11.93-21-25.32-31.66-37.85-17.08-20.14-30.89-42.46-45.26-64.4-6.64-10.13-12.17-21-17.8-31.79-7.94-15.22-16-30.43-23.13-46-8-17.41-16.09-34.9-22.28-53-6.31-18.48-12.13-37.2-17.57-56-2.92-10.09-4.77-20.47-8-30.35-2.54-7.79-2.42-16.07-5.91-23.6-1.39-3-.51-7-1-10.44-1-6.55-2.49-13-3.42-19.6-1.25-8.92-2.07-17.9-3.26-26.82-2.22-16.71-4.59-33.39-6.87-50.09a60.83,60.83,0,0,1-.76-8.18c0-9.45-1-18.83-1.81-28.24-1.23-14.06-2.81-28.1-2.48-42.27,2.56-108.6.54-217.22,1.72-325.81.7-64.92,1.15-129.84.39-194.74-.74-63.76-1.05-127.52-.34-191.26.68-61.79,1.11-123.58.37-185.35-.9-74.38-.17-148.76-.63-223.14q-.18-30,0-60.06c.14-18.44,1.29-36.89.72-55.3-1.49-47.22-.33-94.44-.73-141.66q-.1-13,.65-25.93c.61-10.53.83-21.17-1.58-31.68-1.21-5.28,1.56-8.3,6.75-8.55,3.14-.15,6.3-.18,9.45,0,27.9,1.32,55.86,1.52,83.73.52,27.16-1,54.26-.15,81.34.58,14.1.38,28.27,2,42.35,1.08,46-3,92-.7,138-1.28,14-.17,28.09,2.18,42,1.15,22.81-1.7,45.58-.88,68.36-1.26,23.18-.39,46.38-.59,69.57-.79,5.49,0,11,.22,16.46.39,3.71.12,5.66,1.65,7,5.16,1,2.66.86,5.37.87,8.14q.24,63.17.64,126.32c.18,24.39.89,48.77.9,73.15q.11,312.39,0,624.77,0,206-.08,411.94c-.06,38.49-1.45,77-1.61,115.48-.07,17.26.2,34.54,1.14,51.83a368.86,368.86,0,0,0,8.78,61.67c4.31,19,9.81,37.87,19.84,55,4.19,7.16,9.3,13.59,14.44,20,10.57,13.18,20.59,26.85,33.29,38.17,16.44,14.65,33.76,28.05,53.32,38.39,10.41,5.5,20.25,12.15,31.35,16.29a312.65,312.65,0,0,0,40.39,12.41c13.42,3,27,4.73,40.42,7.36,13.61,2.67,27.32,2.84,40.85,4.73,21.92,3.07,43.9,3.44,65.87,3.74,36.6.49,73.21.2,109.81-.32,18.44-.27,37-.11,55.22-3.67,4.2-.81,8.63-.43,13-.54a109.53,109.53,0,0,0,23.29-3.23c8.33-2,17-2.45,25.5-4,28.71-5.15,56.6-12.77,81.94-27.89,9.75-5.82,19.87-11.09,29.26-17.45,19.88-13.48,38.31-28.68,53.06-47.93,6.93-9,14.27-17.75,21.22-26.76,7.23-9.38,12-20,16.26-31a240.21,240.21,0,0,0,12.8-47.49c2.46-15,5.74-30,5.6-45.52-.15-15.69,1.9-31.41,1.54-47.08-.46-20,.3-40.1-1-60.16-1-15.67-.68-31.44-.71-47.16Q-970.21,1292.05-970.14,1225.33Zm-876.52-393.44c-2.24-28.58-.55-54.95-.7-81.3-.42-70.45.12-140.92.31-211.38.1-35.41.35-70.83.36-106.25,0-31.09-.33-62.19-.34-93.28q0-76.17.13-152.33c0-3.13-.1-6.28-.34-9.41a3.2,3.2,0,0,0-3.09-3,61.36,61.36,0,0,0-7.05-.15c-23.2.53-46.39-.38-69.62,1.07-22.36,1.4-44.85.85-67.28.84-26,0-52-.34-77.93-.58-36.6-.34-73.2.72-109.8-.81-9.4-.39-18.85.78-28.28.74-11,0-22-.67-33-.95-4.52-.11-5,.32-5.34,4.22-1.54,19.21-2.88,38.42-3,57.71-.07,12.58-.78,25.15-.8,37.73,0,10.56.86,21.12.77,31.68-.16,19.27.42,38.54-.46,57.82-.56,12.13.95,24.34,1,36.51.05,26.73-.26,53.46-.44,80.19-.44,65.33.75,130.66-.84,196-.7,28.65.46,57.33.64,86,.26,41.7.7,83.41-.53,125.12-.74,25.13,1,50.32,1.19,75.49.32,36.2.39,72.41.43,108.62.07,68.85-.1,137.69-1.78,206.53-.59,24.39-.51,48.8-.51,73.2s.31,48.75.44,73.13c.27,54.28-1.08,108.59,1.84,162.85.86,16.09,1.39,32.21,2.17,48.31.15,3.13.81,6.24,1.18,9.36,1,8.19,1.7,16.42,2.94,24.56,1.47,9.67,3.11,19.33,5.18,28.89,1.81,8.38,4.4,16.59,6.5,24.92,3,11.72,5.45,23.59,8.79,35.2,3.25,11.28,7.37,22.31,11,33.48,7.39,22.72,15.71,45.12,26,66.68,15.34,32.28,34.35,62.5,54.15,92.21,5.22,7.83,10.23,15.79,16.22,23.1,12.47,15.22,25.26,30.17,38.93,44.32,19.42,20.08,39.88,39.1,60.44,58,15.92,14.66,32.25,28.82,50.06,41.13,12.55,8.67,25.28,17.08,38.07,25.38,7.21,4.69,14.67,9,22.08,13.37,13.17,7.8,26.56,15.22,39.51,23.35a462.78,462.78,0,0,0,43.33,23.79c21.14,10.32,42.52,20.17,64,29.73,16.46,7.32,32.82,14.93,50.21,20,11.24,3.29,22.15,7.71,33.43,10.82,10.9,3,21.64,6.62,32.86,8.67,8.47,1.54,16.89,3.37,25.42,4.71,9.66,1.52,19.07,4.68,28.73,6.08,20.19,2.93,40.45,5.38,60.72,7.63q19.9,2.21,39.93,3.28c19.23,1.06,38.49,1.66,57.74,2.42,15.72.62,31.47.9,47.17,1.87,9.85.61,19.67.68,29.49.32,22.78-.85,45.55-2.54,68.34-3,26.76-.5,53.39-2.56,80-4.93,5.46-.48,10.86-2.53,16.27-2.47,13.89.15,27.26-3.47,40.93-4.8a100.51,100.51,0,0,0,10.39-2c8.44-1.74,16.8-4.14,25.32-5.12,12.55-1.44,24.64-4.67,36.79-7.72,9.49-2.38,18.65-5.89,28-8.59,15.42-4.46,30.65-9.33,45.55-15.29,15.66-6.26,30.8-13.7,46.22-20.5,32.7-14.43,65.12-29.34,95.08-49,2.29-1.51,4.82-2.64,7.16-4.07,18-11,36.91-20.67,54.58-32.4,19.28-12.79,38.79-25.27,56.46-40.23,23.13-19.57,45.18-40.35,67-61.41a686,686,0,0,0,53.53-58.12,214.11,214.11,0,0,0,13.6-17.8c13.14-20,26.57-39.75,38.39-60.55,7.73-13.62,15.74-27.07,22.36-41.29,9.91-21.31,18.1-43.3,25.72-65.51,6.73-19.61,12.76-39.41,17.63-59.6,2.65-11,5.59-21.89,8.19-32.9,2.88-12.21,6.19-24.27,6.54-36.91.08-2.73.65-5.46,1-8.19,1.61-12.86,3.33-25.67,3.61-38.71.5-24,2.38-47.92,2.8-71.89.79-44.43-.71-88.89,1-133.32-2.13-27.45.19-54.93-.73-82.39-.75-22-.46-44.08-.62-66.11-.31-40.53-.74-81.06-.87-121.59-.09-30.3.24-60.6.33-90.91q.29-99.16.54-198.33c.13-40.92.43-81.83.46-122.75,0-27.15-.38-54.3-.45-81.46q-.27-109.2-.43-218.42c0-6.29-.51-12.59-.39-18.88.28-15.73,1.12-31.45,1.15-47.18.05-40.12-.43-80.24-.26-120.36.1-21.67-1.69-43.22-2.9-64.81-.26-4.55-.79-5-5.91-4.87-11.4.26-22.79.86-34.19.9-9.43,0-18.85-.72-28.28-.78-6.28,0-12.56.77-18.84.82-35.42.28-70.85.63-106.27.61-42.12,0-84.24-.37-126.36-.58a43.59,43.59,0,0,1-4.72-.09c-24-2.7-48-.53-72-1.29-3.77-.13-5.06,1.19-5.16,4.78-.21,8.26-.38,16.52-.38,24.77q0,89.14,0,178.29c0,34.24-.11,68.47,0,102.71.13,30.69.77,61.39.82,92.08q.19,109.82,0,219.64c0,23.61-.81,47.21-.8,70.82,0,50.78.31,101.55.44,152.33q.24,90.93.38,181.86c0,19.68-.33,39.36-.34,59,0,22,.32,44.07.24,66.1q-.26,66.7-.81,133.42c0,4.71-.54,9.41-.8,14.11-.84,14.91-1.1,29.87-2.65,44.7-1.47,14-3.2,28-4.37,42.11a38.48,38.48,0,0,1-1.14,5.79c-2.18,9.11-4.11,18.29-6.64,27.3-5.39,19.21-11.83,38-21.64,55.54-10.38,18.52-22.59,35.78-35.62,52.5-13.33,17.1-27.53,33.41-44.36,47.13-10.93,8.91-22.63,16.88-33.89,25.39-34.64,26.21-74,42-115.94,51.68-6.78,1.56-13.4,3.91-20.57,4.62-10.43,1-20.56,4.72-31.25,4.59-12.36,4.81-25.57,4.43-38.39,5.24-28.63,1.8-57.35,2.58-86,3-41.32.66-82.64,0-123.94-1.46-24.31-.87-48.71-.87-72.55-6.87a17.14,17.14,0,0,0-4.7-.35c-11.5.35-22.35-3.64-33.49-5.47-14.17-2.31-27.94-7.14-41.8-11.17a264.38,264.38,0,0,1-79.94-38.72c-10.54-7.51-20.65-15.64-31.36-22.91a172.66,172.66,0,0,1-27.56-23.83,437.5,437.5,0,0,1-57.94-75.58c-10.25-16.84-17.46-34.89-23.26-53.63q-5.4-17.4-9.12-35.2c-1.22-5.8-2.53-11.54-2.51-17.46,0-7.5-.42-14.92-2.43-22.18-2.46-8.87-1.12-18-1.8-27-1-12.92-2.39-25.86-2.49-38.8-.4-52-.34-103.9-.51-155.85-.12-33.83-.42-67.66-.47-101.49,0-18.89.39-37.78.46-56.67q.27-73.22.39-146.43C-1846.61,945.38-1846.66,887.51-1846.66,831.89Z" transform="translate(2332.94 -93.96)"/><path class="cls-1" d="M-557.83,1081.25a3.56,3.56,0,0,1-3.56-1.68c-25.18-28.73-53.33-54.54-80.37-81.45-8.93-8.89-17.88-17.75-26.7-26.73-3.17-3.23-6.42-5-11.3-5-31.49.25-63,.13-94.49.14a8.32,8.32,0,0,0-2.35.13,2.84,2.84,0,0,0-1.68,1.21,2.39,2.39,0,0,0,.12,2.13c4.67,5.32,9.22,10.76,14.21,15.76,36.18,36.21,72.54,72.22,108.65,108.49,28.33,28.45,56.38,57.17,84.55,85.77a59.06,59.06,0,0,0,5,5c2.4,1.9,6.35,3,7.27,5.35,1.35,3.45.72,7.72.72,11.64q0,57.29,0,114.56v6.66c-22.2,0-43.74,0-65.28,0q-29.52-.08-59-.34a42.46,42.46,0,0,1-8.22-.57c-6.2-1.27-8.59-4.15-8.92-10.6-.23-4.71-.15-9.44-.15-14.16q0-83.27,0-166.51c0-7.08,0-14.16,0-21.25,0-1.08.39-2.38-.93-3.09-1.87-1-2.87.5-3.92,1.51q-14.07,13.47-28.09,27-42.44,41-84.84,82c-2.06-.58-1.68-2.29-1.68-3.76q0-155.31,0-310.6a16.35,16.35,0,0,1,.35-2.43c2.28-1.41,4,1.35,6.3.89a31.27,31.27,0,0,1,5.89,0h152.38c2,0,3.93,0,5.9-.07,2.33,0,3.67-1.22,3.82-3.52.25-3.92.58-7.85.55-11.78-.26-35.41,2.83-70.8,1.42-106.2-2.45-61-.87-122-1.39-183,0-1.58,0-3.15-.07-4.73-.1-2.22-1-3.75-3.5-3.76-15,0-29.92,0-44.89-.1-3.2,0-5,1.85-6.89,3.84q-13.77,14.6-27.51,29.22Q-771.24,669-816,716.82a13.81,13.81,0,0,1-1.58,1.28c-.38-.18-.84-.27-1-.54a2.26,2.26,0,0,1-.15-1.15q0-148.8,0-297.61c0-1.08.25-2.17.52-4.38,3.06,3.38,5.52,6.15,8,8.87s4.89,5.12,7.27,7.74q26.16,28.86,52.29,57.75c4.74,5.25,9.43,10.57,14.08,15.9a12.57,12.57,0,0,0,10.33,4.54q36-.24,72.06,0c4.83.05,8-1.56,11-5.29,13.31-16.55,26.88-32.9,40.37-49.31q19.83-24.15,39.72-48.26a17.55,17.55,0,0,1,3.38-3.12c.31-.22,1.82.44,1.84.74.18,3.14.2,6.3.2,9.44v657.82C-557.7,1074.64-557.58,1078.05-557.83,1081.25Z" transform="translate(2332.94 -93.96)"/><path class="cls-1" d="M-2176.84,403.53c4.24.64,5.29,3.42,7,5.44q37.88,46,75.7,92c1.25,1.52,2.58,3,3.7,4.6,2,2.88,4.79,3.69,8.17,3.63,7.48-.13,15,0,22.44,0,16.53,0,33.07-.16,49.6.09,5.11.07,9-1.2,12.46-5.11,10.38-11.81,21-23.46,31.52-35.12q23.37-25.8,46.83-51.51c.18-.19.69-.06,1-.08.31.15.74.22.92.47a2.07,2.07,0,0,1,.29,1.13q0,148.76,0,297.5c-2.68,1.15-3.4-1.29-4.53-2.5q-53.64-57.3-107.2-114.68c-3.48-3.72-6.68-8.5-11-10.36s-10-.8-15.15-.83c-10.63-.06-21.26-.07-31.88,0-3.92,0-4.68.91-4.83,5-.12,3.14,0,6.29,0,9.44,0,42.51.11,85,0,127.52-.1,29.11-.76,58.23-.79,87.34,0,22.42-.32,44.9,1.09,67.25,1.23,19.54-2.91,16.46,16.38,16.51,51.18.14,102.35,0,153.53,0,1.13,0,2.25.1,3.25.15a12.2,12.2,0,0,1,.82,1.11,2.24,2.24,0,0,1,.47,1q0,155.84,0,311.5c-2.7,1.57-3.8-.61-5-1.81q-47.94-46.37-95.8-92.8c-5.07-4.91-10.31-9.65-15.31-14.31-3.13.8-2.35,3.08-2.36,4.83-.06,13.77,0,27.54,0,41.31q0,75,0,150c0,3.15.07,6.31-.1,9.45-.34,6.26-2.84,9.34-8.93,10.61a41.73,41.73,0,0,1-8.22.56q-52.55.23-105.1.37c-5.89,0-11.78,0-17.55,0-1.78-2.17-1.32-4.59-1.32-6.88,0-39.75.06-79.51-.11-119.26,0-4.76,1.54-7.37,5.34-10.48,7.87-6.44,14.73-14.14,21.94-21.38q88.3-88.68,176.6-177.39a40.47,40.47,0,0,0,3.32-3.36c4.35-5.51,10.08-9.88,13.52-16.15-6.89-4-14.38-1.51-21.53-1.63-24.79-.4-49.6.08-74.39-.3-6.91-.11-11.64,2.22-16.41,7-24.48,24.5-49.5,48.44-73.83,73.07-9.65,9.76-20.22,18.72-28.35,30-1.1,1.52-2.8,2.6-4.11,3.78a8.54,8.54,0,0,1-1.45-.8,1.5,1.5,0,0,1-.46-.92Q-2176.85,741.36-2176.84,403.53Z" transform="translate(2332.94 -93.96)"/><path class="cls-1" d="M-775.54,1729.08c-5.46,5.07-10.3,9.1-14.59,13.64-13.77,14.57-28.36,28.28-43.43,41.49-3.74,3.28-4,3.87-1.82,8,5.28,10.2,12.14,19.33,21.1,26.47a129.38,129.38,0,0,0,54.79,25.5,222.45,222.45,0,0,0,70.27,3.5c2-.21,3.93-.08,5.9-.12,14.16-.35,28-3,41.6-6.59a23.61,23.61,0,0,1,4.61-.89,74.53,74.53,0,0,0,18.57-3c1.88-.6,4.1-.64,5.27,1.29s-.12,3.82-1.27,5.37q-5.6,7.56-11.38,15c-8.66,11.1-16.77,22.62-26.61,32.8a102.48,102.48,0,0,1-44.57,27.42c-6.56,2-13.26,4.91-20.53,4.36a13.44,13.44,0,0,0-4.59.94c-17,5.1-34.06,4.1-51.25,1.2a189.17,189.17,0,0,0-19.87-2.18c-7.16-.44-13.89-2.76-20.55-4.8-31.9-9.75-59.88-26.85-85.91-47.33a162.49,162.49,0,0,1-25-24.87c-9.94-12.17-18.83-25.2-28.06-37.94-2.87-4-2.78-4.72.52-8,5.84-5.85,11.69-11.69,17.77-17.29,13.27-12.24,26.24-24.81,37.61-38.82,18.1-22.28,33.77-46.15,45.73-72.39,9.33-20.48,15.38-41.93,20.57-63.71,3.46-14.48,7.18-28.9,10.56-43.4,1.81-7.72,1.55-15.59,1.05-23.47-.13-2,.93-3.63,3.48-3.65,6.27-.06,12.49-.68,18.83-.39,32.64,1.46,65.31.54,98,.45,11,0,22,.1,33,.11h92.1c3.15,0,6.31-.06,9.44.16,4,.29,4.9,1.48,4.92,6q.13,43.1.26,86.18c0,8.65-.24,17.25-2,25.81-1.09,5.35-.39,11.06-1.47,16.41-3.22,16-5.79,32.24-11.16,47.83a102.22,102.22,0,0,1-29.59,44.48c-7.24,6.38-15.53,10.68-24.28,14a142.54,142.54,0,0,1-48.08,9.43c-6.69.15-13.41.4-20.08,0-23.84-1.58-45.28-8.88-61.48-27.49C-764.94,1751.59-770.66,1741.31-775.54,1729.08Zm7-118.07c2.35,13.86,4.39,26.92,6.87,39.89.74,3.84,1.73,7.57,1.93,11.54.52,10.61,5.46,18.45,15,23.58a108.94,108.94,0,0,0,24.11,9.19,92.16,92.16,0,0,0,45.39.87c12.08-2.9,21.49-9.63,25.51-22a57.28,57.28,0,0,0,2.87-13.79c1-15.28,4-30.29,5.77-45.46.86-7.35.43-8-7-8.57a53.64,53.64,0,0,0-7-.29c-29.4,1.47-58.9-.27-88.26,2.67C-751.52,1609.44-759.67,1610.17-768.56,1611Z" transform="translate(2332.94 -93.96)"/><path class="cls-1" d="M-1959.26,1729.7c-4.36,7.84-8,15.64-12.61,23-9.29,14.66-22.74,24.14-38.41,29.81-10.49,3.8-21.77,6.35-33.36,5.68-9.81-.56-19.74,0-29.46-1.19-16.71-2-33-6.08-47.73-14.68s-25.62-20.67-33.41-35.59c-4.52-8.65-7.65-17.81-10.37-27.29-2.93-10.19-3.7-20.74-6.8-30.82a9.34,9.34,0,0,1-.59-2.28c-.47-14.92-4.16-29.53-4.05-44.55.21-29.86,0-59.74-.14-89.6a3.58,3.58,0,0,1,3.45-3.88,95.69,95.69,0,0,1,10.57-.54q44.86-.06,89.73,0c29.5.07,59,.42,88.52.35,16.12,0,32.24-.78,48.37-1,5.09-.08,10.2.28,15.3.54,2.75.14,4.57,1.69,4.19,4.51-1.86,13.62,2.23,26.49,5,39.47,4,18.4,9,36.53,14.14,54.66,6.75,24,17.27,46.22,30,67.48a342.16,342.16,0,0,0,39.35,52.72c7.34,8.13,15.51,15.51,23.36,23.18q11,10.73,22.06,21.34c2,1.94,2.24,4,.62,6.27-14.65,20.43-28.24,41.8-47.45,58.45A277.26,277.26,0,0,1-1898,1910a185.29,185.29,0,0,1-36.61,12.09c-5.73,1.22-11.69,1.24-17.5,2.11-12,1.81-24,4-36.3,3.38-7.82-.4-15.7.42-23.18-3-5.75-2.59-12.68-.25-18.2-4.07-25.63-4.58-45.1-19-61.1-38.68-7.14-8.8-13.94-17.88-20.86-26.86-3.34-4.33-6.68-8.67-9.87-13.11a4.12,4.12,0,0,1-.59-3.25c.59-1.65,2.41-1.82,3.93-1.74a35.35,35.35,0,0,1,4.61.89,92.1,92.1,0,0,0,9.24,1.73c11.33,1,22.23,4.23,33.3,6.57a18.73,18.73,0,0,0,3.46.61c22,.43,43.8,3.78,66,1.42,14.11-1.5,27.91-3.57,41.34-8,14.65-4.81,28.29-11.72,40-21.79a86,86,0,0,0,21-26.59c1.48-2.94.74-5-1.65-7.2q-15.24-13.9-30.22-28.08c-8.25-7.86-16.26-16-24.42-23.94A41.53,41.53,0,0,0-1959.26,1729.7Zm-7.53-117.36c-2.48-2.23-5-2-7.23-2.16-22.68-1.7-45.31-3.93-68.11-3.6-12.16.17-24.32-.4-36.48-.55a95.5,95.5,0,0,0-10.57.43c-4.78.47-5.88,2-5.18,7.06,1.71,12.41,3.54,24.8,5.34,37.19.91,6.19,1.31,12.41,2.55,18.6,3.11,15.54,13.12,23.76,27.62,26.9,24.35,5.28,47.4.82,69.29-10.72,8.37-4.41,13.11-11.48,14-20.48.66-6.69,2.21-13.11,3.37-19.65C-1970.22,1634.25-1968.53,1623.09-1966.79,1612.34Z" transform="translate(2332.94 -93.96)"/><path class="cls-1" d="M-1367.27,1915.9h100.36a27.74,27.74,0,0,1,3.53,0,4.62,4.62,0,0,1,4.31,3.4c1,3.78,2.33,7.55,2.72,11.4,2,19.56,7.75,38.35,11.57,57.53a85.91,85.91,0,0,1,1.07,9.36c.2,2.34-.19,4.81.39,7,5.63,21.68,3.83,43.73,3.29,65.69-.18,7-1.45,14-2.32,21-.24,1.94-1.22,3.84-1.19,5.75.16,11.49-3.29,22.54-4,33.89-.79,12.92-3.66,25.57-4.3,38.53-.57,11.33-3.63,22.37-6.18,33.44q-2.74,12-5,24c-.8,4.19-3.43,6.22-7.3,6.36-6.68.25-13.37.17-20.06,0-5.89-.11-11.77-.71-17.66-.72q-58.44-.1-116.89,0c-11,0-22,.6-33,.84a47,47,0,0,1-8.22-.42c-2.93-.45-5.15-2.16-5.59-5.28-.87-6.2-3-12.08-4-18.34-1.28-8.45-3.41-16.88-5.26-25.29a87.2,87.2,0,0,1-2.22-15.1c-.34-7.85-.85-15.68-2.94-23.31a12.73,12.73,0,0,1-.69-3.46c.23-16.61-3.74-32.76-5.74-49.09a391.69,391.69,0,0,1-2.88-50.49c.06-8.26-.65-16.77,1.12-24.69,2.57-11.52,2.89-23.27,5.3-34.82,3.52-16.85,8.51-33.44,10.19-50.67a36.28,36.28,0,0,1,.73-4.65c2.74-12,2.75-11.85,15.23-11.82q47.82.09,95.64,0Z" transform="translate(2332.94 -93.96)"/><path class="cls-1" d="M-1049.49,2187.4c-.62-.69-1.47-1.21-1.54-1.81a5.74,5.74,0,0,1,.4-3.42c6.68-10.49,9.39-22.28,11.71-34.27,2-10.38,5.41-20.59,6.45-31.05,1.14-11.34,4.92-22.18,5.18-33.66.12-5.83.25-11.77,2.07-17.52a33.14,33.14,0,0,0,1.11-9.35c.18-11.37-.1-22.75.3-34.11.49-13.86-1.66-27.44-3.78-41a201.51,201.51,0,0,0-12.5-45.17c-.74-1.8-1.35-3.71-3.22-4.77-1.44-.82-3-2.24-2.47-3.65,2.13-5.72-5.38-8.59-3.86-14-3.47-3.61-3.1-8.67-4.87-12.93-2-4.69-3.48-9.55-5.29-14.3a36.74,36.74,0,0,0-2.19-4.16c-1.1-2-4.06-3-3.71-5.69.39-3,3.08-4.37,5.36-5.91q19-12.9,38.12-25.78c3.06-2.06,4.72-1.76,6.93,1.15,1.18,1.55,2.14,3.26,3.21,4.89,4.11,6.22,7.79,12.79,12.43,18.58a464.22,464.22,0,0,0,47,51c19,17.55,39.41,33.67,61.81,46.81,8.71,5.1,18.48,8.41,27.82,12.42a170.92,170.92,0,0,0,35.88,10.56c10.72,2,21.23,5.18,32.31,6.17,9.31.84,18.66,2.27,28,2.8,6.52.38,13.28,2.1,19.47-2.12,1-.66,3.07.52,3.28,2.44.26,2.48-.35,4.89-2.48,6.25-10.88,7-20,16.18-31.11,23s-21.29,14.64-31.81,22.15c-12.7,9.06-25,18.68-38,27.24-14,9.23-28.68,17.56-43.13,26.17-8.36,5-16.72,10-25.37,14.45-3.61,1.86-6.17,4.73-9.3,7-4.38,3.18-9.83,3.82-14.36,6.48-13.47,7.89-27.27,15.14-41.23,22.11-3.44,1.71-7.47,2.68-9.64,6.41a3.17,3.17,0,0,1-1.83,1.39c-15,3.16-27.78,11.81-41.75,17.49a50.13,50.13,0,0,0-12.1,7.06C-1047,2187.36-1048.45,2187.21-1049.49,2187.4Zm74.66-114.71c0,2.55,0,3.72,0,4.9.33,9.82,5.29,12.84,13.66,8.26,1.72-.94,3.37-2,5-3.06q23.45-14.67,46.89-29.36c10.64-6.68,21.35-13.24,31.81-20.19,7.21-4.79,7.11-9.81.21-14.68-1.61-1.13-3.29-2.15-5-3.17q-35.19-21.42-70.39-42.81a31.15,31.15,0,0,0-6.28-3.12c-5.46-1.79-9.55.51-10.53,6a69.67,69.67,0,0,0-.79,9.37c-.26,6.27,0,12.6-.65,18.82C-973.37,2027-971.87,2050.67-974.83,2072.69Z" transform="translate(2332.94 -93.96)"/><path class="cls-1" d="M-1686.06,2187.39c-.58-.13-1.94,0-2.79-.67-11.48-8.33-24.85-12.86-37.6-18.6-5.23-2.35-9.92-6-16.21-6.19-3-.07-4-4.42-7.16-5.67-4.68-1.86-9-4.5-13.64-6.57-10.69-4.82-20.49-11.24-30.76-16.79-2.73-1.47-5.27-3.2-8.71-3-2.85.15-3.51-3.46-6.54-4.3-3.93-1.09-6.66-5-10.46-7.18q-33.51-19.33-66.47-39.61c-8.31-5.1-16.13-11-24-16.8-15.42-11.35-30.76-22.8-46.85-33.18a210.61,210.61,0,0,1-25.22-19,46.33,46.33,0,0,0-5.89-3.8c-2.29-1.46-2.7-3.77-2.53-6.17.13-1.78,1.81-3.4,3.09-2.63,7,4.23,14.45,1.72,21.76,1.94,11.5.35,22.61-2.39,33.87-3.66,10.41-1.18,20.49-5,30.84-7,12.75-2.44,24.66-7.18,36.7-11.77,20.78-7.92,38.64-20.49,55.85-34.19,3.36-2.68,6.82-5.23,10.15-8,18.89-15.43,35.6-33,51.43-51.49,7.66-9,15.35-17.81,21.82-27.67,2.13-3.26,3.1-7.16,6-10,2.06-2,3.87-2.32,6.16-.77q20,13.55,40,27.11a20.21,20.21,0,0,1,1.9,1.4c2.07,1.8,2.72,4.35.85,6.13-5.75,5.47-6.25,13.36-9.75,19.82-2.08,3.85-.65,8.5-3.83,12-2.79,3.12-1.07,8.47-4.91,11.32,2,6.54-4.53,9.21-6.38,14a252.57,252.57,0,0,0-12.82,48.66c-3.21,19.09-3.77,38.22-3.42,57.48.13,7.48.26,14.92,1.64,22.27,1.58,8.51,2.17,17.1,2.81,25.72.52,7,2.22,13.87,3.69,20.75,2.36,11.11,3,22.56,6.66,33.4,1.76,5.22,1.37,10.77,3.44,16.06,2.85,7.27,4.17,15.12,9.08,21.56C-1683,2184-1684.06,2187.2-1686.06,2187.39Zm-74-111.46c-.48-5.13-1.24-10.58-1.48-16.06-1-23.9-1.86-47.81-2.91-71.71a113.83,113.83,0,0,0-1.7-14,6.32,6.32,0,0,0-6.73-5.26c-3.26.07-6,1.47-8.73,3.14-24.44,14.94-49,29.75-73.35,44.76-11.14,6.86-11,11.14.43,18.4q38.79,24.54,77.75,48.85a46.19,46.19,0,0,0,5.06,3c5.46,2.5,10.3-.11,11.36-6.09A44.24,44.24,0,0,0-1760.08,2075.93Z" transform="translate(2332.94 -93.96)"/><path class="cls-1" d="M-817.91,237.51H-571c2.75,0,5.53.18,8.26-.08,3.27-.3,4.11,1.54,4.11,4.16q.06,30.07,0,60.16c0,4.52-.62,4.91-5.65,4.91q-82,0-164,0c-3.81,0-7.62.21-12.46.35,2.44,5.64,6.15,9,9.65,12.49q26,25.74,52,51.42c6.13,6.07,12.22,12.16,17.84,17.76.48,4.14-2.14,5.69-3.84,7.69q-20.28,23.79-40.64,47.48c-2.66,3.1-3.46,3.19-6.49.17q-41.79-41.61-83.54-83.27c-6.68-6.64-13-13.72-20.62-19.32a4.45,4.45,0,0,1-2-3.88c0-1.57,0-3.15,0-4.72q0-44.23,0-88.47C-818.38,242.05-818.07,239.74-817.91,237.51Z" transform="translate(2332.94 -93.96)"/><path class="cls-1" d="M-1994.35,308.65a16.94,16.94,0,0,0-1.88-1.63,3.17,3.17,0,0,0-1.13-.31c-.79,0-1.57,0-2.36,0h-175.76c-1.78-8.05-2.2-53.47-.67-68.16,9.25-1.34,234.5-1.78,257.84-.5,1.74,2,1.24,4.46,1.25,6.75,0,29.5-.08,59,.13,88.51,0,4.78-1.79,7.54-5.19,10.83-20.38,19.67-40.34,39.76-60.42,59.73-13.39,13.31-26.72,26.69-40.11,40-3.4,3.38-3.94,3.23-7.24-.63q-19.17-22.41-38.39-44.79c-1.28-1.49-2.65-2.91-3.87-4.44-2.56-3.21-2.65-4.17.19-7,8.58-8.67,17.27-17.22,25.93-25.81,14.24-14.13,28.51-28.21,42.7-42.39C-2000.29,315.67-1997.59,312.29-1994.35,308.65Z" transform="translate(2332.94 -93.96)"/><path class="cls-1" d="M-817.19,1277.5c3.51.53,4.56,3.34,6.19,5.39q42.91,54.06,85.75,108.17c7.65,9.64,7.67,9.63,20.6,9.63h140.5c4.89,0,5.56.47,5.58,5q.12,26.55,0,53.11c0,4.82-.58,5.26-5.46,5.26q-64.94,0-129.87,0h-118c-6.32,0-6.33,0-6.47-6.57,0-2,0-3.93,0-5.9q0-81.45.06-162.9C-818.35,1285-819.52,1281-817.19,1277.5Z" transform="translate(2332.94 -93.96)"/><path class="cls-1" d="M-2175.59,1400.69h5.44q70.8,0,141.6,0c13.14,0,9.37,1.93,17.57-8.34q43.79-54.81,87.23-109.92c1.43-1.8,2.93-3.55,4.78-5.8,3,2.82,1.88,6.1,1.89,8.9q.11,78.45,0,156.91c0,5.9,0,11.8-.07,17.69-.05,2.72-1.22,4.1-4.32,4.09-14.54-.06-29.08.19-43.63.18q-90.85-.09-181.71-.26c-8.65,0-17.3.07-26,0-3.31,0-4.14-.78-4.15-4.21q0-28.32.14-56.62C-2176.73,1402.59-2176.14,1401.9-2175.59,1400.69Z" transform="translate(2332.94 -93.96)"/><path class="cls-1" d="M-1190.25,1911.68c10.07-1.16,18.69-1.88,27.22-3.23,10.86-1.72,21.63-3.94,32.44-6,6.39-1.2,10.28,1.16,10.55,7.28.22,4.83,1.62,9.11,3.08,13.62,3.23,10,6.58,20.13,8.11,30.46,1.67,11.27,4.66,22.23,6.4,33.47,3,19.55,3,39.15,2.5,58.81a20.76,20.76,0,0,0-.08,2.36c1.14,13.46-1.68,26.61-3.22,39.85-1.5,12.83-3.17,25.65-4.85,38.46a68.43,68.43,0,0,1-1.6,6.84c-.64,2.67-1.78,5.32-1.86,8-.38,11.89-4.41,22.95-7,34.36-1.88,8.29-5.27,16.4-5.24,25.12a35.14,35.14,0,0,1-.51,3.5c-.5,5-3.25,7.36-8.17,8.53-16,3.81-32,8-48,12.12-1.91.49-3.77,1.15-5.68,1.59-2.83.66-4.28-1-3.49-4.09,1.16-4.57,2.45-9.1,3.75-13.63,6.7-23.4,12.64-47,15-71.26,4.55-14,3-28.85,6.21-43a62.54,62.54,0,0,0,1.28-12.91c.29-22.78,2.43-45.59-.07-68.33a310,310,0,0,0-5.93-34.76A488.42,488.42,0,0,0-1190.25,1911.68Z" transform="translate(2332.94 -93.96)"/><path class="cls-1" d="M-1544.93,1911.94a447.63,447.63,0,0,0-17.5,53.68c-2.26,9-6.27,17.88-5.62,27.56a7.16,7.16,0,0,1-.35,2.33c-5.74,21.23-3.49,42.93-4,64.5-.56,21.37,3.85,42.23,5.4,63.38a196.27,196.27,0,0,0,4.63,29c2.1,9.18,2.61,18.59,5.58,27.68,4,12.28,6.71,25,10,37.52.5,1.91,1.1,3.78,1.55,5.7.69,3-.78,4.32-4,3.51-14.09-3.6-28.16-7.29-42.24-10.92-4.56-1.17-9.18-2.16-13.72-3.46-2.82-.8-5.06-2.65-5-5.81.09-9.15-4.76-17.33-5-26.44,0-2.23-1.46-4.41-2.06-6.66-2.42-9.07-5.39-18-5.81-27.52a5.77,5.77,0,0,0,0-1.18c-2.91-12.22-3.81-24.78-6.24-37.07a92.65,92.65,0,0,1-1.88-12.75c-.37-6.64-.33-13.38-2.33-19.86a16.36,16.36,0,0,1-.72-4.66c-.11-15.7-2.71-31.35-.94-47.1a77.84,77.84,0,0,0,.32-9.42c-.11-15.84,2.67-31.28,6.59-46.53,1.84-7.21,2.44-14.61,4.23-21.87,1.68-6.79,4.14-13.4,5.55-20.32,1.15-5.66,3.83-10.93,3.73-17-.07-3.78,4.62-6.84,8.5-6.22,3.1.49,6.17,1.21,9.21,2C-1580.34,1908.23-1563,1909-1544.93,1911.94Z" transform="translate(2332.94 -93.96)"/><path class="cls-1" d="M-817.4,734.57h95.75c2.35,0,4.71,0,7.06.08s3.68,1.14,3.82,3.5c.11,2,.14,3.92.15,5.88q0,32.38,0,64.78c0,2,0,3.93-.08,5.89-.13,2.3-1.54,3.46-3.75,3.7-1.16.13-2.34.14-3.52.2-32.17,1.62-64.35-.52-96.52.14-2.32,0-3.69-.83-3.82-3.25,0-.78-.09-1.57-.09-2.35q0-37.7.11-75.38A17,17,0,0,1-817.4,734.57Z" transform="translate(2332.94 -93.96)"/><path class="cls-1" d="M-1918.47,817.86a13.67,13.67,0,0,1-3.15.72c-31.78,0-63.57,1.44-95.35,0-1.17-.05-2.35-.09-3.52-.17a3.63,3.63,0,0,1-3.67-3.74c-.14-2-.09-3.93-.09-5.89q0-32.38,0-64.78c0-2,0-3.92.14-5.88.14-2.32,1.51-3.41,3.77-3.49,1.18,0,2.36-.08,3.53-.08q47.13,0,94.25,0c4.47,0,5,.34,5,4.35q.06,38.28-.08,76.55A8.62,8.62,0,0,1-1918.47,817.86Z" transform="translate(2332.94 -93.96)"/></svg>