<svg xmlns="http://www.w3.org/2000/svg" viewBox="0 0 2061.06 2061.27"><g id="Layer_2" data-name="Layer 2"><g id="Layer_1-2" data-name="Layer 1"><path d="M1031,2061.27C461.78,2062.51.8,1602,0,1031.08-.79,467.69,449.4,9.35,1012.74.14,1591-9.31,2052.51,451.24,2060.94,1014.55,2069.53,1587.7,1610.8,2060.12,1031,2061.27ZM581.66,211.89c-4.43,2-6.59,2.76-8.54,3.88-131.07,75.06-237.28,176.7-321,302-3.51,5.24-2.47,16.43.66,22.77q197.4,399.39,395.7,798.33c23.91,48.19,47.69,96.44,72.05,144.4,2.47,4.86,8.22,10.09,13.16,10.91,3,.5,7.53-7,10.91-11.31,1.71-2.18,2.37-5.18,3.52-7.8,57.23-131.11,114.69-262.12,171.43-393.45,7.49-17.32,18.1-24,36.77-23.62,49.23.93,98.5,1.08,147.71,0,19.61-.45,30,6.8,37.76,24.66q84.67,196.23,171,391.76c3.39,7.72,10.42,13.86,15.75,20.73q7.85-9.43,15.68-18.89a7.64,7.64,0,0,0,.77-1.54q232-467.49,464.32-934.87c4.67-9.38,4.67-16.09-1.32-24.86-83-121.48-186.48-221-313.66-295.49-4.32-2.53-9-4.53-14.6-7.36-3.14,6.54-5.94,12.08-8.48,17.73Q1306.26,597,1141.71,964.44c-8,17.83-18.74,25-38,24.74-49.8-.83-99.63-.6-149.43-.13-17.1.17-27-6.64-34.13-22.53Q780.86,654.58,640.64,343.05C621.23,299.81,601.77,256.6,581.66,211.89ZM1904,706.17c-3.71,6.52-6.44,10.83-8.7,15.38Q1654.61,1206,1414,1690.41c-19.1,38.45-38.13,76.93-57.44,115.27-6.51,12.92-15.74,22.58-31.84,22.11s-24.62-10.5-31-23.51c-2.76-5.66-5.21-11.47-7.77-17.22q-120.42-270.61-241-541.13c-3-6.73-9.5-11.91-14.36-17.81-4.89,5.82-11.42,10.91-14.42,17.58-39.71,88.2-78.91,176.64-118.26,265q-65,145.88-130,291.74c-6.18,13.86-14.77,24.67-31.44,25.32-16.84.67-26.08-9.79-32.91-23.26-8.8-17.35-17.32-34.84-26-52.27Q422,1237.84,166.42,723.45c-2.62-5.27-5.55-10.38-9.16-17.08C42.34,988.69,72,1433.05,423,1738.58c337.22,293.54,830.31,305.49,1180.3,28.54C1971.68,1475.59,2028.62,1020.14,1904,706.17ZM1336.09,147.4c-204.9-70.68-406.79-70.76-611.06,0,3.83,8.86,6.64,15.58,9.6,22.22Q852.31,433.95,970,698.27c15.6,35,31,70.15,47.13,105,2.65,5.72,8.38,10,12.68,15,4.79-5.07,9.92-9.88,14.22-15.34,2.4-3.05,3.43-7.19,5.06-10.85q105.53-236.85,211-473.7C1285,262.38,1309.85,206.45,1336.09,147.4Z"/></g></g></svg>